<?xml version="1.0" standalone="no"?>
<!DOCTYPE svg PUBLIC "-//W3C//DTD SVG 1.1//EN" "http://www.w3.org/Graphics/SVG/1.1/DTD/svg11.dtd" >
<svg>
<metadata>
Created by FontForge 20090622 at Wed Jun 15 23:29:19 2016
 By deploy user
&#194;&#169; Fabian Fohrer &#38; Fabian Huber 2015
</metadata>
<defs>
<font id="Moderat-Bold" horiz-adv-x="607" >
  <font-face 
    font-family="Moderat"
    font-weight="700"
    font-stretch="normal"
    units-per-em="1000"
    panose-1="0 0 8 0 0 0 0 0 0 0"
    ascent="800"
    descent="-200"
    x-height="500"
    cap-height="700"
    bbox="-223 -298 1136 920"
    underline-thickness="50"
    underline-position="-50"
    unicode-range="U+0020-U+FB02"
  />
<missing-glyph horiz-adv-x="830" 
d="M666 601q104 -104 104 -251t-104 -251t-251 -104t-251 104t-104 251t104 251t251 104t251 -104zM646 119q96 96 96 231q0 136 -96 232t-231 96q-136 0 -232 -96t-96 -232q0 -135 96 -231t232 -96q135 0 231 96zM290 383v95h-30v27h87v-27h-30v-95h-27zM512 383v95h-30v27
h87v-27h-29v-95h-28zM591 291l5 14l26 -9l-4 -13q-21 -64 -77 -106q-56 -41 -126 -41q-71 0 -127 41q-57 43 -76 106l-5 13l27 9l4 -14q18 -55 66 -92q50 -36 111 -36q60 0 110 36q48 37 66 92z" />
    <glyph glyph-name="onequarter" unicode="&#x31;&#x2044;&#x34;" horiz-adv-x="876" 
d="M144 255v233h-94v81h57q19 0 30 11.5t11 30.5v29h92l1 -385h-97zM754 640h-115l-498 -640h115zM826 160v-79h-65v-81h-85v81h-172v50l142 254h115v-225h65zM618 160h58v95h-9z" />
    <glyph glyph-name="onehalf" unicode="&#x31;&#x2044;&#x32;" horiz-adv-x="922" 
d="M144 255v233h-94v81h57q19 0 30 11.5t11 30.5v29h92l1 -385h-97zM754 640h-115l-498 -640h115zM784 147q-9 -6 -26 -15.5l-25.5 -14.5t-16 -13t-8.5 -15h155v-89h-279v36q0 58 23 90t64 56l29 15.5t28 15.5t21.5 14t16.5 17t5 20q0 15 -11.5 24t-29.5 9
q-25 0 -39.5 -15.5t-14.5 -37.5h-91q0 57 37.5 100.5t109.5 43.5q60 0 97 -32t37 -86q0 -73 -82 -123z" />
    <glyph glyph-name="threequarters" unicode="&#x33;&#x2044;&#x34;" horiz-adv-x="913" 
d="M282 451q19 -4 37.5 -24t18.5 -56q0 -50 -39.5 -84.5t-100.5 -34.5q-64 0 -106 36.5t-42 91.5h92q1 -17 17 -30t38 -13q20 0 33 10t13 29q0 37 -58 37h-27v74h24q54 0 54 37q0 15 -11 25.5t-29 10.5q-17 0 -29 -10t-14 -24h-91q0 46 38.5 81.5t99.5 35.5q56 0 90.5 -30.5
t34.5 -76.5q0 -31 -14.5 -52t-28.5 -27v-6zM791 640h-115l-498 -640h115zM863 160v-79h-65v-81h-85v81h-172v50l142 254h115v-225h65zM655 160h58v95h-9z" />
    <glyph glyph-name="uni2153" unicode="&#x31;&#x2044;&#x33;" horiz-adv-x="922" 
d="M144 255v233h-94v81h57q19 0 30 11.5t11 30.5v29h92l1 -385h-97zM754 640h-115l-498 -640h115zM816 196q19 -4 37.5 -24t18.5 -56q0 -50 -39.5 -84.5t-100.5 -34.5q-64 0 -106 36.5t-42 91.5h92q1 -17 17 -30t38 -13q20 0 33 10t13 29q0 37 -58 37h-27v74h24q54 0 54 37
q0 15 -11 25.5t-29 10.5q-17 0 -29 -10t-14 -24h-91q0 46 38.5 81.5t99.5 35.5q56 0 90.5 -30.5t34.5 -76.5q0 -31 -14.5 -52t-28.5 -27v-6z" />
    <glyph glyph-name="uni2154" unicode="&#x32;&#x2044;&#x33;" horiz-adv-x="989" 
d="M250 402q-9 -6 -26 -15.5l-25.5 -14.5t-16 -13t-8.5 -15h155v-89h-279v36q0 58 23 90t64 56l29 15.5t28 15.5t21.5 14t16.5 17t5 20q0 15 -11.5 24t-29.5 9q-25 0 -39.5 -15.5t-14.5 -37.5h-91q0 57 37.5 100.5t109.5 43.5q60 0 97 -32t37 -86q0 -73 -82 -123zM821 640
h-115l-498 -640h115zM883 196q19 -4 37.5 -24t18.5 -56q0 -50 -39.5 -84.5t-100.5 -34.5q-64 0 -106 36.5t-42 91.5h92q1 -17 17 -30t38 -13q20 0 33 10t13 29q0 37 -58 37h-27v74h24q54 0 54 37q0 15 -11 25.5t-29 10.5q-17 0 -29 -10t-14 -24h-91q0 46 38.5 81.5
t99.5 35.5q56 0 90.5 -30.5t34.5 -76.5q0 -31 -14.5 -52t-28.5 -27v-6z" />
    <glyph glyph-name="arrowleft" unicode="&#x3c;&#x2014;" horiz-adv-x="863" 
d="M803 377v-120h-557l162 -161l-83 -83l-285 285v39l285 285l83 -83l-163 -162h558z" />
    <glyph glyph-name="arrowright" unicode="&#x2d;&#x3e;" horiz-adv-x="863" 
d="M538 622l285 -285v-39l-285 -285l-83 83l162 161h-557v120h558l-163 162z" />
    <glyph glyph-name="smileface" unicode="&#x3a;&#x29;" horiz-adv-x="830" 
d="M666 601q104 -104 104 -251t-104 -251t-251 -104t-251 104t-104 251t104 251t251 104t251 -104zM646 119q96 96 96 231q0 136 -96 232t-231 96q-136 0 -232 -96t-96 -232q0 -135 96 -231t232 -96q135 0 231 96zM290 383v95h-30v27h87v-27h-30v-95h-27zM512 383v95h-30v27
h87v-27h-29v-95h-28zM591 291l5 14l26 -9l-4 -13q-21 -64 -77 -106q-56 -41 -126 -41q-71 0 -127 41q-57 43 -76 106l-5 13l27 9l4 -14q18 -55 66 -92q50 -36 111 -36q60 0 110 36q48 37 66 92z" />
    <glyph glyph-name="fi" unicode="fi" horiz-adv-x="692" 
d="M558 556q-35 0 -60.5 25t-25.5 59q0 36 25 60.5t61 24.5q35 0 59.5 -24.5t24.5 -60.5q0 -34 -25 -59t-59 -25zM622 500v-500h-128v395h-244v-395h-126v395h-84v105h84v39q0 74 52.5 120t126.5 46q34 0 64 -10.5t43 -20.5l12 -11l-48 -89q-28 19 -58 19q-27 0 -46.5 -18.5
t-19.5 -43.5v-31h372z" />
    <glyph glyph-name="fl" unicode="fl" horiz-adv-x="694" 
d="M372 705q49 0 93 -11t72 -26.5t48.5 -30.5t29.5 -26l9 -11v-600h-130v554q-40 35 -117 35q-54 0 -90.5 -21t-36.5 -53v-15h144v-105h-144v-395h-126v395h-84v105h84v23q0 79 68 130.5t180 51.5z" />
    <glyph glyph-name="f_f" unicode="ff" horiz-adv-x="836" 
d="M624 531v-31h144v-105h-144v-395h-126v395h-104h-144v-395h-126v395h-84v105h84v39q0 74 52.5 120t126.5 46q34 0 64 -10.5t43 -20.5l12 -11l-48 -89q-28 19 -58 19q-27 0 -46.5 -18.5t-19.5 -43.5v-31h164h84v39q0 74 52.5 120t126.5 46q34 0 64 -10.5t43 -20.5l12 -11
l-48 -89q-28 19 -58 19q-27 0 -46.5 -18.5t-19.5 -43.5z" />
    <glyph glyph-name="f_f_i" unicode="ffi" horiz-adv-x="1066" 
d="M932 556q-35 0 -60.5 25t-25.5 59q0 36 25 60.5t61 24.5q35 0 59.5 -24.5t24.5 -60.5q0 -34 -25 -59t-59 -25zM996 500v-500h-128v395h-244v-395h-126v395h-104h-144v-395h-126v395h-84v105h84v39q0 74 52.5 120t126.5 46q34 0 64 -10.5t43 -20.5l12 -11l-48 -89
q-28 19 -58 19q-27 0 -46.5 -18.5t-19.5 -43.5v-31h164h84v39q0 74 52.5 120t126.5 46q34 0 64 -10.5t43 -20.5l12 -11l-48 -89q-28 19 -58 19q-27 0 -46.5 -18.5t-19.5 -43.5v-31h372z" />
    <glyph glyph-name="f_f_j" unicode="ffj" horiz-adv-x="1064" 
d="M912 556q-35 0 -60.5 25t-25.5 59q0 36 25 60.5t61 24.5q35 0 59.5 -24.5t24.5 -60.5q0 -34 -25 -59t-59 -25zM868 500h106v-539q0 -74 -52.5 -120t-126.5 -46q-34 0 -64 10.5t-43 20.5l-12 11l48 89q28 -19 58 -19q27 0 46.5 18.5t19.5 43.5v426h-224v-395h-126v395
h-104h-144v-395h-126v395h-84v105h84v39q0 74 52.5 120t126.5 46q34 0 64 -10.5t43 -20.5l12 -11l-48 -89q-28 19 -58 19q-27 0 -46.5 -18.5t-19.5 -43.5v-31h164h84v39q0 74 52.5 120t126.5 46q34 0 64 -10.5t43 -20.5l12 -11l-48 -89q-28 19 -58 19q-27 0 -46.5 -18.5
t-19.5 -43.5v-31h244z" />
    <glyph glyph-name="f_f_l" unicode="ffl" horiz-adv-x="1058" 
d="M736 705q49 0 93 -11t72 -26.5t48.5 -30.5t29.5 -26l9 -11v-600h-130v554q-40 35 -117 35q-54 0 -90.5 -21t-36.5 -53v-15h144v-105h-144v-395h-126v395h-84h-154v-395h-126v395h-84v105h84v39q0 74 52.5 120t126.5 46q34 0 64 -10.5t43 -20.5l12 -11l-48 -89
q-28 19 -58 19q-27 0 -46.5 -18.5t-19.5 -43.5v-31h154h84v23q0 79 68 130.5t180 51.5z" />
    <glyph glyph-name="f_j" unicode="fj" horiz-adv-x="690" 
d="M538 556q-35 0 -60.5 25t-25.5 59q0 36 25 60.5t61 24.5q35 0 59.5 -24.5t24.5 -60.5q0 -34 -25 -59t-59 -25zM494 500h106v-539q0 -74 -52.5 -120t-126.5 -46q-34 0 -64 10.5t-43 20.5l-12 11l48 89q28 -19 58 -19q27 0 46.5 18.5t19.5 43.5v426h-224v-395h-126v395h-84
v105h84v39q0 74 52.5 120t126.5 46q34 0 64 -10.5t43 -20.5l12 -11l-48 -89q-28 19 -58 19q-27 0 -46.5 -18.5t-19.5 -43.5v-31h244z" />
    <glyph glyph-name=".notdef" horiz-adv-x="830" 
d="M666 601q104 -104 104 -251t-104 -251t-251 -104t-251 104t-104 251t104 251t251 104t251 -104zM646 119q96 96 96 231q0 136 -96 232t-231 96q-136 0 -232 -96t-96 -232q0 -135 96 -231t232 -96q135 0 231 96zM290 383v95h-30v27h87v-27h-30v-95h-27zM512 383v95h-30v27
h87v-27h-29v-95h-28zM591 291l5 14l26 -9l-4 -13q-21 -64 -77 -106q-56 -41 -126 -41q-71 0 -127 41q-57 43 -76 106l-5 13l27 9l4 -14q18 -55 66 -92q50 -36 111 -36q60 0 110 36q48 37 66 92z" />
    <glyph glyph-name=".null" horiz-adv-x="0" 
 />
    <glyph glyph-name="nonmarkingreturn" horiz-adv-x="333" 
 />
    <glyph glyph-name="space" unicode=" " horiz-adv-x="270" 
 />
    <glyph glyph-name="exclam" unicode="!" horiz-adv-x="280" 
d="M188 200h-95l-20 500h134zM140 155q33 0 56.5 -23t23.5 -57q0 -33 -23.5 -56.5t-56.5 -23.5t-56.5 23.5t-23.5 56.5q0 34 23.5 57t56.5 23z" />
    <glyph glyph-name="quotedbl" unicode="&#x22;" horiz-adv-x="394" 
d="M163 578l-31 -108h-60l-31 108q-11 35 -11 52q0 34 22 53.5t50 19.5t50 -19.5t22 -53.5q0 -17 -11 -52zM333 578l-31 -108h-60l-31 108q-11 35 -11 52q0 34 22 53.5t50 19.5t50 -19.5t22 -53.5q0 -17 -11 -52z" />
    <glyph glyph-name="numbersign" unicode="#" horiz-adv-x="699" 
d="M649 399h-106l-23 -112h86v-111h-108l-35 -176h-121l35 176h-118l-35 -176h-121l35 176h-93v111h115l23 112h-95v111h117l38 190h121l-38 -190h118l38 190h121l-38 -190h84v-111zM399 287l23 112h-118l-23 -112h118z" />
    <glyph glyph-name="dollar" unicode="$" horiz-adv-x="577" 
d="M527 170q0 -74 -52.5 -118t-130.5 -54v-88h-110v92q-82 18 -133 71.5t-51 118.5h124q0 -47 60 -71v164q-80 36 -123 79.5t-43 106.5q0 68 47 112t119 57v90h110v-91q74 -15 119.5 -64.5t45.5 -104.5h-124q0 10 -11 25.5t-30 26.5v-156q30 -12 50 -21.5t47.5 -27.5t44 -37
t29 -48t12.5 -62zM190 476q0 -34 44 -60v113q-44 -17 -44 -53zM344 114q60 15 60 62q0 22 -14.5 36t-45.5 27v-125z" />
    <glyph glyph-name="percent" unicode="%" horiz-adv-x="779" 
d="M200 345q-62 0 -106 44.5t-44 105.5t44 105.5t106 44.5q61 0 105.5 -44.5t44.5 -105.5t-44.5 -105.5t-105.5 -44.5zM659 640l-406 -640h-134l406 640h134zM200 450q20 0 32.5 13t12.5 32t-12.5 32t-32.5 13t-32.5 -13t-12.5 -32t12.5 -32t32.5 -13zM579 -5
q-61 0 -105.5 44.5t-44.5 105.5t44.5 105.5t105.5 44.5t105.5 -44.5t44.5 -105.5t-44.5 -105.5t-105.5 -44.5zM579 100q19 0 32 13t13 32t-13 32t-32 13t-32 -13t-13 -32t13 -32t32 -13z" />
    <glyph glyph-name="ampersand" unicode="&#x26;" horiz-adv-x="668" 
d="M628 0h-145l-50 60q-62 -65 -156 -65q-95 0 -161 55.5t-66 146.5q0 60 30.5 102t87.5 80q-66 92 -66 161q0 70 51 117.5t132 47.5q82 0 128.5 -48.5t46.5 -120.5q0 -107 -122 -188l75 -90l42 72h138l-95 -173zM282 591q-26 0 -44 -17t-18 -42q0 -36 45 -93q77 46 77 95
q0 28 -18 42.5t-42 14.5zM277 114q46 0 75 43l-112 132q-58 -40 -58 -87q0 -38 28 -63t67 -25z" />
    <glyph glyph-name="quotesingle" unicode="'" horiz-adv-x="244" 
d="M183 578l-31 -108h-60l-31 108q-11 35 -11 52q0 34 22 53.5t50 19.5t50 -19.5t22 -53.5q0 -17 -11 -52z" />
    <glyph glyph-name="parenleft" unicode="(" horiz-adv-x="363" 
d="M323 -104l-85 -75q-178 193 -178 489q0 297 178 490l85 -76q-139 -151 -139 -414q0 -261 139 -414z" />
    <glyph glyph-name="parenright" unicode=")" horiz-adv-x="363" 
d="M30 -104q139 153 139 414q0 263 -139 414l85 76q178 -193 178 -490q0 -296 -178 -489z" />
    <glyph glyph-name="asterisk" unicode="*" horiz-adv-x="400" 
d="M360 583l-85 -43l85 -43l-43 -74l-80 53l6 -96h-86l6 96l-80 -53l-43 74l85 43l-85 43l43 74l80 -53l-6 96h86l-6 -96l80 53z" />
    <glyph glyph-name="plus" unicode="+" horiz-adv-x="595" 
d="M545 370v-116h-187v-191h-120v191h-188v116h188v188h120v-188h187z" />
    <glyph glyph-name="comma" unicode="," horiz-adv-x="263" 
d="M132 155q39 0 60 -29t21 -80q0 -38 -12 -71t-28.5 -53t-33.5 -35t-29 -21l-12 -7l-31 33q56 50 66 105q-32 2 -57.5 21t-25.5 57q0 36 23.5 58t58.5 22z" />
    <glyph glyph-name="hyphen" unicode="-" horiz-adv-x="460" 
d="M50 368h360v-114h-360v114z" />
    <glyph glyph-name="period" unicode="." horiz-adv-x="260" 
d="M130 -5q-33 0 -56.5 23.5t-23.5 56.5q0 34 23.5 57t56.5 23t56.5 -23t23.5 -57q0 -33 -23.5 -56.5t-56.5 -23.5z" />
    <glyph glyph-name="slash" unicode="/" horiz-adv-x="487" 
d="M467 750l-336 -800h-111l336 800h111z" />
    <glyph glyph-name="zero" unicode="0" horiz-adv-x="584" 
d="M293 -5q-118 0 -180.5 85.5t-62.5 240.5t62 240t180 85t180 -85t62 -241q0 -155 -62 -240t-179 -85zM292 128q101 0 101 191q0 194 -101 194q-100 0 -100 -193q0 -192 100 -192z" />
    <glyph glyph-name="one" unicode="1" horiz-adv-x="395" 
d="M187 0v433h-132v106h73q28 0 46.5 19t18.5 47v35h126l1 -640h-133z" />
    <glyph glyph-name="two" unicode="2" horiz-adv-x="570" 
d="M332 251q-66 -33 -89.5 -62t-23.5 -63h276v-126h-425v51q0 187 159 282q20 12 50.5 27.5t45 23.5t27 24.5t13.5 38.5q2 37 -20 56t-55 19q-38 0 -62 -24t-24 -63h-133q0 35 13 70t37.5 67.5t68.5 53t100 20.5q90 0 150 -50.5t60 -137.5q0 -43 -14.5 -77t-43.5 -59
t-51 -39t-59 -32z" />
    <glyph glyph-name="three" unicode="3" horiz-adv-x="549" 
d="M395 340q41 -15 65 -56.5t24 -91.5q0 -81 -62 -139t-154 -58q-96 0 -159.5 63t-63.5 141h129q3 -32 27 -55.5t65 -23.5q37 0 61.5 20.5t24.5 58.5q0 36 -24 62t-75 26h-43v105h39q47 0 66 22.5t19 50.5q0 31 -21 48t-50 17q-24 0 -44.5 -13.5t-24.5 -46.5h-126
q0 78 59 127t141 49q79 0 135.5 -47.5t56.5 -121.5q0 -41 -17.5 -76.5t-47.5 -52.5v-8z" />
    <glyph glyph-name="four" unicode="4" horiz-adv-x="600" 
d="M550 249v-119h-104v-130h-129v130h-282v81l233 430h128h50v-392h104zM188 249h129v224h-10z" />
    <glyph glyph-name="five" unicode="5" horiz-adv-x="563" 
d="M278 430q99 0 159.5 -62t60.5 -159q0 -100 -63.5 -157t-159.5 -57q-103 0 -161.5 63t-58.5 137h130q0 -3 1 -8t6.5 -18t14 -23t26.5 -18t41 -8q48 0 70 28.5t22 67.5q0 44 -26.5 70t-68.5 26q-25 0 -45.5 -9t-28.5 -18l-8 -9l-121 33l30 332h370v-126h-260l-9 -99
q34 14 79 14z" />
    <glyph glyph-name="six" unicode="6" horiz-adv-x="540" 
d="M266 407q92 0 153 -56t61 -147q0 -95 -63.5 -152t-151.5 -57t-151.5 56.5t-63.5 153.5q0 43 19 104q7 23 33 71.5t50.5 89l60 99l44.5 72.5h145zM265 118q35 0 60.5 21.5t25.5 64.5q0 44 -27 64.5t-59 20.5t-59 -20.5t-27 -64.5q0 -43 26 -64.5t60 -21.5z" />
    <glyph glyph-name="seven" unicode="7" horiz-adv-x="485" 
d="M40 641h405v-95q-89 -92 -141 -233t-52 -313h-133q0 105 15 196t40.5 153t46 99t42.5 65h-223v128z" />
    <glyph glyph-name="eight" unicode="8" horiz-adv-x="582" 
d="M413 346q43 -16 73.5 -59t30.5 -96q0 -78 -64.5 -137t-162.5 -59t-161.5 58.5t-63.5 137.5q0 55 31.5 97.5t72.5 57.5v9q-30 16 -50 50.5t-20 74.5q0 70 56.5 118t137.5 48q78 0 134 -46t56 -115q0 -41 -20 -77t-50 -52v-10zM291 528q-30 0 -49.5 -16.5t-19.5 -43.5
q0 -28 21 -43.5t48 -15.5t47.5 15.5t20.5 43.5q0 27 -19 43.5t-49 16.5zM292 116q42 0 65.5 25t23.5 55q0 31 -24.5 56t-65.5 25t-65.5 -25.5t-24.5 -55.5t24.5 -55t66.5 -25z" />
    <glyph glyph-name="nine" unicode="9" horiz-adv-x="520" 
d="M264 234q-92 0 -153 56t-61 147q0 95 63.5 152t150.5 57t151.5 -56.5t64.5 -148.5q0 -57 -29 -119q-48 -103 -178 -322h-145zM265 523q-35 0 -60.5 -21.5t-25.5 -64.5q0 -44 27 -64.5t59 -20.5t59 20.5t27 64.5q0 43 -26 64.5t-60 21.5z" />
    <glyph glyph-name="colon" unicode=":" horiz-adv-x="260" 
d="M130 345q-33 0 -56.5 23.5t-23.5 56.5q0 34 23.5 57t56.5 23t56.5 -23t23.5 -57q0 -33 -23.5 -56.5t-56.5 -23.5zM130 -5q-33 0 -56.5 23.5t-23.5 56.5q0 34 23.5 57t56.5 23t56.5 -23t23.5 -57q0 -33 -23.5 -56.5t-56.5 -23.5z" />
    <glyph glyph-name="semicolon" unicode=";" horiz-adv-x="268" 
d="M130 345q-33 0 -56.5 23.5t-23.5 56.5q0 34 23.5 57t56.5 23t56.5 -23t23.5 -57q0 -33 -23.5 -56.5t-56.5 -23.5zM137 155q39 0 60 -29t21 -80q0 -38 -12 -71t-29 -53t-33.5 -35t-28.5 -21l-12 -7l-31 33q56 50 66 105q-32 2 -57.5 21t-25.5 57q0 36 23.5 58t58.5 22z
" />
    <glyph glyph-name="less" unicode="&#x3c;" horiz-adv-x="530" 
d="M470 450l-247 -140v-16l247 -139v-155l-430 272v60l430 273v-155z" />
    <glyph glyph-name="equal" unicode="=" horiz-adv-x="595" 
d="M50 445h495v-116h-495v116zM50 250h495v-115h-495v115z" />
    <glyph glyph-name="greater" unicode="&#x3e;" horiz-adv-x="530" 
d="M60 605l430 -273v-60l-430 -272v155l247 139v16l-247 140v155z" />
    <glyph glyph-name="question" unicode="?" horiz-adv-x="461" 
d="M144 247q0 52 12.5 93t55.5 84q14 14 34.5 31l31.5 26.5t19.5 23.5t8.5 30q0 25 -18 42.5t-53 17.5q-70 0 -80 -75h-122q0 77 48 133t150 56q93 0 145 -47t52 -118q0 -34 -13.5 -64t-28.5 -46t-41.5 -40.5t-35.5 -34.5q-21 -23 -31.5 -51.5t-11 -42t-0.5 -44.5v-21h-122
v47zM206 -5q-33 0 -56.5 23.5t-23.5 56.5q0 34 23.5 57t56.5 23t56.5 -23t23.5 -57q0 -33 -23.5 -56.5t-56.5 -23.5z" />
    <glyph glyph-name="at" unicode="@" horiz-adv-x="980" 
d="M494 705q112 0 211 -51t162 -150t63 -225q0 -111 -48 -182t-126 -82q-42 -6 -83 6.5t-67 42.5q-43 -49 -133 -49q-96 0 -159 64.5t-63 171.5q0 108 63 176t153 68q72 0 117 -47h14l22 42h68v-310q0 -26 18.5 -39t41.5 -8q57 12 57 134q0 155 -89 239.5t-220 84.5
q-138 0 -231 -91.5t-93 -246.5q0 -152 90.5 -244.5t236.5 -92.5q83 0 162 44l81 -82q-113 -71 -248 -71q-66 0 -129.5 19t-120.5 57t-100 91t-68.5 126t-25.5 157q0 102 38 188t100.5 142t141.5 87t164 31zM475 130q46 0 71.5 33t25.5 88q0 53 -23.5 91t-74.5 38
t-76.5 -37.5t-25.5 -87.5t26 -87.5t77 -37.5z" />
    <glyph glyph-name="A" unicode="A" horiz-adv-x="668" 
d="M422 700l236 -700h-144l-49 153h-262l-49 -153h-144l236 700h176zM243 277h182l-79 243h-24z" />
    <glyph glyph-name="B" unicode="B" horiz-adv-x="617" 
d="M452 371q51 -15 83 -59t32 -110q0 -96 -66 -149t-169 -53h-262v700h241q87 0 154 -47.5t67 -134.5q0 -98 -80 -139v-8zM198 582v-159h96q107 0 107 79q0 80 -107 80h-96zM302 118q67 0 99 25.5t32 67.5q0 40 -28.5 67.5t-92.5 27.5h-114v-188h104z" />
    <glyph glyph-name="C" unicode="C" horiz-adv-x="693" 
d="M502 210h151q-30 -100 -107.5 -157.5t-179.5 -57.5q-137 0 -226.5 100.5t-89.5 254.5t89 254.5t226 100.5q101 0 179.5 -57.5t108.5 -157.5h-151q-39 83 -135 83q-84 0 -131.5 -61.5t-47.5 -161.5t48 -161.5t133 -61.5q94 0 133 83z" />
    <glyph glyph-name="D" unicode="D" horiz-adv-x="692" 
d="M292 700q146 0 248 -93.5t102 -256.5t-102 -256.5t-248 -93.5h-222v700h222zM292 132q94 0 153.5 59.5t59.5 161.5q0 101 -59.5 158t-153.5 57h-86v-436h86z" />
    <glyph glyph-name="E" unicode="E" horiz-adv-x="611" 
d="M201 125h340v-125h-471v700h461v-125h-330v-158h300v-125h-300v-167z" />
    <glyph glyph-name="F" unicode="F" horiz-adv-x="551" 
d="M531 573h-327v-156h267v-123h-267v-294h-134v417v283h461v-127z" />
    <glyph glyph-name="G" unicode="G" horiz-adv-x="733" 
d="M393 382h280v-382h-93l-15 59h-13q-60 -64 -177 -64q-140 0 -232.5 101t-92.5 255t92.5 254t238.5 100q64 0 117 -21t83.5 -51.5t51 -60.5t27.5 -51l8 -21h-150q-1 3 -4 8.5t-14 19t-25 23.5t-39 18.5t-55 8.5q-87 0 -141.5 -64t-54.5 -164q0 -101 55.5 -164t147.5 -63
q114 0 155 80v61h-150v118z" />
    <glyph glyph-name="H" unicode="H" horiz-adv-x="686" 
d="M481 700h135v-700h-135v291h-276v-291h-135v700h135v-282h276v282z" />
    <glyph glyph-name="I" unicode="I" horiz-adv-x="279" 
d="M209 700v-700h-139v700h139z" />
    <glyph glyph-name="J" unicode="J" horiz-adv-x="567" 
d="M185 210q0 -29 22.5 -57.5t65.5 -28.5q44 0 67.5 31.5t23.5 74.5v470h133v-460q0 -121 -67 -183t-161 -62q-93 0 -156 59t-63 156h135z" />
    <glyph glyph-name="K" unicode="K" horiz-adv-x="650" 
d="M466 0l-204 295h-58v-295h-134v700h134v-275h56l177 275h153l-218 -340l248 -360h-154z" />
    <glyph glyph-name="L" unicode="L" horiz-adv-x="601" 
d="M210 131h341v-131h-481v700h140v-569z" />
    <glyph glyph-name="M" unicode="M" horiz-adv-x="840" 
d="M770 700v-700h-131v427h-8l-131 -377h-161l-130 377h-8v-427h-131v700h171l171 -496h16l171 496h171z" />
    <glyph glyph-name="N" unicode="N" horiz-adv-x="692" 
d="M491 700h131v-700h-131l-277 452h-13v-452h-131v700h132l277 -440h12v440z" />
    <glyph glyph-name="O" unicode="O" horiz-adv-x="764" 
d="M383 -5q-140 0 -241.5 102t-101.5 253t101 253t241 102t241 -102t101 -253t-100.5 -253t-240.5 -102zM383 127q90 0 146.5 62.5t56.5 160.5t-57 160.5t-147 62.5t-146.5 -62.5t-56.5 -160.5t57 -160.5t147 -62.5z" />
    <glyph glyph-name="P" unicode="P" horiz-adv-x="594" 
d="M337 700q91 0 154 -57.5t63 -157.5t-63.5 -162.5t-153.5 -62.5h-140v-260h-127v700h267zM327 383q42 0 68.5 29t26.5 73q0 43 -26 67.5t-69 24.5h-130v-194h130z" />
    <glyph glyph-name="Q" unicode="Q" horiz-adv-x="784" 
d="M587 -6q24 0 45 7t30 13l9 7l58 -87q-70 -54 -152 -54q-71 0 -124 32t-71 83q-137 5 -234.5 106t-97.5 249q0 151 101 253t241 102t241 -102t101 -253q0 -113 -59 -201.5t-154 -127.5q19 -27 66 -27zM189 350q0 -98 57 -160.5t147 -62.5t146.5 62.5t56.5 160.5t-57 160.5
t-147 62.5t-146.5 -62.5t-56.5 -160.5z" />
    <glyph glyph-name="R" unicode="R" horiz-adv-x="627" 
d="M577 0h-148l-149 257h-83v-257h-127v700h247q91 0 154 -58t63 -157q0 -69 -35 -123t-91 -81zM197 575v-194h110q42 0 68.5 29t26.5 73q0 43 -26 67.5t-69 24.5h-110z" />
    <glyph glyph-name="S" unicode="S" horiz-adv-x="593" 
d="M543 195q0 -94 -67 -147t-167 -53q-114 0 -186.5 66t-72.5 165h130q8 -58 46.5 -82.5t81.5 -24.5q22 0 42.5 5t40 23.5t19.5 48.5q0 21 -9 37.5t-27.5 29.5t-34.5 20.5t-43 17.5q-104 41 -142 67q-85 58 -85 148q0 86 65.5 138t162.5 52q103 0 164.5 -57t61.5 -129h-128
q-5 29 -33.5 46.5t-66.5 17.5t-63 -18t-25 -50q0 -16 6 -27.5t23.5 -23t31 -18.5t46.5 -22q8 -4 41.5 -17.5t51.5 -22t48 -28.5t46 -40t29 -52t13 -70z" />
    <glyph glyph-name="T" unicode="T" horiz-adv-x="552" 
d="M532 700v-124h-189v-576h-134v576h-189v124h512z" />
    <glyph glyph-name="U" unicode="U" horiz-adv-x="684" 
d="M624 700v-400q0 -153 -78.5 -229t-202.5 -76t-203.5 76t-79.5 229v400h139v-390q0 -87 36.5 -135t107.5 -48t106.5 48t35.5 135v390h139z" />
    <glyph glyph-name="V" unicode="V" horiz-adv-x="672" 
d="M500 700h142l-204 -700h-204l-204 700h143l153 -544h21z" />
    <glyph glyph-name="W" unicode="W" horiz-adv-x="963" 
d="M791 700h137l-148 -700h-209l-80 452h-21l-88 -452h-209l-138 700h137l102 -547h21l98 497h177l91 -497h21z" />
    <glyph glyph-name="X" unicode="X" horiz-adv-x="725" 
d="M536 0l-164 273h-14l-165 -273h-163l224 361l-210 339h159l154 -253h14l154 253h156l-210 -339l224 -361h-159z" />
    <glyph glyph-name="Y" unicode="Y" horiz-adv-x="639" 
d="M450 700h159l-220 -349v-351h-139v351l-220 349h158l125 -214h12z" />
    <glyph glyph-name="Z" unicode="Z" horiz-adv-x="611" 
d="M232 131h329v-131h-511v102l324 468h-304v130h481v-101z" />
    <glyph glyph-name="bracketleft" unicode="[" horiz-adv-x="360" 
d="M60 773h220v-109h-103v-724h103v-109h-220v942z" />
    <glyph glyph-name="backslash" unicode="\" horiz-adv-x="517" 
d="M50 750h111l336 -800h-111z" />
    <glyph glyph-name="bracketright" unicode="]" horiz-adv-x="360" 
d="M290 773v-942h-220v109h103v724h-103v109h220z" />
    <glyph glyph-name="asciicircum" unicode="^" horiz-adv-x="565" 
d="M378 360l-85 148h-20l-86 -148h-137l203 340h60l202 -340h-137z" />
    <glyph glyph-name="underscore" unicode="_" horiz-adv-x="535" 
d="M50 0h435v-114h-435v114z" />
    <glyph glyph-name="grave" unicode="`" horiz-adv-x="347" 
d="M214 690l63 -135h-88l-119 135h144z" />
    <glyph glyph-name="a" unicode="a" horiz-adv-x="569" 
d="M480 168q0 -41 14.5 -56.5t44.5 -15.5v-96h-30q-91 0 -116 64q-50 -69 -158 -69q-85 0 -135 40t-50 108q0 37 15.5 66.5t44.5 47.5t57.5 30t69.5 18.5t65 8.5t57 4q-3 79 -85 79q-20 0 -35 -4.5t-22.5 -10.5t-12 -12.5t-5.5 -11.5l-1 -4h-125q7 68 60.5 109.5t143.5 41.5
q94 0 148.5 -50t54.5 -154v-133zM176 147q0 -36 42 -46q49 -12 93 20q43 31 46 89v10q-29 -3 -45.5 -5.5l-41 -6.5t-38.5 -9t-28.5 -12t-21 -17t-6.5 -23z" />
    <glyph glyph-name="b" unicode="b" 
d="M324 505q97 0 165 -72t68 -183t-68 -183t-165 -72q-79 0 -127 53h-15l-14 -48h-98v710h125v-259q48 54 129 54zM305 118q50 0 86 35t36 97t-36 97t-86 35t-80 -35.5t-30 -96.5t30 -96.5t80 -35.5z" />
    <glyph glyph-name="c" unicode="c" horiz-adv-x="587" 
d="M544 176q-23 -86 -90.5 -133.5t-150.5 -47.5q-106 0 -179.5 72.5t-73.5 181.5q0 110 75.5 183t182.5 73q87 0 152.5 -50.5t86.5 -137.5h-136q-34 67 -106 67q-53 0 -89.5 -38t-36.5 -96t36.5 -96t89.5 -38q66 0 102 60h137z" />
    <glyph glyph-name="d" unicode="d" 
d="M412 710h125v-710h-98l-14 48h-15q-48 -53 -127 -53q-97 0 -165 72t-68 183t68 183t165 72q81 0 129 -54v259zM302 118q50 0 80 35.5t30 96.5t-30 96.5t-80 35.5t-86 -35t-36 -97t36 -97t86 -35z" />
    <glyph glyph-name="e" unicode="e" horiz-adv-x="592" 
d="M299 505q50 0 94.5 -17.5t80.5 -52t54.5 -92.5t12.5 -131h-365q10 -53 47.5 -78.5t83.5 -25.5q30 0 54.5 10.5t33.5 21.5l9 10h126q-28 -73 -90 -114t-137 -41q-104 0 -178.5 72.5t-74.5 186.5q0 113 73 182t176 69zM303 396q-41 0 -72.5 -22t-46.5 -61h225
q-21 83 -106 83z" />
    <glyph glyph-name="f" unicode="f" horiz-adv-x="462" 
d="M374 574q-28 19 -58 19q-27 0 -46.5 -18.5t-19.5 -43.5v-31h144v-105h-144v-395h-126v395h-84v105h84v39q0 74 52.5 120t126.5 46q34 0 64 -10.5t43 -20.5l12 -11z" />
    <glyph glyph-name="g" unicode="g" horiz-adv-x="575" 
d="M349 119q79 0 121.5 -46t40.5 -113q-3 -81 -67 -123t-159 -42q-114 0 -176.5 57.5t-44.5 139.5l57 46q-53 33 -53 88q0 56 62 89q-51 47 -51 120q0 74 54 122.5t146 48.5q66 0 114 -25q24 11 45.5 27.5t30.5 27.5l9 10l62 -83q-34 -23 -80 -37q29 -40 29 -90
q0 -72 -60 -121.5t-153 -49.5q-40 0 -71 9q-15 -9 -15 -25q0 -7 3 -13t9 -9t12 -5t16 -2.5t16 -0.5h17.5h15.5h70zM284 400q-42 0 -63.5 -17t-21.5 -46q0 -30 21.5 -48t63.5 -18q41 0 63 18t22 48q0 29 -22 46t-63 17zM287 -89q48 0 74.5 14.5t26.5 38.5q0 48 -78 48
q-67 0 -96 1l-34 -36q-6 -23 20.5 -44.5t86.5 -21.5z" />
    <glyph glyph-name="h" unicode="h" horiz-adv-x="619" 
d="M358 505q94 0 142.5 -63.5t48.5 -170.5v-271h-134v241v16v18.5t-0.5 18.5t-2 20.5t-4.5 18.5t-7 18l-10.5 15t-14.5 13t-19 7t-24 3q-20 0 -39.5 -6t-41 -21t-35 -48t-13.5 -79v-235h-134v710h127v-262h17q55 57 144 57z" />
    <glyph glyph-name="i" unicode="i" horiz-adv-x="290" 
d="M156 556q-35 0 -60.5 25t-25.5 59q0 36 25 60.5t61 24.5q35 0 59.5 -24.5t24.5 -60.5q0 -34 -25 -59t-59 -25zM220 500v-500h-128v500h128z" />
    <glyph glyph-name="j" unicode="j" horiz-adv-x="368" 
d="M236 556q-35 0 -60.5 25t-25.5 59q0 36 25 60.5t61 24.5q35 0 59.5 -24.5t24.5 -60.5q0 -34 -25 -59t-59 -25zM48 -74q28 -19 58 -19q27 0 46.5 18.5t19.5 43.5v531h126v-539q0 -74 -52.5 -120t-126.5 -46q-34 0 -64 10.5t-43 20.5l-12 11z" />
    <glyph glyph-name="k" unicode="k" horiz-adv-x="570" 
d="M530 500l-198 -213l198 -287h-143l-138 197l-50 -54l-3 1v-144h-126v710h126v-380h20l161 170h153z" />
    <glyph glyph-name="l" unicode="l" horiz-adv-x="270" 
d="M70 710h130v-710h-130v710z" />
    <glyph glyph-name="m" unicode="m" horiz-adv-x="877" 
d="M628 506q94 1 141.5 -62.5t47.5 -172.5v-271h-133v241q0 80 -8 104q-17 49 -77 44q-90 -7 -90 -154v-235h-132v241q0 80 -8 104q-17 49 -77 44q-90 -7 -90 -154v-235h-132v500h102l15 -54h16q44 58 121 59q84 2 137 -69h15q55 69 152 70z" />
    <glyph glyph-name="n" unicode="n" horiz-adv-x="610" 
d="M358 505q94 0 143 -63.5t49 -170.5v-271h-133v241l1 9q0 9 -0.5 16t-1 19.5t-3 22.5t-6 22.5t-10 22t-15 17.5t-21.5 13t-28 6q-20 1 -40.5 -5t-42 -21.5t-35 -48.5t-13.5 -79v-235h-132v500h102l17 -61h17q55 66 152 66z" />
    <glyph glyph-name="o" unicode="o" horiz-adv-x="611" 
d="M304 -5q-106 0 -180 70t-74 184q0 115 76.5 185.5t181.5 70.5t179 -70t74 -184q0 -115 -75.5 -185.5t-181.5 -70.5zM308 111q56 0 89 39.5t33 99.5t-33 99.5t-89 39.5t-91.5 -40t-35.5 -99t35.5 -99t91.5 -40z" />
    <glyph glyph-name="p" unicode="p" 
d="M324 505q97 0 165 -72t68 -183t-68 -183t-165 -72q-81 0 -129 54v-249h-125v700h98l14 -48h15q48 53 127 53zM305 118q50 0 86 35t36 97t-36 97t-86 35t-80 -35.5t-30 -96.5t30 -96.5t80 -35.5z" />
    <glyph glyph-name="q" unicode="q" horiz-adv-x="627" 
d="M449 500h98v-700h-125v249q-48 -54 -129 -54q-97 0 -165 72t-68 183t68 183t165 72q77 0 126 -52h16zM312 118q50 0 80 35.5t30 96.5t-30 96.5t-80 35.5t-86 -35t-36 -97t36 -97t86 -35z" />
    <glyph glyph-name="r" unicode="r" horiz-adv-x="430" 
d="M359 505h31v-128q-20 4 -44 4q-59 0 -101 -32t-42 -96v-253h-133v500h102l18 -55h16q60 60 153 60z" />
    <glyph glyph-name="s" unicode="s" horiz-adv-x="508" 
d="M335 353q-11 46 -71 46q-30 0 -45 -12.5t-15 -29.5q0 -35 75 -50q40 -9 66.5 -17.5t55 -25t43 -44t14.5 -65.5q0 -75 -53.5 -117.5t-134.5 -42.5q-87 0 -146.5 48.5t-63.5 127.5h123q3 -28 23 -48.5t61 -20.5q63 0 63 48q0 25 -18 36.5t-51 19.5q-26 6 -35.5 8.5t-38 11
t-43 18.5t-33.5 25.5t-27.5 38t-8.5 49.5q0 70 56.5 109t134.5 39q82 0 134.5 -43.5t57.5 -108.5h-123z" />
    <glyph glyph-name="t" unicode="t" horiz-adv-x="498" 
d="M400 126l48 -89q-5 -5 -14 -12t-40 -18.5t-65 -11.5q-74 0 -126.5 46t-52.5 120v232h-100v98h50q26 0 41.5 16t15.5 43v100h121v-150h126v-107h-126v-224q0 -25 18.5 -42.5t45.5 -17.5q13 0 27.5 4.5t22.5 8.5z" />
    <glyph glyph-name="u" unicode="u" horiz-adv-x="618" 
d="M413 500h135v-500h-100l-18 56h-13q-49 -61 -146 -61t-149 63t-52 171v271h136v-241q0 -30 2.5 -50.5t10.5 -45.5t28 -38.5t50 -13.5q19 0 37 6t37 21.5t30.5 48t11.5 78.5v235z" />
    <glyph glyph-name="v" unicode="v" horiz-adv-x="618" 
d="M435 500h133l-162 -500h-128h-66l-162 500h133l116 -368h20z" />
    <glyph glyph-name="w" unicode="w" horiz-adv-x="850" 
d="M667 500h128l-119 -500h-176l-68 292h-14l-68 -292h-176l-119 500h128l77 -349h17l69 309h158l70 -309h16z" />
    <glyph glyph-name="x" unicode="x" horiz-adv-x="617" 
d="M418 0l-102 169h-14l-103 -169h-144l165 257l-155 243h141l97 -150h12l96 150h141l-155 -243l165 -257h-144z" />
    <glyph glyph-name="y" unicode="y" horiz-adv-x="621" 
d="M447 500h134l-174 -519q-12 -35 -18.5 -52.5t-24.5 -47.5t-37.5 -45.5t-54 -28t-77.5 -12.5q-60 0 -98 17.5t-54 37.5l63 89q31 -31 78 -31q64 0 81 51l14 41h-67l-172 500h139l126 -364h20z" />
    <glyph glyph-name="z" unicode="z" horiz-adv-x="545" 
d="M234 112h251v-112h-425v66l241 322h-231v112h405v-66z" />
    <glyph glyph-name="braceleft" unicode="{" horiz-adv-x="353" 
d="M237 419q0 -74 -42 -113v-8q42 -39 42 -113v-210q0 -21 1 -30t9 -16.5t25 -7.5h11v-90h-49q-52 0 -82 31.5t-30 86.5v226q0 42 -16.5 63.5t-55.5 21.5v82v2q39 0 55.5 21.5t16.5 63.5v226q0 55 30 86.5t82 31.5h49v-90h-11q-24 0 -29.5 -12t-5.5 -42v-210z" />
    <glyph glyph-name="bar" unicode="|" horiz-adv-x="263" 
d="M193 770v-910h-123v910h123z" />
    <glyph glyph-name="braceright" unicode="}" horiz-adv-x="353" 
d="M231 429q0 -42 16.5 -63.5t55.5 -21.5v-82v-2q-39 0 -55.5 -21.5t-16.5 -63.5v-226q0 -55 -30 -86.5t-82 -31.5h-49v90h11q24 0 29.5 12t5.5 42v210q0 74 42 113v8q-42 39 -42 113v210q0 21 -1 30t-9 16.5t-25 7.5h-11v90h49q52 0 82 -31.5t30 -86.5v-226z" />
    <glyph glyph-name="asciitilde" unicode="~" horiz-adv-x="660" 
d="M610 337q-2 -6 -6.5 -15.5t-22 -33t-38.5 -41t-57 -29t-77 -6.5q-36 5 -89.5 28t-77.5 23t-45.5 -12.5t-31.5 -24.5l-10 -12l-105 40q2 6 7 15t22.5 32t38.5 40t56.5 29.5t76.5 8.5q40 -4 91.5 -27.5t74.5 -23.5q24 0 46 12t32 24l10 13z" />
    <glyph glyph-name="uni00A0" unicode="&#xa0;" horiz-adv-x="250" 
 />
    <glyph glyph-name="exclamdown" unicode="&#xa1;" horiz-adv-x="280" 
d="M140 345q-33 0 -56.5 23t-23.5 57q0 33 23.5 56.5t56.5 23.5t56.5 -23.5t23.5 -56.5q0 -34 -23.5 -57t-56.5 -23zM92 300h95l20 -500h-134z" />
    <glyph glyph-name="cent" unicode="&#xa2;" horiz-adv-x="597" 
d="M355 195q32 15 52 49h137q-20 -72 -71 -117.5t-118 -58.5v-71h-113v73q-84 20 -138 87.5t-54 159.5t54 159t138 89v73h113v-69q71 -13 122.5 -61.5t69.5 -122.5h-136q-21 40 -56 56v-246zM179 318q0 -38 17 -69t46 -48v234q-29 -17 -46 -48t-17 -69z" />
    <glyph glyph-name="sterling" unicode="&#xa3;" horiz-adv-x="549" 
d="M256 130v-8h246v-122h-451v121q5 0 12.5 1.5t27.5 9t35 18t27.5 32.5t12.5 50q0 19 -4 32h-112v105h62q-21 45 -21 92q0 63 35 106.5t80.5 60.5t93.5 17q50 0 90 -16.5t61 -39.5t35 -46t18 -39l5 -17l-118 -31l-2.5 7.5t-8 16.5t-15.5 21.5t-25 17t-35 7.5
q-37 0 -60.5 -18.5t-23.5 -55.5q0 -33 29 -83h173v-105h-126q1 -5 1 -17q0 -78 -42 -117z" />
    <glyph glyph-name="currency" unicode="&#xa4;" horiz-adv-x="627" 
d="M531 250q0 -57 -29 -109l75 -75l-80 -80l-75 75q-50 -28 -107 -28q-59 0 -109 29l-76 -76l-80 80l75 75q-29 52 -29 109t29 109l-75 75l80 80l75 -75q50 28 109 28q58 0 108 -28l75 75l80 -80l-75 -75q29 -52 29 -109zM220 250q0 -38 27.5 -66t66.5 -28t66.5 28t27.5 66
t-27.5 66t-66.5 28t-66.5 -28t-27.5 -66z" />
    <glyph glyph-name="yen" unicode="&#xa5;" horiz-adv-x="627" 
d="M587 640l-145 -223h78v-101h-142v-52h142v-101h-142v-163h-130v163h-141v101h141v52h-141v101h77l-144 223h142l127 -197h8l127 197h143z" />
    <glyph glyph-name="brokenbar" unicode="&#xa6;" horiz-adv-x="263" 
d="M70 770h123v-355h-123v355zM70 -140v355h123v-355h-123z" />
    <glyph glyph-name="section" unicode="&#xa7;" horiz-adv-x="530" 
d="M480 261q0 -105 -89 -149q33 -18 52 -57.5t19 -84.5q0 -78 -56 -124t-136 -46q-85 0 -143.5 50.5t-58.5 127.5h129q0 -24 20.5 -39t47.5 -15t47 16t20 47q0 60 -85 86q-98 32 -147.5 72.5t-49.5 117.5q0 105 88 150q-27 17 -49 54.5t-22 86.5q0 60 35 100.5t94 57.5
q30 9 66 9h1q82 0 139 -51t59 -127h-129q0 29 -21.5 41.5t-46.5 12.5q-26 0 -46.5 -15.5t-20.5 -49.5q0 -35 22 -53t64 -31q32 -10 49 -16t44.5 -17.5t42 -24t31 -31t23.5 -43t7 -55.5zM271 191q33 0 54.5 17t21.5 47q0 34 -25.5 54.5t-62.5 20.5q-33 0 -55 -17t-22 -47
q0 -34 26 -54.5t63 -20.5z" />
    <glyph glyph-name="dieresis" unicode="&#xa8;" horiz-adv-x="480" 
d="M143 551q-30 0 -51.5 21.5t-21.5 51.5t21.5 51t51.5 21t51 -21t21 -51t-21.5 -51.5t-50.5 -21.5zM337 551q-29 0 -50.5 21.5t-21.5 51.5t21 51t51 21t51.5 -21t21.5 -51t-21.5 -51.5t-51.5 -21.5z" />
    <glyph glyph-name="copyright" unicode="&#xa9;" horiz-adv-x="810" 
d="M405 -5q-147 0 -251 104t-104 251t104 251t251 104q146 0 250.5 -104t104.5 -251t-104.5 -251t-250.5 -104zM405 89q106 0 181 74.5t75 186.5t-75 186.5t-181 74.5t-181 -74.5t-75 -186.5t75 -186.5t181 -74.5zM579 305q-12 -66 -60 -103t-109 -37q-73 0 -126.5 52.5
t-53.5 132.5t53.5 132.5t125.5 52.5q62 0 112 -39t60 -106h-104q-6 22 -26.5 34t-41.5 12q-30 0 -52.5 -24t-22.5 -62t22.5 -62t56.5 -24q44 0 62 41h104z" />
    <glyph glyph-name="guillemotleft" unicode="&#xab;" horiz-adv-x="621" 
d="M201 97l-161 202l161 202h140l-163 -202l163 -202h-140zM421 97l-161 202l161 202h140l-163 -202l163 -202h-140z" />
    <glyph glyph-name="logicalnot" unicode="&#xac;" horiz-adv-x="576" 
d="M526 179h-112l-1 123h-363v113h475v-27z" />
    <glyph glyph-name="uni00AD" unicode="&#xad;" horiz-adv-x="460" 
d="M50 368h360v-114h-360v114z" />
    <glyph glyph-name="registered" unicode="&#xae;" horiz-adv-x="810" 
d="M405 -5q-147 0 -251 104t-104 251t104 251t251 104q146 0 250.5 -104t104.5 -251t-104.5 -251t-250.5 -104zM405 89q106 0 181 74.5t75 186.5t-75 186.5t-181 74.5t-181 -74.5t-75 -186.5t75 -186.5t181 -74.5zM468 170l-74 132h-18v-132h-89v360h122q62 0 97.5 -30.5
t35.5 -82.5q0 -21 -6 -39t-15 -28.5t-18 -18t-15 -9.5l-6 -3l84 -149h-98zM376 385h31q42 0 42 30q0 32 -43 32h-30v-62z" />
    <glyph glyph-name="macron" unicode="&#xaf;" horiz-adv-x="490" 
d="M70 660h350v-90h-350v90z" />
    <glyph glyph-name="degree" unicode="&#xb0;" horiz-adv-x="346" 
d="M173 402q-51 0 -87 36t-36 87t36 87t87 36q50 0 86.5 -36t36.5 -87t-36.5 -87t-86.5 -36zM173 490q15 0 25 10t10 25t-10 25t-25 10t-25 -10t-10 -25t10 -25t25 -10z" />
    <glyph glyph-name="plusminus" unicode="&#xb1;" horiz-adv-x="515" 
d="M318 432h147v-116h-147v-127h-120v127h-148v116h148v126h120v-126zM50 0v116h415v-116h-415z" />
    <glyph glyph-name="uni00B2" unicode="&#xb2;" horiz-adv-x="372" 
d="M245 481l-25.5 -15.5l-22.5 -13t-16 -10.5t-12 -12h150v-89h-269v36q0 42 23.5 78t63.5 58q53 29 71.5 43t18.5 29q0 12 -10.5 20t-29.5 8q-45 0 -45 -43h-91q0 51 35.5 92.5t106.5 41.5q59 0 94 -30t35 -82q0 -37 -19 -62t-58 -49z" />
    <glyph glyph-name="uni00B3" unicode="&#xb3;" horiz-adv-x="378" 
d="M273 525q17 -4 36 -26t19 -53q0 -44 -37.5 -76.5t-97.5 -32.5q-63 0 -103 36.5t-40 91.5h92q1 -18 14.5 -30.5t37.5 -12.5q39 0 39 31q0 34 -48 34h-24v74h23q42 0 42 29q0 30 -35 30q-33 0 -38 -29h-91q0 46 36 79t97 33q56 0 88 -28t32 -72q0 -53 -42 -72v-6z" />
    <glyph glyph-name="acute" unicode="&#xb4;" horiz-adv-x="347" 
d="M133 690h144l-119 -135h-88z" />
    <glyph glyph-name="uni00B5" unicode="&#xb5;" horiz-adv-x="618" 
d="M418 500h130v-500h-100l-19 67h-5q-19 -25 -59.5 -48.5t-97.5 -23.5q-42 0 -82 23v-218h-115v700h133v-241q0 -76 13 -105q19 -43 71 -43q15 0 30.5 3t34.5 13.5t33 26.5t23.5 45t9.5 66v235z" />
    <glyph glyph-name="paragraph" unicode="&#xb6;" horiz-adv-x="639" 
d="M60 512q0 57 29 101t78 66q47 21 100 21h312v-72h-80v-828h-73v828h-84v-828h-75v523q-84 0 -142 49q-65 49 -65 140z" />
    <glyph glyph-name="periodcentered" unicode="&#xb7;" horiz-adv-x="290" 
d="M130 251q-33 0 -56.5 23.5t-23.5 56.5q0 34 23.5 57t56.5 23t56.5 -23t23.5 -57q0 -33 -23.5 -56.5t-56.5 -23.5z" />
    <glyph glyph-name="cedilla" unicode="&#xb8;" horiz-adv-x="360" 
d="M143 5h83l-27 -46q34 8 62.5 -13.5t28.5 -59.5t-29 -64.5t-79 -26.5q-37 0 -65 15.5t-37 30.5l-10 15l60 33q16 -28 48 -28q15 0 23 7t8 16q0 10 -8 17.5t-23 7.5q-8 0 -16 -2.5t-12 -5.5l-3 -3l-45 47z" />
    <glyph glyph-name="uni00B9" unicode="&#xb9;" horiz-adv-x="286" 
d="M139 340v214h-94v81h57q19 0 30 11.5t11 30.5v23h92l1 -360h-97z" />
    <glyph glyph-name="guillemotright" unicode="&#xbb;" horiz-adv-x="620" 
d="M180 97h-140l163 202l-163 202h140l161 -202zM399 97h-140l163 202l-163 202h140l161 -202z" />
    <glyph glyph-name="questiondown" unicode="&#xbf;" horiz-adv-x="461" 
d="M255 505q33 0 56.5 -23.5t23.5 -56.5q0 -34 -23.5 -57t-56.5 -23t-56.5 23t-23.5 57q0 33 23.5 56.5t56.5 23.5zM317 253q0 -52 -12.5 -93t-55.5 -84q-14 -14 -34.5 -31l-31.5 -26.5t-19.5 -23.5t-8.5 -30q0 -25 18 -42.5t53 -17.5q70 0 80 75h122q0 -77 -48 -133
t-150 -56q-93 0 -145 47t-52 118q0 34 13.5 64t28.5 46t41.5 40.5t35.5 34.5q21 23 31.5 51.5t11 42t0.5 44.5v21h122v-47z" />
    <glyph glyph-name="Agrave" unicode="&#xc0;" horiz-adv-x="668" 
d="M449 755h-106l-142 135h172zM422 700l236 -700h-144l-49 153h-262l-49 -153h-144l236 700h176zM243 277h182l-79 243h-24z" />
    <glyph glyph-name="Aacute" unicode="&#xc1;" horiz-adv-x="668" 
d="M492 890l-142 -135h-106l76 135h172zM422 700l236 -700h-144l-49 153h-262l-49 -153h-144l236 700h176zM243 277h182l-79 243h-24z" />
    <glyph glyph-name="Acircumflex" unicode="&#xc2;" horiz-adv-x="668" 
d="M324 823l-52 -68h-129l131 154h120l131 -154h-129l-52 68h-20zM422 700l236 -700h-144l-49 153h-262l-49 -153h-144l236 700h176zM243 277h182l-79 243h-24z" />
    <glyph glyph-name="Atilde" unicode="&#xc3;" horiz-adv-x="668" 
d="M263 780q-17 2 -32 -9.5t-21 -23.5l-6 -12l-76 49q2 5 6 13t17.5 28.5t29.5 35t43 23.5t57 4q28 -5 67 -28.5t55 -24.5q17 -1 32.5 10.5t22.5 23.5l7 12l76 -51q-2 -5 -6 -13t-17.5 -28t-30 -34t-43.5 -23.5t-57 -3.5q-28 5 -67.5 28t-56.5 24zM422 700l236 -700h-144
l-49 153h-262l-49 -153h-144l236 700h176zM243 277h182l-79 243h-24z" />
    <glyph glyph-name="Adieresis" unicode="&#xc4;" horiz-adv-x="668" 
d="M214 749q-34 0 -58.5 24t-24.5 58q0 35 24.5 59t58.5 24t58 -24t24 -59q0 -34 -24 -58t-58 -24zM454 749q-34 0 -58.5 24t-24.5 58q0 35 24.5 59t58.5 24t58 -24t24 -59q0 -34 -24 -58t-58 -24zM422 700l236 -700h-144l-49 153h-262l-49 -153h-144l236 700h176zM243 277
h182l-79 243h-24z" />
    <glyph glyph-name="Aring" unicode="&#xc5;" horiz-adv-x="668" 
d="M433 668l225 -668h-144l-49 153h-262l-49 -153h-144l224 663q-23 31 -23 70q0 49 35.5 84.5t84.5 35.5q50 0 86 -35.5t36 -84.5q0 -37 -20 -65zM332 765q-13 0 -22 -9.5t-9 -22.5t9 -22.5t22 -9.5t22 9.5t9 22.5t-9 22.5t-22 9.5zM243 277h182l-79 243h-24z" />
    <glyph glyph-name="AE" unicode="&#xc6;" horiz-adv-x="1040" 
d="M610 125h340v-125h-471v153h-223l-97 -153h-149l443 700h151h336v-125h-330v-158h300v-125h-300v-167zM335 277h144v201h-16z" />
    <glyph glyph-name="Ccedilla" unicode="&#xc7;" horiz-adv-x="693" 
d="M369 127q94 0 133 83h151q-26 -88 -90 -143.5t-150 -68.5l-18 -31q36 8 65.5 -14t29.5 -63q0 -40 -30.5 -67.5t-82.5 -27.5q-24 0 -45.5 6.5t-34 16t-22 19t-13.5 15.5l-3 7l63 34q17 -29 51 -29q15 0 23.5 7.5t8.5 16.5q0 10 -8 18t-24 8q-9 0 -17 -3t-12 -5l-4 -3
l-47 49l31 46q-121 16 -197.5 113.5t-76.5 238.5q0 154 89 254.5t226 100.5q101 0 179.5 -57.5t108.5 -157.5h-151q-39 83 -135 83q-84 0 -131.5 -61.5t-47.5 -161.5t48 -161.5t133 -61.5z" />
    <glyph glyph-name="Egrave" unicode="&#xc8;" horiz-adv-x="611" 
d="M326 890l76 -135h-106l-142 135h172zM201 125h340v-125h-471v700h461v-125h-330v-158h300v-125h-300v-167z" />
    <glyph glyph-name="Eacute" unicode="&#xc9;" horiz-adv-x="611" 
d="M313 890h172l-142 -135h-106zM201 125h340v-125h-471v700h461v-125h-330v-158h300v-125h-300v-167z" />
    <glyph glyph-name="Ecircumflex" unicode="&#xca;" horiz-adv-x="611" 
d="M295 823l-52 -68h-129l131 154h120l131 -154h-129l-52 68h-20zM201 125h340v-125h-471v700h461v-125h-330v-158h300v-125h-300v-167z" />
    <glyph glyph-name="Edieresis" unicode="&#xcb;" horiz-adv-x="611" 
d="M177 749q-34 0 -58.5 24t-24.5 58q0 35 24.5 59t58.5 24t58 -24t24 -59q0 -34 -24 -58t-58 -24zM417 749q-34 0 -58.5 24t-24.5 58q0 35 24.5 59t58.5 24t58 -24t24 -59q0 -34 -24 -58t-58 -24zM201 125h340v-125h-471v700h461v-125h-330v-158h300v-125h-300v-167z" />
    <glyph glyph-name="Igrave" unicode="&#xcc;" horiz-adv-x="279" 
d="M168 890l76 -135h-106l-142 135h172zM209 700v-700h-139v700h139z" />
    <glyph glyph-name="Iacute" unicode="&#xcd;" horiz-adv-x="279" 
d="M136 890h172l-142 -135h-106zM209 700v-700h-139v700h139z" />
    <glyph glyph-name="Icircumflex" unicode="&#xce;" horiz-adv-x="279" 
d="M129 823l-52 -68h-129l131 154h120l131 -154h-129l-52 68h-20zM70 0v700h139v-700h-139z" />
    <glyph glyph-name="Idieresis" unicode="&#xcf;" horiz-adv-x="279" 
d="M15 749q-34 0 -58.5 24t-24.5 58q0 35 24.5 59t58.5 24t58 -24t24 -59q0 -34 -24 -58t-58 -24zM255 749q-34 0 -58.5 24t-24.5 58q0 35 24.5 59t58.5 24t58 -24t24 -59q0 -34 -24 -58t-58 -24zM209 700v-700h-139v700h139z" />
    <glyph glyph-name="Eth" unicode="&#xd0;" horiz-adv-x="762" 
d="M342 700q146 0 248 -93.5t102 -256.5t-102 -256.5t-248 -93.5h-222v311h-90v106h90v283h222zM342 132q94 0 153.5 59.5t59.5 161.5q0 101 -59.5 158t-153.5 57h-86v-151h164v-106h-164v-179h86z" />
    <glyph glyph-name="Ntilde" unicode="&#xd1;" horiz-adv-x="692" 
d="M552 830q-2 -5 -6 -13t-17.5 -28t-30 -34t-43.5 -23.5t-57 -3.5q-28 5 -67.5 28t-56.5 24q-17 2 -32 -9.5t-21 -23.5l-6 -12l-76 49q2 5 6 13t17.5 28.5t29.5 35t43 23.5t57 4q28 -5 67 -28.5t55 -24.5q17 -1 32.5 10.5t22.5 23.5l7 12zM491 700h131v-700h-131l-277 452
h-13v-452h-131v700h132l277 -440h12v440z" />
    <glyph glyph-name="Ograve" unicode="&#xd2;" horiz-adv-x="764" 
d="M417 890l76 -135h-106l-142 135h172zM383 -5q-140 0 -241.5 102t-101.5 253t101 253t241 102t241 -102t101 -253t-100.5 -253t-240.5 -102zM383 127q90 0 146.5 62.5t56.5 160.5t-57 160.5t-147 62.5t-146.5 -62.5t-56.5 -160.5t57 -160.5t147 -62.5z" />
    <glyph glyph-name="Oacute" unicode="&#xd3;" horiz-adv-x="764" 
d="M409 890h172l-142 -135h-106zM383 -5q-140 0 -241.5 102t-101.5 253t101 253t241 102t241 -102t101 -253t-100.5 -253t-240.5 -102zM383 127q90 0 146.5 62.5t56.5 160.5t-57 160.5t-147 62.5t-146.5 -62.5t-56.5 -160.5t57 -160.5t147 -62.5z" />
    <glyph glyph-name="Ocircumflex" unicode="&#xd4;" horiz-adv-x="764" 
d="M381 823l-52 -68h-129l131 154h120l131 -154h-129l-52 68h-20zM382 705q140 0 241 -102t101 -253t-100.5 -253t-240.5 -102t-241.5 102t-101.5 253t101 253t241 102zM383 127q90 0 146.5 62.5t56.5 160.5t-57 160.5t-147 62.5t-146.5 -62.5t-56.5 -160.5t57 -160.5
t147 -62.5z" />
    <glyph glyph-name="Otilde" unicode="&#xd5;" horiz-adv-x="764" 
d="M599 830q-2 -5 -6 -13t-17.5 -28t-30 -34t-43.5 -23.5t-57 -3.5q-28 5 -67.5 28t-56.5 24q-17 2 -32 -9.5t-21 -23.5l-6 -12l-76 49q2 5 6 13t17.5 28.5t29.5 35t43 23.5t57 4q28 -5 67 -28.5t55 -24.5q17 -1 32.5 10.5t22.5 23.5l7 12zM383 -5q-140 0 -241.5 102
t-101.5 253t101 253t241 102t241 -102t101 -253t-100.5 -253t-240.5 -102zM383 127q90 0 146.5 62.5t56.5 160.5t-57 160.5t-147 62.5t-146.5 -62.5t-56.5 -160.5t57 -160.5t147 -62.5z" />
    <glyph glyph-name="Odieresis" unicode="&#xd6;" horiz-adv-x="764" 
d="M266 749q-34 0 -58.5 24t-24.5 58q0 35 24.5 59t58.5 24t58 -24t24 -59q0 -34 -24 -58t-58 -24zM506 749q-34 0 -58.5 24t-24.5 58q0 35 24.5 59t58.5 24t58 -24t24 -59q0 -34 -24 -58t-58 -24zM383 -5q-140 0 -241.5 102t-101.5 253t101 253t241 102t241 -102t101 -253
t-100.5 -253t-240.5 -102zM383 127q90 0 146.5 62.5t56.5 160.5t-57 160.5t-147 62.5t-146.5 -62.5t-56.5 -160.5t57 -160.5t147 -62.5z" />
    <glyph glyph-name="multiply" unicode="&#xd7;" horiz-adv-x="606" 
d="M546 459l-163 -163l163 -163l-80 -80l-163 163l-163 -163l-80 80l163 163l-163 163l80 80l163 -163l163 163z" />
    <glyph glyph-name="Oslash" unicode="&#xd8;" horiz-adv-x="784" 
d="M631 594q93 -101 93 -244q0 -151 -100.5 -253t-240.5 -102q-78 0 -148 34l-41 -58l-89 65l40 57q-105 103 -105 257q0 151 101 253t241 102q85 0 161 -41l45 64l91 -66zM179 350q0 -85 44 -145l244 350q-38 18 -85 18q-90 0 -146.5 -62.5t-56.5 -160.5zM383 127
q90 0 146.5 62.5t56.5 160.5q0 75 -34 131l-240 -342q33 -12 71 -12z" />
    <glyph glyph-name="Ugrave" unicode="&#xd9;" horiz-adv-x="684" 
d="M367 890l76 -135h-106l-142 135h172zM624 700v-400q0 -153 -78.5 -229t-202.5 -76t-203.5 76t-79.5 229v400h139v-390q0 -87 36.5 -135t107.5 -48t106.5 48t35.5 135v390h139z" />
    <glyph glyph-name="Uacute" unicode="&#xda;" horiz-adv-x="684" 
d="M347 890h172l-142 -135h-106zM624 700v-400q0 -153 -78.5 -229t-202.5 -76t-203.5 76t-79.5 229v400h139v-390q0 -87 36.5 -135t107.5 -48t106.5 48t35.5 135v390h139z" />
    <glyph glyph-name="Ucircumflex" unicode="&#xdb;" horiz-adv-x="684" 
d="M331 823l-52 -68h-129l131 154h120l131 -154h-129l-52 68h-20zM485 700h139v-400q0 -153 -78.5 -229t-202.5 -76t-203.5 76t-79.5 229v400h139v-390q0 -87 36.5 -135t107.5 -48t106.5 48t35.5 135v390z" />
    <glyph glyph-name="Udieresis" unicode="&#xdc;" horiz-adv-x="684" 
d="M217 749q-34 0 -58.5 24t-24.5 58q0 35 24.5 59t58.5 24t58 -24t24 -59q0 -34 -24 -58t-58 -24zM457 749q-34 0 -58.5 24t-24.5 58q0 35 24.5 59t58.5 24t58 -24t24 -59q0 -34 -24 -58t-58 -24zM624 700v-400q0 -153 -78.5 -229t-202.5 -76t-203.5 76t-79.5 229v400h139
v-390q0 -87 36.5 -135t107.5 -48t106.5 48t35.5 135v390h139z" />
    <glyph glyph-name="Yacute" unicode="&#xdd;" horiz-adv-x="639" 
d="M498 890l-142 -135h-106l76 135h172zM450 700h159l-220 -349v-351h-139v351l-220 349h158l125 -214h12z" />
    <glyph glyph-name="Thorn" unicode="&#xde;" horiz-adv-x="594" 
d="M337 587q91 0 154 -57.5t63 -157.5t-63.5 -162.5t-153.5 -62.5h-140v-147h-127v587v113h127v-113h140zM327 270q42 0 68.5 29t26.5 73q0 43 -26 67.5t-69 24.5h-130v-194h130z" />
    <glyph glyph-name="germandbls" unicode="&#xdf;" horiz-adv-x="606" 
d="M423 369q57 -12 95 -54.5t38 -114.5q0 -90 -58.5 -147.5t-142.5 -57.5q-78 0 -127 42l53 76q24 -13 58 -13q41 0 68.5 25t27.5 74q0 53 -34 79t-94 26h-52v116h32q41 0 66 26t25 64q0 37 -24.5 59t-61.5 22q-39 0 -67 -23.5t-28 -67.5v-500h-127v500q0 91 54 148t165 57
q101 0 157 -47.5t56 -125.5q0 -50 -22 -91t-57 -59v-13z" />
    <glyph glyph-name="agrave" unicode="&#xe0;" horiz-adv-x="569" 
d="M347 555h-88l-119 135h144zM480 168q0 -41 14.5 -56.5t44.5 -15.5v-96h-30q-91 0 -116 64q-50 -69 -158 -69q-85 0 -135 40t-50 108q0 37 15.5 66.5t44.5 47.5t57.5 30t69.5 18.5t65 8.5t57 4q-3 79 -85 79q-20 0 -35 -4.5t-22.5 -10.5t-12 -12.5t-5.5 -11.5l-1 -4h-125
q7 68 60.5 109.5t143.5 41.5q94 0 148.5 -50t54.5 -154v-133zM176 147q0 -36 42 -46q49 -12 93 20q43 31 46 89v10q-29 -3 -45.5 -5.5l-41 -6.5t-38.5 -9t-28.5 -12t-21 -17t-6.5 -23z" />
    <glyph glyph-name="aacute" unicode="&#xe1;" horiz-adv-x="569" 
d="M429 690l-119 -135h-88l63 135h144zM480 168q0 -41 14.5 -56.5t44.5 -15.5v-96h-30q-91 0 -116 64q-50 -69 -158 -69q-85 0 -135 40t-50 108q0 37 15.5 66.5t44.5 47.5t57.5 30t69.5 18.5t65 8.5t57 4q-3 79 -85 79q-20 0 -35 -4.5t-22.5 -10.5t-12 -12.5t-5.5 -11.5
l-1 -4h-125q7 68 60.5 109.5t143.5 41.5q94 0 148.5 -50t54.5 -154v-133zM176 147q0 -36 42 -46q49 -12 93 20q43 31 46 89v10q-29 -3 -45.5 -5.5l-41 -6.5t-38.5 -9t-28.5 -12t-21 -17t-6.5 -23z" />
    <glyph glyph-name="acircumflex" unicode="&#xe2;" horiz-adv-x="569" 
d="M267 624l-48 -68h-117l119 154h109l119 -154h-117l-48 68h-17zM480 168q0 -41 14.5 -56.5t44.5 -15.5v-96h-30q-91 0 -116 64q-50 -69 -158 -69q-85 0 -135 40t-50 108q0 37 15.5 66.5t44.5 47.5t57.5 30t69.5 18.5t65 8.5t57 4q-3 79 -85 79q-20 0 -35 -4.5t-22.5 -10.5
t-12 -12.5t-5.5 -11.5l-1 -4h-125q7 68 60.5 109.5t143.5 41.5q94 0 148.5 -50t54.5 -154v-133zM176 147q0 -36 42 -46q49 -12 93 20q43 31 46 89v10q-29 -3 -45.5 -5.5l-41 -6.5t-38.5 -9t-28.5 -12t-21 -17t-6.5 -23z" />
    <glyph glyph-name="atilde" unicode="&#xe3;" horiz-adv-x="569" 
d="M214 584q-16 1 -29.5 -9t-18.5 -21l-6 -11l-69 44q2 5 5.5 12t16 25.5t27 32t39 22t51.5 3.5q26 -5 61 -26t50 -22q16 -1 30 9t20 21l6 11l69 -46q-2 -5 -5.5 -12t-16 -25.5t-27 -31t-39.5 -21t-52 -3.5q-26 5 -61.5 26t-50.5 22zM480 168q0 -41 14.5 -56.5t44.5 -15.5
v-96h-30q-91 0 -116 64q-50 -69 -158 -69q-85 0 -135 40t-50 108q0 37 15.5 66.5t44.5 47.5t57.5 30t69.5 18.5t65 8.5t57 4q-3 79 -85 79q-20 0 -35 -4.5t-22.5 -10.5t-12 -12.5t-5.5 -11.5l-1 -4h-125q7 68 60.5 109.5t143.5 41.5q94 0 148.5 -50t54.5 -154v-133zM176 147
q0 -36 42 -46q49 -12 93 20q43 31 46 89v10q-29 -3 -45.5 -5.5l-41 -6.5t-38.5 -9t-28.5 -12t-21 -17t-6.5 -23z" />
    <glyph glyph-name="adieresis" unicode="&#xe4;" horiz-adv-x="569" 
d="M180 551q-30 0 -51.5 21.5t-21.5 51.5t21.5 51t51.5 21t51 -21t21 -51t-21.5 -51.5t-50.5 -21.5zM374 551q-29 0 -50.5 21.5t-21.5 51.5t21 51t51 21t51.5 -21t21.5 -51t-21.5 -51.5t-51.5 -21.5zM480 168q0 -41 14.5 -56.5t44.5 -15.5v-96h-30q-91 0 -116 64
q-50 -69 -158 -69q-85 0 -135 40t-50 108q0 37 15.5 66.5t44.5 47.5t57.5 30t69.5 18.5t65 8.5t57 4q-3 79 -85 79q-20 0 -35 -4.5t-22.5 -10.5t-12 -12.5t-5.5 -11.5l-1 -4h-125q7 68 60.5 109.5t143.5 41.5q94 0 148.5 -50t54.5 -154v-133zM176 147q0 -36 42 -46
q49 -12 93 20q43 31 46 89v10q-29 -3 -45.5 -5.5l-41 -6.5t-38.5 -9t-28.5 -12t-21 -17t-6.5 -23z" />
    <glyph glyph-name="aring" unicode="&#xe5;" horiz-adv-x="569" 
d="M275 530q-41 0 -70.5 29.5t-29.5 70.5t29.5 70.5t70.5 29.5t71.5 -29.5t30.5 -70.5t-30.5 -70.5t-71.5 -29.5zM276 657q-11 0 -18.5 -8t-7.5 -19t7.5 -19t18.5 -8q10 0 18 8t8 19t-8 19t-18 8zM480 168q0 -41 14.5 -56.5t44.5 -15.5v-96h-30q-91 0 -116 64
q-50 -69 -158 -69q-85 0 -135 40t-50 108q0 37 15.5 66.5t44.5 47.5t57.5 30t69.5 18.5t65 8.5t57 4q-3 79 -85 79q-20 0 -35 -4.5t-22.5 -10.5t-12 -12.5t-5.5 -11.5l-1 -4h-125q7 68 60.5 109.5t143.5 41.5q94 0 148.5 -50t54.5 -154v-133zM176 147q0 -36 42 -46
q49 -12 93 20q43 31 46 89v10q-29 -3 -45.5 -5.5l-41 -6.5t-38.5 -9t-28.5 -12t-21 -17t-6.5 -23z" />
    <glyph glyph-name="ae" unicode="&#xe6;" horiz-adv-x="900" 
d="M607 505q50 0 94.5 -17.5t80.5 -52t54.5 -92.5t12.5 -131h-365q10 -53 47.5 -78.5t83.5 -25.5q30 0 54.5 10.5t33.5 21.5l9 10h126q-28 -73 -90 -114t-137 -41q-121 0 -197 92q-49 -92 -179 -92q-85 0 -135 40t-50 108q0 37 15.5 66.5t44.5 47.5t57.5 30t69.5 18.5
t65 8.5t57 4q-3 79 -85 79q-20 0 -35 -4.5t-22.5 -10.5t-12 -12.5t-5.5 -11.5l-1 -4h-125q7 68 60.5 109.5t143.5 41.5q109 0 161 -63q69 63 169 63zM611 396q-41 0 -72.5 -22t-46.5 -61h225q-21 83 -106 83zM176 147q0 -36 42 -46q49 -12 93 20q43 31 46 89v10
q-29 -3 -45.5 -5.5l-41 -6.5t-38.5 -9t-28.5 -12t-21 -17t-6.5 -23z" />
    <glyph glyph-name="ccedilla" unicode="&#xe7;" horiz-adv-x="587" 
d="M305 116q66 0 102 60h137q-20 -72 -71 -117.5t-118 -58.5l-24 -41q34 8 62.5 -13.5t28.5 -59.5t-29 -64.5t-79 -26.5q-37 0 -65 15.5t-37 30.5l-10 15l60 33q16 -28 48 -28q15 0 23 7t8 16q0 10 -8 17.5t-23 7.5q-8 0 -16 -2.5t-12 -5.5l-3 -3l-45 47l36 52
q-95 12 -157.5 82t-62.5 170q0 110 75.5 183t182.5 73q87 0 152.5 -50.5t86.5 -137.5h-136q-34 67 -106 67q-53 0 -89.5 -38t-36.5 -96t36.5 -96t89.5 -38z" />
    <glyph glyph-name="egrave" unicode="&#xe8;" horiz-adv-x="592" 
d="M364 555h-88l-119 135h144zM299 505q50 0 94.5 -17.5t80.5 -52t54.5 -92.5t12.5 -131h-365q10 -53 47.5 -78.5t83.5 -25.5q30 0 54.5 10.5t33.5 21.5l9 10h126q-28 -73 -90 -114t-137 -41q-104 0 -178.5 72.5t-74.5 186.5q0 113 73 182t176 69zM303 396q-41 0 -72.5 -22
t-46.5 -61h225q-21 83 -106 83z" />
    <glyph glyph-name="eacute" unicode="&#xe9;" horiz-adv-x="592" 
d="M454 690l-119 -135h-88l63 135h144zM299 505q50 0 94.5 -17.5t80.5 -52t54.5 -92.5t12.5 -131h-365q10 -53 47.5 -78.5t83.5 -25.5q30 0 54.5 10.5t33.5 21.5l9 10h126q-28 -73 -90 -114t-137 -41q-104 0 -178.5 72.5t-74.5 186.5q0 113 73 182t176 69zM303 396
q-41 0 -72.5 -22t-46.5 -61h225q-21 83 -106 83z" />
    <glyph glyph-name="ecircumflex" unicode="&#xea;" horiz-adv-x="592" 
d="M288 624l-48 -68h-117l119 154h109l119 -154h-117l-48 68h-17zM299 505q50 0 94.5 -17.5t80.5 -52t54.5 -92.5t12.5 -131h-365q10 -53 47.5 -78.5t83.5 -25.5q30 0 54.5 10.5t33.5 21.5l9 10h126q-28 -73 -90 -114t-137 -41q-104 0 -178.5 72.5t-74.5 186.5q0 113 73 182
t176 69zM303 396q-41 0 -72.5 -22t-46.5 -61h225q-21 83 -106 83z" />
    <glyph glyph-name="edieresis" unicode="&#xeb;" horiz-adv-x="592" 
d="M199 551q-30 0 -51.5 21.5t-21.5 51.5t21.5 51t51.5 21t51 -21t21 -51t-21.5 -51.5t-50.5 -21.5zM393 551q-29 0 -50.5 21.5t-21.5 51.5t21 51t51 21t51.5 -21t21.5 -51t-21.5 -51.5t-51.5 -21.5zM299 505q50 0 94.5 -17.5t80.5 -52t54.5 -92.5t12.5 -131h-365
q10 -53 47.5 -78.5t83.5 -25.5q30 0 54.5 10.5t33.5 21.5l9 10h126q-28 -73 -90 -114t-137 -41q-104 0 -178.5 72.5t-74.5 186.5q0 113 73 182t176 69zM303 396q-41 0 -72.5 -22t-46.5 -61h225q-21 83 -106 83z" />
    <glyph glyph-name="igrave" unicode="&#xec;" horiz-adv-x="248" 
d="M146 690l63 -135h-88l-119 135h144zM198 500v-500h-128v500h128z" />
    <glyph glyph-name="iacute" unicode="&#xed;" horiz-adv-x="248" 
d="M113 690h144l-119 -135h-88zM198 500v-500h-128v500h128z" />
    <glyph glyph-name="icircumflex" unicode="&#xee;" horiz-adv-x="248" 
d="M133 624h-17l-48 -68h-117l119 154h109l119 -154h-117zM70 0v500h128v-500h-128z" />
    <glyph glyph-name="idieresis" unicode="&#xef;" horiz-adv-x="248" 
d="M28 551q-30 0 -51.5 21.5t-21.5 51.5t21.5 51t51.5 21t51 -21t21 -51t-21.5 -51.5t-50.5 -21.5zM222 551q-29 0 -50.5 21.5t-21.5 51.5t21 51t51 21t51.5 -21t21.5 -51t-21.5 -51.5t-51.5 -21.5zM198 500v-500h-128v500h128z" />
    <glyph glyph-name="eth" unicode="&#xf0;" horiz-adv-x="600" 
d="M434 611q116 -105 116 -310q0 -162 -67 -234t-178 -72q-97 0 -171 73.5t-74 181.5t74 181.5t171 73.5q31 0 58 -12.5t39 -24.5l11 -13q-25 63 -90 104l-130 -61l-33 71l71 33q-37 13 -77 21l49 97q89 -20 157 -57l115 54l33 -71zM308 111q55 0 85.5 39t30.5 100
t-30.5 100t-85.5 39q-56 0 -88.5 -39.5t-32.5 -99.5t32.5 -99.5t88.5 -39.5z" />
    <glyph glyph-name="ntilde" unicode="&#xf1;" horiz-adv-x="610" 
d="M246 584q-16 1 -29.5 -9t-18.5 -21l-6 -11l-69 44q2 5 5.5 12t16 25.5t27 32t39 22t51.5 3.5q26 -5 61 -26t50 -22q16 -1 30 9t20 21l6 11l69 -46q-2 -5 -5.5 -12t-16 -25.5t-27 -31t-39.5 -21t-52 -3.5q-26 5 -61.5 26t-50.5 22zM358 505q94 0 143 -63.5t49 -170.5v-271
h-133v241l1 9q0 9 -0.5 16t-1 19.5t-3 22.5t-6 22.5t-10 22t-15 17.5t-21.5 13t-28 6q-20 1 -40.5 -5t-42 -21.5t-35 -48.5t-13.5 -79v-235h-132v500h102l17 -61h17q55 66 152 66z" />
    <glyph glyph-name="ograve" unicode="&#xf2;" horiz-adv-x="611" 
d="M314 690l63 -135h-88l-119 135h144zM304 -5q-106 0 -180 70t-74 184q0 115 76.5 185.5t181.5 70.5t179 -70t74 -184q0 -115 -75.5 -185.5t-181.5 -70.5zM308 111q56 0 89 39.5t33 99.5t-33 99.5t-89 39.5t-91.5 -40t-35.5 -99t35.5 -99t91.5 -40z" />
    <glyph glyph-name="oacute" unicode="&#xf3;" horiz-adv-x="611" 
d="M300 690h144l-119 -135h-88zM304 -5q-106 0 -180 70t-74 184q0 115 76.5 185.5t181.5 70.5t179 -70t74 -184q0 -115 -75.5 -185.5t-181.5 -70.5zM308 111q56 0 89 39.5t33 99.5t-33 99.5t-89 39.5t-91.5 -40t-35.5 -99t35.5 -99t91.5 -40z" />
    <glyph glyph-name="ocircumflex" unicode="&#xf4;" horiz-adv-x="611" 
d="M297 624l-48 -68h-117l119 154h109l119 -154h-117l-48 68h-17zM308 505q105 0 179 -70t74 -184q0 -115 -75.5 -185.5t-181.5 -70.5t-180 70t-74 184q0 115 76.5 185.5t181.5 70.5zM308 111q56 0 89 39.5t33 99.5t-33 99.5t-89 39.5t-91.5 -40t-35.5 -99t35.5 -99
t91.5 -40z" />
    <glyph glyph-name="otilde" unicode="&#xf5;" horiz-adv-x="611" 
d="M493 629q-2 -5 -5.5 -12t-16 -25.5t-27 -31t-39.5 -21t-52 -3.5q-26 5 -61.5 26t-50.5 22q-16 1 -29.5 -9t-19.5 -21l-5 -11l-69 44q2 5 5.5 12t16 25.5t27 32t39 22t51.5 3.5q26 -5 61 -26t50 -22q16 -1 30 9t20 21l6 11zM304 -5q-106 0 -180 70t-74 184
q0 115 76.5 185.5t181.5 70.5t179 -70t74 -184q0 -115 -75.5 -185.5t-181.5 -70.5zM308 111q56 0 89 39.5t33 99.5t-33 99.5t-89 39.5t-91.5 -40t-35.5 -99t35.5 -99t91.5 -40z" />
    <glyph glyph-name="odieresis" unicode="&#xf6;" horiz-adv-x="611" 
d="M209 551q-30 0 -51.5 21.5t-21.5 51.5t21.5 51t51.5 21t51 -21t21 -51t-21.5 -51.5t-50.5 -21.5zM403 551q-29 0 -50.5 21.5t-21.5 51.5t21 51t51 21t51.5 -21t21.5 -51t-21.5 -51.5t-51.5 -21.5zM304 -5q-106 0 -180 70t-74 184q0 115 76.5 185.5t181.5 70.5t179 -70
t74 -184q0 -115 -75.5 -185.5t-181.5 -70.5zM308 111q56 0 89 39.5t33 99.5t-33 99.5t-89 39.5t-91.5 -40t-35.5 -99t35.5 -99t91.5 -40z" />
    <glyph glyph-name="divide" unicode="&#xf7;" horiz-adv-x="575" 
d="M288 407q-33 0 -56.5 23.5t-23.5 56.5q0 34 23.5 57t56.5 23t56.5 -23t23.5 -57q0 -33 -23.5 -56.5t-56.5 -23.5zM50 354h475v-114h-475v114zM288 27q-33 0 -56.5 23.5t-23.5 56.5q0 34 23.5 57t56.5 23t56.5 -23t23.5 -57q0 -33 -23.5 -56.5t-56.5 -23.5z" />
    <glyph glyph-name="oslash" unicode="&#xf8;" horiz-adv-x="611" 
d="M488 434q73 -70 73 -183q0 -115 -75.5 -185.5t-181.5 -70.5q-56 0 -108 22l-30 -42l-71 49l29 41q-74 72 -74 184q0 115 76.5 185.5t181.5 70.5q55 0 107 -22l30 43l72 -50zM181 250q0 -41 19 -76l146 209q-18 6 -38 6q-56 0 -91.5 -40t-35.5 -99zM308 111q56 0 89 39.5
t33 99.5q0 44 -18 77l-146 -209q18 -7 42 -7z" />
    <glyph glyph-name="ugrave" unicode="&#xf9;" horiz-adv-x="618" 
d="M387 555h-88l-119 135h144zM413 500h135v-500h-100l-18 56h-13q-49 -61 -146 -61t-149 63t-52 171v271h136v-241q0 -30 2.5 -50.5t10.5 -45.5t28 -38.5t50 -13.5q19 0 37 6t37 21.5t30.5 48t11.5 78.5v235z" />
    <glyph glyph-name="uacute" unicode="&#xfa;" horiz-adv-x="618" 
d="M450 690l-119 -135h-88l63 135h144zM413 500h135v-500h-100l-18 56h-13q-49 -61 -146 -61t-149 63t-52 171v271h136v-241q0 -30 2.5 -50.5t10.5 -45.5t28 -38.5t50 -13.5q19 0 37 6t37 21.5t30.5 48t11.5 78.5v235z" />
    <glyph glyph-name="ucircumflex" unicode="&#xfb;" horiz-adv-x="618" 
d="M301 624l-48 -68h-117l119 154h109l119 -154h-117l-48 68h-17zM413 500h135v-500h-100l-18 56h-13q-49 -61 -146 -61t-149 63t-52 171v271h136v-241q0 -30 2.5 -50.5t10.5 -45.5t28 -38.5t50 -13.5q19 0 37 6t37 21.5t30.5 48t11.5 78.5v235z" />
    <glyph glyph-name="udieresis" unicode="&#xfc;" horiz-adv-x="618" 
d="M212 551q-30 0 -51.5 21.5t-21.5 51.5t21.5 51t51.5 21t51 -21t21 -51t-21.5 -51.5t-50.5 -21.5zM406 551q-29 0 -50.5 21.5t-21.5 51.5t21 51t51 21t51.5 -21t21.5 -51t-21.5 -51.5t-51.5 -21.5zM413 500h135v-500h-100l-18 56h-13q-49 -61 -146 -61t-149 63t-52 171
v271h136v-241q0 -30 2.5 -50.5t10.5 -45.5t28 -38.5t50 -13.5q19 0 37 6t37 21.5t30.5 48t11.5 78.5v235z" />
    <glyph glyph-name="yacute" unicode="&#xfd;" horiz-adv-x="621" 
d="M457 690l-119 -135h-88l63 135h144zM447 500h134l-174 -519q-12 -35 -18.5 -52.5t-24.5 -47.5t-37.5 -45.5t-54 -28t-77.5 -12.5q-60 0 -98 17.5t-54 37.5l63 89q31 -31 78 -31q64 0 81 51l14 41h-67l-172 500h139l126 -364h20z" />
    <glyph glyph-name="thorn" unicode="&#xfe;" 
d="M324 505q97 0 165 -72t68 -183t-68 -183t-165 -72q-81 0 -129 54v-249h-125v700v210h125v-244h17q45 39 112 39zM305 118q50 0 86 35t36 97t-36 97t-86 35t-80 -35.5t-30 -96.5t30 -96.5t80 -35.5z" />
    <glyph glyph-name="ydieresis" unicode="&#xff;" horiz-adv-x="621" 
d="M215 551q-30 0 -51.5 21.5t-21.5 51.5t21.5 51t51.5 21t51 -21t21 -51t-21.5 -51.5t-50.5 -21.5zM409 551q-29 0 -50.5 21.5t-21.5 51.5t21 51t51 21t51.5 -21t21.5 -51t-21.5 -51.5t-51.5 -21.5zM447 500h134l-174 -519q-12 -35 -18.5 -52.5t-24.5 -47.5t-37.5 -45.5
t-54 -28t-77.5 -12.5q-60 0 -98 17.5t-54 37.5l63 89q31 -31 78 -31q64 0 81 51l14 41h-67l-172 500h139l126 -364h20z" />
    <glyph glyph-name="Amacron" unicode="&#x100;" horiz-adv-x="668" 
d="M509 868v-95h-350v95h350zM422 700l236 -700h-144l-49 153h-262l-49 -153h-144l236 700h176zM243 277h182l-79 243h-24z" />
    <glyph glyph-name="amacron" unicode="&#x101;" horiz-adv-x="569" 
d="M447 660v-90h-350v90h350zM480 168q0 -41 14.5 -56.5t44.5 -15.5v-96h-30q-91 0 -116 64q-50 -69 -158 -69q-85 0 -135 40t-50 108q0 37 15.5 66.5t44.5 47.5t57.5 30t69.5 18.5t65 8.5t57 4q-3 79 -85 79q-20 0 -35 -4.5t-22.5 -10.5t-12 -12.5t-5.5 -11.5l-1 -4h-125
q7 68 60.5 109.5t143.5 41.5q94 0 148.5 -50t54.5 -154v-133zM176 147q0 -36 42 -46q49 -12 93 20q43 31 46 89v10q-29 -3 -45.5 -5.5l-41 -6.5t-38.5 -9t-28.5 -12t-21 -17t-6.5 -23z" />
    <glyph glyph-name="Abreve" unicode="&#x102;" horiz-adv-x="668" 
d="M335 747q-63 0 -108 39t-45 94h102q0 -18 13.5 -32t37.5 -14q23 0 35.5 14t12.5 32h102q0 -56 -43.5 -94.5t-106.5 -38.5zM422 700l236 -700h-144l-49 153h-262l-49 -153h-144l236 700h176zM243 277h182l-79 243h-24z" />
    <glyph glyph-name="abreve" unicode="&#x103;" horiz-adv-x="569" 
d="M279 573q-60 0 -102.5 37t-42.5 90h97q0 -17 12.5 -30.5t35.5 -13.5q22 0 34 13t12 31h97q0 -53 -41.5 -90t-101.5 -37zM480 168q0 -41 14.5 -56.5t44.5 -15.5v-96h-30q-91 0 -116 64q-50 -69 -158 -69q-85 0 -135 40t-50 108q0 37 15.5 66.5t44.5 47.5t57.5 30
t69.5 18.5t65 8.5t57 4q-3 79 -85 79q-20 0 -35 -4.5t-22.5 -10.5t-12 -12.5t-5.5 -11.5l-1 -4h-125q7 68 60.5 109.5t143.5 41.5q94 0 148.5 -50t54.5 -154v-133zM176 147q0 -36 42 -46q49 -12 93 20q43 31 46 89v10q-29 -3 -45.5 -5.5l-41 -6.5t-38.5 -9t-28.5 -12
t-21 -17t-6.5 -23z" />
    <glyph glyph-name="Aogonek" unicode="&#x104;" horiz-adv-x="668" 
d="M669 -103l4 -84q-25 -18 -71 -18q-53 0 -87 29t-34 81q0 51 36 95h-3l-49 153h-262l-49 -153h-144l236 700h176l236 -700h-47q-35 -26 -35 -65q0 -26 17 -37.5t37.5 -10t38.5 9.5zM243 277h182l-79 243h-24z" />
    <glyph glyph-name="aogonek" unicode="&#x105;" horiz-adv-x="569" 
d="M577 -109l3 -80q-23 -17 -67 -17q-50 0 -82.5 27.5t-32.5 77.5q0 63 52 110q-41 15 -57 55q-50 -69 -158 -69q-85 0 -135 40t-50 108q0 37 15.5 66.5t44.5 47.5t57.5 30t69.5 18.5t65 8.5t57 4q-3 79 -85 79q-20 0 -35 -4.5t-22.5 -10.5t-12 -12.5t-5.5 -11.5l-1 -4h-125
q7 68 60.5 109.5t143.5 41.5q94 0 148.5 -50t54.5 -154v-133q0 -41 14.5 -56.5t44.5 -15.5v-96q-6 -2 -14.5 -7t-22.5 -23.5t-14 -41.5q0 -25 16.5 -36t35.5 -9.5t37 8.5zM176 147q0 -36 42 -46q49 -12 93 20q43 31 46 89v10q-29 -3 -45.5 -5.5l-41 -6.5t-38.5 -9t-28.5 -12
t-21 -17t-6.5 -23z" />
    <glyph glyph-name="Cacute" unicode="&#x106;" horiz-adv-x="693" 
d="M376 890h172l-142 -135h-106zM502 210h151q-30 -100 -107.5 -157.5t-179.5 -57.5q-137 0 -226.5 100.5t-89.5 254.5t89 254.5t226 100.5q101 0 179.5 -57.5t108.5 -157.5h-151q-39 83 -135 83q-84 0 -131.5 -61.5t-47.5 -161.5t48 -161.5t133 -61.5q94 0 133 83z" />
    <glyph glyph-name="cacute" unicode="&#x107;" horiz-adv-x="587" 
d="M309 690h144l-119 -135h-88zM544 176q-23 -86 -90.5 -133.5t-150.5 -47.5q-106 0 -179.5 72.5t-73.5 181.5q0 110 75.5 183t182.5 73q87 0 152.5 -50.5t86.5 -137.5h-136q-34 67 -106 67q-53 0 -89.5 -38t-36.5 -96t36.5 -96t89.5 -38q66 0 102 60h137z" />
    <glyph glyph-name="Ccircumflex" unicode="&#x108;" horiz-adv-x="693" 
d="M354 823l-52 -68h-129l131 154h120l131 -154h-129l-52 68h-20zM369 127q94 0 133 83h151q-30 -100 -107.5 -157.5t-179.5 -57.5q-137 0 -226.5 100.5t-89.5 254.5t89 254.5t226 100.5q101 0 179.5 -57.5t108.5 -157.5h-151q-39 83 -135 83q-84 0 -131.5 -61.5
t-47.5 -161.5t48 -161.5t133 -61.5z" />
    <glyph glyph-name="ccircumflex" unicode="&#x109;" horiz-adv-x="587" 
d="M290 624l-48 -68h-117l119 154h109l119 -154h-117l-48 68h-17zM305 116q66 0 102 60h137q-23 -86 -90.5 -133.5t-150.5 -47.5q-106 0 -179.5 72.5t-73.5 181.5q0 110 75.5 183t182.5 73q87 0 152.5 -50.5t86.5 -137.5h-136q-34 67 -106 67q-53 0 -89.5 -38t-36.5 -96
t36.5 -96t89.5 -38z" />
    <glyph glyph-name="Cdotaccent" unicode="&#x10a;" horiz-adv-x="693" 
d="M365 745q-35 0 -60.5 25t-25.5 59q0 36 25 60.5t61 24.5q35 0 59.5 -24.5t24.5 -60.5q0 -34 -25 -59t-59 -25zM502 210h151q-30 -100 -107.5 -157.5t-179.5 -57.5q-137 0 -226.5 100.5t-89.5 254.5t89 254.5t226 100.5q101 0 179.5 -57.5t108.5 -157.5h-151
q-39 83 -135 83q-84 0 -131.5 -61.5t-47.5 -161.5t48 -161.5t133 -61.5q94 0 133 83z" />
    <glyph glyph-name="cdotaccent" unicode="&#x10b;" horiz-adv-x="587" 
d="M300 556q-35 0 -60.5 25t-25.5 59q0 36 25 60.5t61 24.5q35 0 59.5 -24.5t24.5 -60.5q0 -34 -25 -59t-59 -25zM544 176q-23 -86 -90.5 -133.5t-150.5 -47.5q-106 0 -179.5 72.5t-73.5 181.5q0 110 75.5 183t182.5 73q87 0 152.5 -50.5t86.5 -137.5h-136q-34 67 -106 67
q-53 0 -89.5 -38t-36.5 -96t36.5 -96t89.5 -38q66 0 102 60h137z" />
    <glyph glyph-name="Ccaron" unicode="&#x10c;" horiz-adv-x="693" 
d="M418 755h-120l-131 154h129l52 -68h20l52 68h129zM369 127q94 0 133 83h151q-30 -100 -107.5 -157.5t-179.5 -57.5q-137 0 -226.5 100.5t-89.5 254.5t89 254.5t226 100.5q101 0 179.5 -57.5t108.5 -157.5h-151q-39 83 -135 83q-84 0 -131.5 -61.5t-47.5 -161.5t48 -161.5
t133 -61.5z" />
    <glyph glyph-name="ccaron" unicode="&#x10d;" horiz-adv-x="587" 
d="M353 556h-109l-119 154h117l48 -68h17l48 68h117zM305 116q66 0 102 60h137q-23 -86 -90.5 -133.5t-150.5 -47.5q-106 0 -179.5 72.5t-73.5 181.5q0 110 75.5 183t182.5 73q87 0 152.5 -50.5t86.5 -137.5h-136q-34 67 -106 67q-53 0 -89.5 -38t-36.5 -96t36.5 -96
t89.5 -38z" />
    <glyph glyph-name="Dcaron" unicode="&#x10e;" horiz-adv-x="692" 
d="M385 755h-120l-131 154h129l52 -68h20l52 68h129zM292 700q146 0 248 -93.5t102 -256.5t-102 -256.5t-248 -93.5h-222v700h222zM292 132q94 0 153.5 59.5t59.5 161.5q0 101 -59.5 158t-153.5 57h-86v-436h86z" />
    <glyph glyph-name="dcaron" unicode="&#x10f;" horiz-adv-x="774" 
d="M412 451v259h125v-710h-98l-14 48h-15q-48 -53 -127 -53q-97 0 -165 72t-68 183t68 183t165 72q81 0 129 -54zM614 710h110l-36 -185h-88zM302 118q50 0 80 35.5t30 96.5t-30 96.5t-80 35.5t-86 -35t-36 -97t36 -97t86 -35z" />
    <glyph glyph-name="Dcroat" unicode="&#x110;" horiz-adv-x="762" 
d="M342 700q146 0 248 -93.5t102 -256.5t-102 -256.5t-248 -93.5h-222v311h-90v106h90v283h222zM342 132q94 0 153.5 59.5t59.5 161.5q0 101 -59.5 158t-153.5 57h-86v-151h164v-106h-164v-179h86z" />
    <glyph glyph-name="dcroat" unicode="&#x111;" 
d="M624 640v-90h-87v-550h-98l-14 48h-15q-48 -53 -127 -53q-97 0 -165 72t-68 183t68 183t165 72q81 0 129 -54v99h-173v90h173v70h125v-70h87zM302 118q50 0 80 35.5t30 96.5t-30 96.5t-80 35.5t-86 -35t-36 -97t36 -97t86 -35z" />
    <glyph glyph-name="Emacron" unicode="&#x112;" horiz-adv-x="611" 
d="M131 868h350v-95h-350v95zM201 125h340v-125h-471v700h461v-125h-330v-158h300v-125h-300v-167z" />
    <glyph glyph-name="emacron" unicode="&#x113;" horiz-adv-x="592" 
d="M471 660v-90h-350v90h350zM299 505q50 0 94.5 -17.5t80.5 -52t54.5 -92.5t12.5 -131h-365q10 -53 47.5 -78.5t83.5 -25.5q30 0 54.5 10.5t33.5 21.5l9 10h126q-28 -73 -90 -114t-137 -41q-104 0 -178.5 72.5t-74.5 186.5q0 113 73 182t176 69zM303 396q-41 0 -72.5 -22
t-46.5 -61h225q-21 83 -106 83z" />
    <glyph glyph-name="Ebreve" unicode="&#x114;" horiz-adv-x="611" 
d="M457 880q0 -56 -43.5 -94.5t-106.5 -38.5t-108 39t-45 94h102q0 -18 13.5 -32t37.5 -14q23 0 35.5 14t12.5 32h102zM201 125h340v-125h-471v700h461v-125h-330v-158h300v-125h-300v-167z" />
    <glyph glyph-name="ebreve" unicode="&#x115;" horiz-adv-x="592" 
d="M298 573q-60 0 -102.5 37t-42.5 90h97q0 -17 12.5 -30.5t35.5 -13.5q22 0 34 13t12 31h97q0 -53 -41.5 -90t-101.5 -37zM299 505q50 0 94.5 -17.5t80.5 -52t54.5 -92.5t12.5 -131h-365q10 -53 47.5 -78.5t83.5 -25.5q30 0 54.5 10.5t33.5 21.5l9 10h126q-28 -73 -90 -114
t-137 -41q-104 0 -178.5 72.5t-74.5 186.5q0 113 73 182t176 69zM303 396q-41 0 -72.5 -22t-46.5 -61h225q-21 83 -106 83z" />
    <glyph glyph-name="Edotaccent" unicode="&#x116;" horiz-adv-x="611" 
d="M307 745q-35 0 -60.5 25t-25.5 59q0 36 25 60.5t61 24.5q35 0 59.5 -24.5t24.5 -60.5q0 -34 -25 -59t-59 -25zM201 125h340v-125h-471v700h461v-125h-330v-158h300v-125h-300v-167z" />
    <glyph glyph-name="edotaccent" unicode="&#x117;" horiz-adv-x="592" 
d="M297 556q-35 0 -60.5 25t-25.5 59q0 36 25 60.5t61 24.5q35 0 59.5 -24.5t24.5 -60.5q0 -34 -25 -59t-59 -25zM299 505q50 0 94.5 -17.5t80.5 -52t54.5 -92.5t12.5 -131h-365q10 -53 47.5 -78.5t83.5 -25.5q30 0 54.5 10.5t33.5 21.5l9 10h126q-28 -73 -90 -114t-137 -41
q-104 0 -178.5 72.5t-74.5 186.5q0 113 73 182t176 69zM303 396q-41 0 -72.5 -22t-46.5 -61h225q-21 83 -106 83z" />
    <glyph glyph-name="Eogonek" unicode="&#x118;" horiz-adv-x="611" 
d="M370 0q-35 -26 -35 -65q0 -26 17 -37.5t37.5 -10t38.5 9.5l4 -84q-25 -18 -71 -18q-53 0 -87 29t-34 81q0 51 36 95h-206v700h461v-125h-330v-158h300v-125h-300v-167h340v-125h-171z" />
    <glyph glyph-name="eogonek" unicode="&#x119;" horiz-adv-x="592" 
d="M299 505q50 0 94.5 -17.5t80.5 -52t54.5 -92.5t12.5 -131h-365q10 -53 47.5 -78.5t83.5 -25.5q30 0 54.5 10.5t33.5 21.5l9 10h126q-24 -61 -71.5 -100.5t-107.5 -50.5q-7 -3 -17 -9.5t-21.5 -23.5t-11.5 -38q0 -25 16.5 -36t35.5 -9.5t37 8.5l3 -80q-23 -17 -67 -17
q-50 0 -82.5 27.5t-32.5 77.5q0 56 43 101q-88 16 -146 85t-58 169q0 113 73 182t176 69zM303 396q-41 0 -72.5 -22t-46.5 -61h225q-21 83 -106 83z" />
    <glyph glyph-name="Ecaron" unicode="&#x11a;" horiz-adv-x="611" 
d="M365 755h-120l-131 154h129l52 -68h20l52 68h129zM201 125h340v-125h-471v700h461v-125h-330v-158h300v-125h-300v-167z" />
    <glyph glyph-name="ecaron" unicode="&#x11b;" horiz-adv-x="592" 
d="M351 556h-109l-119 154h117l48 -68h17l48 68h117zM299 505q50 0 94.5 -17.5t80.5 -52t54.5 -92.5t12.5 -131h-365q10 -53 47.5 -78.5t83.5 -25.5q30 0 54.5 10.5t33.5 21.5l9 10h126q-28 -73 -90 -114t-137 -41q-104 0 -178.5 72.5t-74.5 186.5q0 113 73 182t176 69z
M303 396q-41 0 -72.5 -22t-46.5 -61h225q-21 83 -106 83z" />
    <glyph glyph-name="Gcircumflex" unicode="&#x11c;" horiz-adv-x="733" 
d="M363 823l-52 -68h-129l131 154h120l131 -154h-129l-52 68h-20zM393 382h280v-382h-93l-15 59h-13q-60 -64 -177 -64q-140 0 -232.5 101t-92.5 255t92.5 254t238.5 100q64 0 117 -21t83.5 -51.5t51 -60.5t27.5 -51l8 -21h-150q-1 3 -4 8.5t-14 19t-25 23.5t-39 18.5
t-55 8.5q-87 0 -141.5 -64t-54.5 -164q0 -101 55.5 -164t147.5 -63q114 0 155 80v61h-150v118z" />
    <glyph glyph-name="gcircumflex" unicode="&#x11d;" horiz-adv-x="575" 
d="M280 624l-48 -68h-117l119 154h109l119 -154h-117l-48 68h-17zM349 119q79 0 121.5 -46t40.5 -113q-3 -81 -67 -123t-159 -42q-114 0 -176.5 57.5t-44.5 139.5l57 46q-53 33 -53 88q0 56 62 89q-51 47 -51 120q0 74 54 122.5t146 48.5q66 0 114 -25q24 11 45.5 27.5
t30.5 27.5l9 10l62 -83q-34 -23 -80 -37q29 -40 29 -90q0 -72 -60 -121.5t-153 -49.5q-40 0 -71 9q-15 -9 -15 -25q0 -7 3 -13t9 -9t12 -5t16 -2.5t16 -0.5h17.5h15.5h70zM284 400q-42 0 -63.5 -17t-21.5 -46q0 -30 21.5 -48t63.5 -18q41 0 63 18t22 48q0 29 -22 46t-63 17z
M287 -89q48 0 74.5 14.5t26.5 38.5q0 48 -78 48q-67 0 -96 1l-34 -36q-6 -23 20.5 -44.5t86.5 -21.5z" />
    <glyph glyph-name="Gbreve" unicode="&#x11e;" horiz-adv-x="733" 
d="M377 741q-63 0 -108 39t-45 94h102q0 -18 13.5 -32t37.5 -14q23 0 35.5 14t12.5 32h102q0 -56 -43.5 -94.5t-106.5 -38.5zM393 382h280v-382h-93l-15 59h-13q-60 -64 -177 -64q-140 0 -232.5 101t-92.5 255t92.5 254t238.5 100q64 0 117 -21t83.5 -51.5t51 -60.5
t27.5 -51l8 -21h-150q-1 3 -4 8.5t-14 19t-25 23.5t-39 18.5t-55 8.5q-87 0 -141.5 -64t-54.5 -164q0 -101 55.5 -164t147.5 -63q114 0 155 80v61h-150v118z" />
    <glyph glyph-name="gbreve" unicode="&#x11f;" horiz-adv-x="575" 
d="M290 573q-60 0 -102.5 37t-42.5 90h97q0 -17 12.5 -30.5t35.5 -13.5q22 0 34 13t12 31h97q0 -53 -41.5 -90t-101.5 -37zM349 119q79 0 121.5 -46t40.5 -113q-3 -81 -67 -123t-159 -42q-114 0 -176.5 57.5t-44.5 139.5l57 46q-53 33 -53 88q0 56 62 89q-51 47 -51 120
q0 74 54 122.5t146 48.5q66 0 114 -25q24 11 45.5 27.5t30.5 27.5l9 10l62 -83q-34 -23 -80 -37q29 -40 29 -90q0 -72 -60 -121.5t-153 -49.5q-40 0 -71 9q-15 -9 -15 -25q0 -7 3 -13t9 -9t12 -5t16 -2.5t16 -0.5h17.5h15.5h70zM284 400q-42 0 -63.5 -17t-21.5 -46
q0 -30 21.5 -48t63.5 -18q41 0 63 18t22 48q0 29 -22 46t-63 17zM287 -89q48 0 74.5 14.5t26.5 38.5q0 48 -78 48q-67 0 -96 1l-34 -36q-6 -23 20.5 -44.5t86.5 -21.5z" />
    <glyph glyph-name="Gdotaccent" unicode="&#x120;" horiz-adv-x="733" 
d="M374 745q-35 0 -60.5 25t-25.5 59q0 36 25 60.5t61 24.5q35 0 59.5 -24.5t24.5 -60.5q0 -34 -25 -59t-59 -25zM393 382h280v-382h-93l-15 59h-13q-60 -64 -177 -64q-140 0 -232.5 101t-92.5 255t92.5 254t238.5 100q64 0 117 -21t83.5 -51.5t51 -60.5t27.5 -51l8 -21
h-150q-1 3 -4 8.5t-14 19t-25 23.5t-39 18.5t-55 8.5q-87 0 -141.5 -64t-54.5 -164q0 -101 55.5 -164t147.5 -63q114 0 155 80v61h-150v118z" />
    <glyph glyph-name="gdotaccent" unicode="&#x121;" horiz-adv-x="575" 
d="M289 556q-35 0 -60.5 25t-25.5 59q0 36 25 60.5t61 24.5q35 0 59.5 -24.5t24.5 -60.5q0 -34 -25 -59t-59 -25zM349 119q79 0 121.5 -46t40.5 -113q-3 -81 -67 -123t-159 -42q-114 0 -176.5 57.5t-44.5 139.5l57 46q-53 33 -53 88q0 56 62 89q-51 47 -51 120
q0 74 54 122.5t146 48.5q66 0 114 -25q24 11 45.5 27.5t30.5 27.5l9 10l62 -83q-34 -23 -80 -37q29 -40 29 -90q0 -72 -60 -121.5t-153 -49.5q-40 0 -71 9q-15 -9 -15 -25q0 -7 3 -13t9 -9t12 -5t16 -2.5t16 -0.5h17.5h15.5h70zM284 400q-42 0 -63.5 -17t-21.5 -46
q0 -30 21.5 -48t63.5 -18q41 0 63 18t22 48q0 29 -22 46t-63 17zM287 -89q48 0 74.5 14.5t26.5 38.5q0 48 -78 48q-67 0 -96 1l-34 -36q-6 -23 20.5 -44.5t86.5 -21.5z" />
    <glyph glyph-name="Gcommaaccent" unicode="&#x122;" horiz-adv-x="733" 
d="M393 382h280v-382h-93l-15 59h-13q-60 -64 -177 -64q-140 0 -232.5 101t-92.5 255t92.5 254t238.5 100q64 0 117 -21t83.5 -51.5t51 -60.5t27.5 -51l8 -21h-150q-1 3 -4 8.5t-14 19t-25 23.5t-39 18.5t-55 8.5q-87 0 -141.5 -64t-54.5 -164q0 -101 55.5 -164t147.5 -63
q114 0 155 80v61h-150v118zM362 -44q35 0 54 -25t19 -68q0 -32 -10.5 -61t-26 -46.5t-31 -30t-25.5 -17.5l-11 -6l-27 28q51 43 59 90q-29 2 -52 18.5t-23 49.5q0 31 21.5 49.5t52.5 18.5z" />
    <glyph glyph-name="gcommaaccent" unicode="&#x123;" horiz-adv-x="575" 
d="M315 548q-33 0 -51 23.5t-18 65.5q0 31 10 58t25 44t29.5 29.5t24.5 17.5l10 5l26 -27q-48 -42 -56 -87q27 -1 49 -16.5t22 -46.5q0 -30 -20.5 -48t-50.5 -18zM349 119q79 0 121.5 -46t40.5 -113q-3 -81 -67 -123t-159 -42q-114 0 -176.5 57.5t-44.5 139.5l57 46
q-53 33 -53 88q0 56 62 89q-51 47 -51 120q0 74 54 122.5t146 48.5q66 0 114 -25q24 11 45.5 27.5t30.5 27.5l9 10l62 -83q-34 -23 -80 -37q29 -40 29 -90q0 -72 -60 -121.5t-153 -49.5q-40 0 -71 9q-15 -9 -15 -25q0 -7 3 -13t9 -9t12 -5t16 -2.5t16 -0.5h17.5h15.5h70z
M284 400q-42 0 -63.5 -17t-21.5 -46q0 -30 21.5 -48t63.5 -18q41 0 63 18t22 48q0 29 -22 46t-63 17zM287 -89q48 0 74.5 14.5t26.5 38.5q0 48 -78 48q-67 0 -96 1l-34 -36q-6 -23 20.5 -44.5t86.5 -21.5z" />
    <glyph glyph-name="Hcircumflex" unicode="&#x124;" horiz-adv-x="686" 
d="M332 823l-52 -68h-129l131 154h120l131 -154h-129l-52 68h-20zM481 700h135v-700h-135v291h-276v-291h-135v700h135v-282h276v282z" />
    <glyph glyph-name="Hbar" unicode="&#x126;" horiz-adv-x="686" 
d="M481 700h135v-700h-135v291h-276v-291h-135v700h135v-89l276 1v88zM205 418h276v82l-276 1v-83z" />
    <glyph glyph-name="hbar" unicode="&#x127;" horiz-adv-x="619" 
d="M358 505q94 0 142.5 -63.5t48.5 -170.5v-271h-134v241v16v18.5t-0.5 18.5t-2 20.5t-4.5 18.5t-7 18l-10.5 15t-14.5 13t-19 7t-24 3q-20 0 -39.5 -6t-41 -21t-35 -48t-13.5 -79v-235h-134v550h-91v90h91v70h127v-70h167v-90h-167v-102h17q55 57 144 57z" />
    <glyph glyph-name="Itilde" unicode="&#x128;" horiz-adv-x="279" 
d="M345 830q-2 -5 -6 -13t-17.5 -28t-30 -34t-43.5 -23.5t-57 -3.5q-28 5 -67.5 28t-56.5 24q-17 2 -32 -9.5t-21 -23.5l-6 -12l-76 49q2 5 6 13t17.5 28.5t29.5 35t43 23.5t57 4q28 -5 67 -28.5t55 -24.5q17 -1 32.5 10.5t22.5 23.5l7 12zM209 700v-700h-139v700h139z" />
    <glyph glyph-name="itilde" unicode="&#x129;" horiz-adv-x="248" 
d="M312 629q-2 -5 -5.5 -12t-16 -25.5t-27 -31t-39.5 -21t-52 -3.5q-26 5 -61.5 26t-50.5 22q-16 1 -29.5 -9t-18.5 -21l-6 -11l-69 44q2 5 5.5 12t16 25.5t27 32t39 22t51.5 3.5q26 -5 61 -26t50 -22q16 -1 30 9t20 21l6 11zM198 500v-500h-128v500h128z" />
    <glyph glyph-name="Imacron" unicode="&#x12a;" horiz-adv-x="279" 
d="M-35 868h350v-95h-350v95zM209 700v-700h-139v700h139z" />
    <glyph glyph-name="imacron" unicode="&#x12b;" horiz-adv-x="248" 
d="M-51 660h350v-90h-350v90zM198 500v-500h-128v500h128z" />
    <glyph glyph-name="Ibreve" unicode="&#x12c;" horiz-adv-x="279" 
d="M291 880q0 -56 -43.5 -94.5t-106.5 -38.5t-108 39t-45 94h102q0 -18 13.5 -32t37.5 -14q23 0 35.5 14t12.5 32h102zM209 700v-700h-139v700h139z" />
    <glyph glyph-name="ibreve" unicode="&#x12d;" horiz-adv-x="248" 
d="M270 700q0 -53 -41.5 -90t-101.5 -37t-102.5 37t-42.5 90h97q0 -17 12.5 -30.5t35.5 -13.5q22 0 34 13t12 31h97zM198 500v-500h-128v500h128z" />
    <glyph glyph-name="Iogonek" unicode="&#x12e;" horiz-adv-x="279" 
d="M221 -103l4 -84q-25 -18 -71 -18q-53 0 -87 29t-34 81t37 97v698h139v-700h-46q-35 -26 -35 -65q0 -26 17 -37.5t37.5 -10t38.5 9.5z" />
    <glyph glyph-name="iogonek" unicode="&#x12f;" horiz-adv-x="290" 
d="M156 556q-35 0 -60.5 25t-25.5 59q0 36 25 60.5t61 24.5q35 0 59.5 -24.5t24.5 -60.5q0 -34 -25 -59t-59 -25zM92 21v479h128v-500h-54q-6 -2 -14.5 -7t-22.5 -23.5t-14 -41.5q0 -25 16.5 -36t35.5 -9.5t37 8.5l3 -80q-23 -17 -67 -17q-50 0 -82.5 27.5t-32.5 77.5
q0 73 67 122z" />
    <glyph glyph-name="Idotaccent" unicode="&#x130;" horiz-adv-x="279" 
d="M140 745q-35 0 -60.5 25t-25.5 59q0 36 25 60.5t61 24.5q35 0 59.5 -24.5t24.5 -60.5q0 -34 -25 -59t-59 -25zM209 700v-700h-139v700h139z" />
    <glyph glyph-name="dotlessi" unicode="&#x131;" horiz-adv-x="248" 
d="M198 500v-500h-128v500h128z" />
    <glyph glyph-name="IJ" unicode="&#x132;" horiz-adv-x="836" 
d="M209 700v-700h-139v700h139zM454 210q0 -29 22.5 -57.5t65.5 -28.5q44 0 67.5 31.5t23.5 74.5v470h133v-460q0 -121 -67 -183t-161 -62q-93 0 -156 59t-63 156h135z" />
    <glyph glyph-name="ij" unicode="&#x133;" horiz-adv-x="566" 
d="M156 556q-35 0 -60.5 25t-25.5 59q0 36 25 60.5t61 24.5q35 0 59.5 -24.5t24.5 -60.5q0 -34 -25 -59t-59 -25zM434 556q-35 0 -60.5 25t-25.5 59q0 36 25 60.5t61 24.5q35 0 59.5 -24.5t24.5 -60.5q0 -34 -25 -59t-59 -25zM220 500v-500h-128v500h128zM246 -74
q28 -19 58 -19q27 0 46.5 18.5t19.5 43.5v531h126v-539q0 -74 -52.5 -120t-126.5 -46q-34 0 -64 10.5t-43 20.5l-12 11z" />
    <glyph glyph-name="Jcircumflex" unicode="&#x134;" horiz-adv-x="567" 
d="M419 823l-52 -68h-129l131 154h120l131 -154h-129l-52 68h-20zM364 230v470h133v-460q0 -121 -67 -183t-161 -62q-93 0 -156 59t-63 156h135q0 -29 22.5 -57.5t65.5 -28.5q44 0 67.5 31.5t23.5 74.5z" />
    <glyph glyph-name="jcircumflex" unicode="&#x135;" horiz-adv-x="368" 
d="M310 710l119 -154h-117l-48 68h-17l-48 -68h-117l119 154h109zM172 -31v531h126v-539q0 -74 -52.5 -120t-126.5 -46q-34 0 -64 10.5t-43 20.5l-12 11l48 89q28 -19 58 -19q27 0 46.5 18.5t19.5 43.5z" />
    <glyph glyph-name="Kcommaaccent" unicode="&#x136;" horiz-adv-x="650" 
d="M466 0l-204 295h-58v-295h-134v700h134v-275h56l177 275h153l-218 -340l248 -360h-154zM327 -44q35 0 54 -25t19 -68q0 -32 -10.5 -61t-26 -46.5t-31 -30t-26.5 -17.5l-10 -6l-27 28q51 43 59 90q-29 2 -52 18.5t-23 49.5q0 31 21.5 49.5t52.5 18.5z" />
    <glyph glyph-name="kcommaaccent" unicode="&#x137;" horiz-adv-x="570" 
d="M530 500l-198 -213l198 -287h-143l-138 197l-50 -54l-3 1v-144h-126v710h126v-380h20l161 170h153zM280 -42q33 0 51 -23.5t18 -65.5q0 -31 -10 -58t-24.5 -44t-29.5 -29.5t-25 -17.5l-10 -5l-26 27q48 42 56 87q-27 1 -49 16.5t-22 46.5q0 30 20.5 48t50.5 18z" />
    <glyph glyph-name="Lacute" unicode="&#x139;" horiz-adv-x="601" 
d="M304 890l-142 -135h-106l76 135h172zM210 131h341v-131h-481v700h140v-569z" />
    <glyph glyph-name="lacute" unicode="&#x13a;" horiz-adv-x="270" 
d="M264 900l-119 -135h-88l63 135h144zM70 0v710h130v-710h-130z" />
    <glyph glyph-name="Lcommaaccent" unicode="&#x13b;" horiz-adv-x="601" 
d="M210 131h341v-131h-481v700h140v-569zM300 -44q35 0 54 -25t19 -68q0 -32 -10.5 -61t-26 -46.5t-31 -30t-25.5 -17.5l-11 -6l-27 28q51 43 59 90q-29 2 -52 18.5t-23 49.5q0 31 21.5 49.5t52.5 18.5z" />
    <glyph glyph-name="lcommaaccent" unicode="&#x13c;" horiz-adv-x="270" 
d="M70 710h130v-710h-130v710zM126 -42q33 0 51 -23.5t18 -65.5q0 -31 -10 -58t-24.5 -44t-29.5 -29.5t-25 -17.5l-10 -5l-26 27q48 42 56 87q-27 1 -49 16.5t-22 46.5q0 30 20.5 48t50.5 18z" />
    <glyph glyph-name="Lcaron" unicode="&#x13d;" horiz-adv-x="601" 
d="M420 730l-66 -185h-84l28 185h122zM210 131h341v-131h-481v700h140v-569z" />
    <glyph glyph-name="lcaron" unicode="&#x13e;" horiz-adv-x="438" 
d="M70 0v710h130v-710h-130zM278 710h110l-36 -185h-88z" />
    <glyph glyph-name="Ldot" unicode="&#x13f;" horiz-adv-x="601" 
d="M210 131h341v-131h-481v700h140v-569zM376 281q-35 0 -60.5 25t-25.5 59q0 36 25 60.5t61 24.5q35 0 59.5 -24.5t24.5 -60.5q0 -34 -25 -59t-59 -25z" />
    <glyph glyph-name="ldot" unicode="&#x140;" horiz-adv-x="270" 
d="M70 0v710h130v-710h-130zM337 450q35 0 59.5 -24.5t24.5 -60.5q0 -34 -25 -59t-59 -25q-35 0 -60.5 25t-25.5 59q0 36 25 60.5t61 24.5z" />
    <glyph glyph-name="Lslash" unicode="&#x141;" horiz-adv-x="671" 
d="M280 131h341v-131h-481v260l-100 -59v127l100 59v313h140v-230l160 94v-127l-160 -94v-212z" />
    <glyph glyph-name="lslash" unicode="&#x142;" horiz-adv-x="336" 
d="M316 527v-118l-83 -50v-359h-130v282l-83 -50v118l83 50v310h130v-233z" />
    <glyph glyph-name="Nacute" unicode="&#x143;" horiz-adv-x="692" 
d="M342 890h172l-142 -135h-106zM491 700h131v-700h-131l-277 452h-13v-452h-131v700h132l277 -440h12v440z" />
    <glyph glyph-name="nacute" unicode="&#x144;" horiz-adv-x="610" 
d="M452 690l-119 -135h-88l63 135h144zM358 505q94 0 143 -63.5t49 -170.5v-271h-133v241l1 9q0 9 -0.5 16t-1 19.5t-3 22.5t-6 22.5t-10 22t-15 17.5t-21.5 13t-28 6q-20 1 -40.5 -5t-42 -21.5t-35 -48.5t-13.5 -79v-235h-132v500h102l17 -61h17q55 66 152 66z" />
    <glyph glyph-name="Ncommaaccent" unicode="&#x145;" horiz-adv-x="692" 
d="M491 700h131v-700h-131l-277 452h-13v-452h-131v700h132l277 -440h12v440zM346 -44q35 0 54 -25t19 -68q0 -32 -10.5 -61t-26 -46.5t-31 -30t-25.5 -17.5l-11 -6l-27 28q51 43 59 90q-29 2 -52 18.5t-23 49.5q0 31 21.5 49.5t52.5 18.5z" />
    <glyph glyph-name="ncommaaccent" unicode="&#x146;" horiz-adv-x="610" 
d="M358 505q94 0 143 -63.5t49 -170.5v-271h-133v241l1 9q0 9 -0.5 16t-1 19.5t-3 22.5t-6 22.5t-10 22t-15 17.5t-21.5 13t-28 6q-20 1 -40.5 -5t-42 -21.5t-35 -48.5t-13.5 -79v-235h-132v500h102l17 -61h17q55 66 152 66zM300 -42q33 0 51 -23.5t18 -65.5q0 -31 -10 -58
t-24.5 -44t-29.5 -29.5t-25 -17.5l-10 -5l-26 27q48 42 56 87q-27 1 -49 16.5t-22 46.5q0 30 20.5 48t50.5 18z" />
    <glyph glyph-name="Ncaron" unicode="&#x147;" horiz-adv-x="692" 
d="M406 755h-120l-131 154h129l52 -68h20l52 68h129zM491 700h131v-700h-131l-277 452h-13v-452h-131v700h132l277 -440h12v440z" />
    <glyph glyph-name="ncaron" unicode="&#x148;" horiz-adv-x="610" 
d="M366 556h-109l-119 154h117l48 -68h17l48 68h117zM358 505q94 0 143 -63.5t49 -170.5v-271h-133v241l1 9q0 9 -0.5 16t-1 19.5t-3 22.5t-6 22.5t-10 22t-15 17.5t-21.5 13t-28 6q-20 1 -40.5 -5t-42 -21.5t-35 -48.5t-13.5 -79v-235h-132v500h102l17 -61h17q55 66 152 66
z" />
    <glyph glyph-name="Eng" unicode="&#x14a;" horiz-adv-x="702" 
d="M622 12h10v-27q0 -96 -48.5 -142t-119.5 -46q-20 0 -42.5 3.5t-34.5 7.5l-12 4v109q5 -2 13.5 -4.5t30 -4.5t37.5 2t29.5 22t13.5 49v15h-8l-277 452h-13v-452h-131v700h132l277 -440h12v440h131v-688z" />
    <glyph glyph-name="eng" unicode="&#x14b;" horiz-adv-x="610" 
d="M358 505q94 0 143 -63.5t49 -170.5v-271v-15q0 -96 -48.5 -142t-119.5 -46q-20 0 -42.5 3.5t-34.5 7.5l-12 4v103q5 -2 13.5 -4.5t30 -4t37.5 3t29.5 23.5t13.5 52v27v229l1 9q0 9 -0.5 16t-1 19.5t-3 22.5t-6 22.5t-10 22t-15 17.5t-21.5 13t-28 6q-20 1 -40.5 -5
t-42 -21.5t-35 -48.5t-13.5 -79v-235h-132v500h102l17 -61h17q55 66 152 66z" />
    <glyph glyph-name="Omacron" unicode="&#x14c;" horiz-adv-x="764" 
d="M217 868h350v-95h-350v95zM383 -5q-140 0 -241.5 102t-101.5 253t101 253t241 102t241 -102t101 -253t-100.5 -253t-240.5 -102zM383 127q90 0 146.5 62.5t56.5 160.5t-57 160.5t-147 62.5t-146.5 -62.5t-56.5 -160.5t57 -160.5t147 -62.5z" />
    <glyph glyph-name="omacron" unicode="&#x14d;" horiz-adv-x="611" 
d="M131 660h350v-90h-350v90zM304 -5q-106 0 -180 70t-74 184q0 115 76.5 185.5t181.5 70.5t179 -70t74 -184q0 -115 -75.5 -185.5t-181.5 -70.5zM308 111q56 0 89 39.5t33 99.5t-33 99.5t-89 39.5t-91.5 -40t-35.5 -99t35.5 -99t91.5 -40z" />
    <glyph glyph-name="Obreve" unicode="&#x14e;" horiz-adv-x="764" 
d="M544 880q0 -56 -43.5 -94.5t-106.5 -38.5t-108 39t-45 94h102q0 -18 13.5 -32t37.5 -14q23 0 35.5 14t12.5 32h102zM383 -5q-140 0 -241.5 102t-101.5 253t101 253t241 102t241 -102t101 -253t-100.5 -253t-240.5 -102zM383 127q90 0 146.5 62.5t56.5 160.5t-57 160.5
t-147 62.5t-146.5 -62.5t-56.5 -160.5t57 -160.5t147 -62.5z" />
    <glyph glyph-name="obreve" unicode="&#x14f;" horiz-adv-x="611" 
d="M451 700q0 -53 -41.5 -90t-101.5 -37t-102.5 37t-42.5 90h97q0 -17 12.5 -30.5t35.5 -13.5q22 0 34 13t12 31h97zM304 -5q-106 0 -180 70t-74 184q0 115 76.5 185.5t181.5 70.5t179 -70t74 -184q0 -115 -75.5 -185.5t-181.5 -70.5zM308 111q56 0 89 39.5t33 99.5
t-33 99.5t-89 39.5t-91.5 -40t-35.5 -99t35.5 -99t91.5 -40z" />
    <glyph glyph-name="Ohungarumlaut" unicode="&#x150;" horiz-adv-x="764" 
d="M298 880h154l-124 -125h-105zM496 880h154l-124 -125h-105zM383 -5q-140 0 -241.5 102t-101.5 253t101 253t241 102t241 -102t101 -253t-100.5 -253t-240.5 -102zM383 127q90 0 146.5 62.5t56.5 160.5t-57 160.5t-147 62.5t-146.5 -62.5t-56.5 -160.5t57 -160.5
t147 -62.5z" />
    <glyph glyph-name="ohungarumlaut" unicode="&#x151;" horiz-adv-x="611" 
d="M219 680h140l-113 -125h-95zM399 680h140l-113 -125h-95zM304 -5q-106 0 -180 70t-74 184q0 115 76.5 185.5t181.5 70.5t179 -70t74 -184q0 -115 -75.5 -185.5t-181.5 -70.5zM308 111q56 0 89 39.5t33 99.5t-33 99.5t-89 39.5t-91.5 -40t-35.5 -99t35.5 -99t91.5 -40z
" />
    <glyph glyph-name="OE" unicode="&#x152;" horiz-adv-x="1137" 
d="M727 125h340v-125h-471v63q-87 -68 -203 -68q-140 0 -241.5 102t-101.5 253t101 253t241 102q117 0 204 -68v63h461v-125h-330v-158h300v-125h-300v-167zM393 127q90 0 146.5 62.5t56.5 160.5t-57 160.5t-147 62.5t-146.5 -62.5t-56.5 -160.5t57 -160.5t147 -62.5z" />
    <glyph glyph-name="oe" unicode="&#x153;" horiz-adv-x="972" 
d="M679 505q50 0 94.5 -17.5t80.5 -52t54.5 -92.5t12.5 -131h-365q10 -53 47.5 -78.5t83.5 -25.5q30 0 54.5 10.5t33.5 21.5l9 10h126q-28 -73 -90 -114t-137 -41q-114 0 -188 83q-74 -83 -191 -83q-106 0 -180 70t-74 184q0 115 76.5 185.5t181.5 70.5q115 0 185 -79
q73 79 186 79zM683 396q-41 0 -72.5 -22t-46.5 -61h225q-21 83 -106 83zM308 111q56 0 89 39.5t33 99.5t-33 99.5t-89 39.5t-91.5 -40t-35.5 -99t35.5 -99t91.5 -40z" />
    <glyph glyph-name="Racute" unicode="&#x154;" horiz-adv-x="627" 
d="M457 890l-142 -135h-106l76 135h172zM577 0h-148l-149 257h-83v-257h-127v700h247q91 0 154 -58t63 -157q0 -69 -35 -123t-91 -81zM197 575v-194h110q42 0 68.5 29t26.5 73q0 43 -26 67.5t-69 24.5h-110z" />
    <glyph glyph-name="racute" unicode="&#x155;" horiz-adv-x="430" 
d="M357 690l-119 -135h-88l63 135h144zM359 505h31v-128q-20 4 -44 4q-59 0 -101 -32t-42 -96v-253h-133v500h102l18 -55h16q60 60 153 60z" />
    <glyph glyph-name="Rcommaaccent" unicode="&#x156;" horiz-adv-x="627" 
d="M408 281l169 -281h-148l-149 257h-83v-257h-127v700h247q91 0 154 -58t63 -157q0 -69 -35 -123t-91 -81zM197 575v-194h110q42 0 68.5 29t26.5 73q0 43 -26 67.5t-69 24.5h-110zM303 -44q35 0 54 -25t19 -68q0 -32 -10.5 -61t-26 -46.5t-31 -30t-26.5 -17.5l-10 -6
l-27 28q51 43 59 90q-29 2 -52 18.5t-23 49.5q0 31 21.5 49.5t52.5 18.5z" />
    <glyph glyph-name="rcommaaccent" unicode="&#x157;" horiz-adv-x="430" 
d="M359 505h31v-128q-20 4 -44 4q-59 0 -101 -32t-42 -96v-253h-133v500h102l18 -55h16q60 60 153 60zM128 -42q33 0 51 -23.5t18 -65.5q0 -31 -10 -58t-24.5 -44t-29.5 -29.5t-25 -17.5l-10 -5l-26 27q48 42 56 87q-27 1 -49 16.5t-22 46.5q0 30 20.5 48t50.5 18z" />
    <glyph glyph-name="Rcaron" unicode="&#x158;" horiz-adv-x="627" 
d="M350 755h-120l-131 154h129l52 -68h20l52 68h129zM577 0h-148l-149 257h-83v-257h-127v700h247q91 0 154 -58t63 -157q0 -69 -35 -123t-91 -81zM197 575v-194h110q42 0 68.5 29t26.5 73q0 43 -26 67.5t-69 24.5h-110z" />
    <glyph glyph-name="rcaron" unicode="&#x159;" horiz-adv-x="430" 
d="M286 556h-109l-119 154h117l48 -68h17l48 68h117zM206 445q60 60 153 60h31v-128q-20 4 -44 4q-59 0 -101 -32t-42 -96v-253h-133v500h102l18 -55h16z" />
    <glyph glyph-name="Sacute" unicode="&#x15a;" horiz-adv-x="593" 
d="M304 890h172l-142 -135h-106zM543 195q0 -94 -67 -147t-167 -53q-114 0 -186.5 66t-72.5 165h130q8 -58 46.5 -82.5t81.5 -24.5q22 0 42.5 5t40 23.5t19.5 48.5q0 21 -9 37.5t-27.5 29.5t-34.5 20.5t-43 17.5q-104 41 -142 67q-85 58 -85 148q0 86 65.5 138t162.5 52
q103 0 164.5 -57t61.5 -129h-128q-5 29 -33.5 46.5t-66.5 17.5t-63 -18t-25 -50q0 -16 6 -27.5t23.5 -23t31 -18.5t46.5 -22q8 -4 41.5 -17.5t51.5 -22t48 -28.5t46 -40t29 -52t13 -70z" />
    <glyph glyph-name="sacute" unicode="&#x15b;" horiz-adv-x="508" 
d="M256 690h144l-119 -135h-88zM335 353q-11 46 -71 46q-30 0 -45 -12.5t-15 -29.5q0 -35 75 -50q40 -9 66.5 -17.5t55 -25t43 -44t14.5 -65.5q0 -75 -53.5 -117.5t-134.5 -42.5q-87 0 -146.5 48.5t-63.5 127.5h123q3 -28 23 -48.5t61 -20.5q63 0 63 48q0 25 -18 36.5
t-51 19.5q-26 6 -35.5 8.5t-38 11t-43 18.5t-33.5 25.5t-27.5 38t-8.5 49.5q0 70 56.5 109t134.5 39q82 0 134.5 -43.5t57.5 -108.5h-123z" />
    <glyph glyph-name="Scircumflex" unicode="&#x15c;" horiz-adv-x="593" 
d="M286 823l-52 -68h-129l131 154h120l131 -154h-129l-52 68h-20zM314 425q8 -4 41.5 -17.5t51.5 -22t48 -28.5t46 -40t29 -52t13 -70q0 -94 -67 -147t-167 -53q-114 0 -186.5 66t-72.5 165h130q8 -58 46.5 -82.5t81.5 -24.5q22 0 42.5 5t40 23.5t19.5 48.5q0 21 -9 37.5
t-27.5 29.5t-34.5 20.5t-43 17.5q-104 41 -142 67q-85 58 -85 148q0 86 65.5 138t162.5 52q103 0 164.5 -57t61.5 -129h-128q-5 29 -33.5 46.5t-66.5 17.5t-63 -18t-25 -50q0 -16 6 -27.5t23.5 -23t31 -18.5t46.5 -22z" />
    <glyph glyph-name="scircumflex" unicode="&#x15d;" horiz-adv-x="508" 
d="M251 624l-48 -68h-117l119 154h109l119 -154h-117l-48 68h-17zM279 307q40 -9 66.5 -17.5t55 -25t43 -44t14.5 -65.5q0 -75 -53.5 -117.5t-134.5 -42.5q-87 0 -146.5 48.5t-63.5 127.5h123q3 -28 23 -48.5t61 -20.5q63 0 63 48q0 25 -18 36.5t-51 19.5q-26 6 -35.5 8.5
t-38 11t-43 18.5t-33.5 25.5t-27.5 38t-8.5 49.5q0 70 56.5 109t134.5 39q82 0 134.5 -43.5t57.5 -108.5h-123q-11 46 -71 46q-30 0 -45 -12.5t-15 -29.5q0 -35 75 -50z" />
    <glyph glyph-name="Scedilla" unicode="&#x15e;" horiz-adv-x="593" 
d="M543 195q0 -84 -54 -135.5t-139 -62.5l-18 -30q36 8 65.5 -14t29.5 -63q0 -40 -30.5 -67.5t-82.5 -27.5q-24 0 -45.5 6.5t-34 16t-22 19t-12.5 15.5l-4 7l63 34q17 -29 51 -29q15 0 23.5 7.5t8.5 16.5q0 10 -8 18t-24 8q-9 0 -17 -3t-12 -5l-4 -3l-47 49l32 46
q-95 14 -153.5 77t-58.5 151h130q8 -58 46.5 -82.5t81.5 -24.5q22 0 42.5 5t40 23.5t19.5 48.5q0 21 -9 37.5t-27.5 29.5t-34.5 20.5t-43 17.5q-104 41 -142 67q-85 58 -85 148q0 86 65.5 138t162.5 52q103 0 164.5 -57t61.5 -129h-128q-5 29 -33.5 46.5t-66.5 17.5t-63 -18
t-25 -50q0 -16 6 -27.5t23.5 -23t31 -18.5t46.5 -22q8 -4 41.5 -17.5t51.5 -22t48 -28.5t46 -40t29 -52t13 -70z" />
    <glyph glyph-name="scedilla" unicode="&#x15f;" horiz-adv-x="508" 
d="M279 307q40 -9 66.5 -17.5t55 -25t43 -44t14.5 -65.5q0 -64 -40 -105t-105 -51l-23 -40q34 8 62.5 -13.5t28.5 -59.5t-29 -64.5t-79 -26.5q-37 0 -65 15.5t-38 30.5l-9 15l60 33q16 -28 48 -28q15 0 23 7t8 16q0 10 -8 17.5t-23 7.5q-8 0 -16 -2.5t-11 -5.5l-4 -3l-45 47
l36 53q-72 11 -118.5 57.5t-50.5 115.5h123q3 -28 23 -48.5t61 -20.5q63 0 63 48q0 25 -18 36.5t-51 19.5q-26 6 -35.5 8.5t-38 11t-43 18.5t-33.5 25.5t-27.5 38t-8.5 49.5q0 70 56.5 109t134.5 39q82 0 134.5 -43.5t57.5 -108.5h-123q-11 46 -71 46q-30 0 -45 -12.5
t-15 -29.5q0 -35 75 -50z" />
    <glyph glyph-name="Scaron" unicode="&#x160;" horiz-adv-x="593" 
d="M357 755h-120l-131 154h129l52 -68h20l52 68h129zM314 425q8 -4 41.5 -17.5t51.5 -22t48 -28.5t46 -40t29 -52t13 -70q0 -94 -67 -147t-167 -53q-114 0 -186.5 66t-72.5 165h130q8 -58 46.5 -82.5t81.5 -24.5q22 0 42.5 5t40 23.5t19.5 48.5q0 21 -9 37.5t-27.5 29.5
t-34.5 20.5t-43 17.5q-104 41 -142 67q-85 58 -85 148q0 86 65.5 138t162.5 52q103 0 164.5 -57t61.5 -129h-128q-5 29 -33.5 46.5t-66.5 17.5t-63 -18t-25 -50q0 -16 6 -27.5t23.5 -23t31 -18.5t46.5 -22z" />
    <glyph glyph-name="scaron" unicode="&#x161;" horiz-adv-x="508" 
d="M314 556h-109l-119 154h117l48 -68h17l48 68h117zM279 307q40 -9 66.5 -17.5t55 -25t43 -44t14.5 -65.5q0 -75 -53.5 -117.5t-134.5 -42.5q-87 0 -146.5 48.5t-63.5 127.5h123q3 -28 23 -48.5t61 -20.5q63 0 63 48q0 25 -18 36.5t-51 19.5q-26 6 -35.5 8.5t-38 11
t-43 18.5t-33.5 25.5t-27.5 38t-8.5 49.5q0 70 56.5 109t134.5 39q82 0 134.5 -43.5t57.5 -108.5h-123q-11 46 -71 46q-30 0 -45 -12.5t-15 -29.5q0 -35 75 -50z" />
    <glyph glyph-name="uni0162" unicode="&#x162;" horiz-adv-x="552" 
d="M343 0h-49l-19 -33q36 8 65.5 -14t29.5 -63q0 -40 -30.5 -67.5t-82.5 -27.5q-24 0 -45.5 6.5t-34 16t-22 19t-13.5 15.5l-3 7l63 34q17 -29 51 -29q15 0 23.5 7.5t8.5 16.5q0 10 -8 18t-24 8q-9 0 -17 -3t-12 -5l-4 -3l-47 49l36 53v571h-189v124h512v-124h-189v-576z
" />
    <glyph glyph-name="uni0163" unicode="&#x163;" horiz-adv-x="498" 
d="M322 -41q34 8 62.5 -13.5t28.5 -59.5t-29 -64.5t-79 -26.5q-37 0 -65 15.5t-38 30.5l-9 15l60 33q16 -28 48 -28q15 0 23 7t8 16q0 10 -8 17.5t-23 7.5q-8 0 -16 -2.5t-11 -5.5l-4 -3l-45 47l41 60q-52 17 -84 58t-32 98v232h-100v98h50q26 0 41.5 16t15.5 43v100h121
v-150h126v-107h-126v-224q0 -25 18.5 -42.5t45.5 -17.5q13 0 27.5 4.5t22.5 8.5l8 4l48 -89q-37 -37 -105 -42z" />
    <glyph glyph-name="Tcaron" unicode="&#x164;" horiz-adv-x="552" 
d="M335 755h-120l-131 154h129l52 -68h20l52 68h129zM532 700v-124h-189v-576h-134v576h-189v124h512z" />
    <glyph glyph-name="tcaron" unicode="&#x165;" horiz-adv-x="537" 
d="M477 710l-56 -145h-84l34 145h106zM342 109q13 0 27.5 4.5t22.5 8.5l8 4l48 -89q-5 -5 -14 -12t-40 -18.5t-65 -11.5q-74 0 -126.5 46t-52.5 120v232h-100v98h50q26 0 41.5 16t15.5 43v100h121v-150h126v-107h-126v-224q0 -25 18.5 -42.5t45.5 -17.5z" />
    <glyph glyph-name="Tbar" unicode="&#x166;" horiz-adv-x="552" 
d="M532 576h-189v-96h120v-107h-120v-373h-134v373h-120v107h120v96h-189v124h512v-124z" />
    <glyph glyph-name="tbar" unicode="&#x167;" horiz-adv-x="498" 
d="M400 126l48 -89q-5 -5 -14 -12t-40 -18.5t-65 -11.5q-74 0 -126.5 46t-52.5 120v72h-100v97h100v63h-100v98h50q26 0 41.5 16t15.5 43v100h121v-150h126v-107h-126v-63h126v-97h-126v-64q0 -25 18.5 -42.5t45.5 -17.5q13 0 27.5 4.5t22.5 8.5z" />
    <glyph glyph-name="Utilde" unicode="&#x168;" horiz-adv-x="684" 
d="M548 830q-2 -5 -6 -13t-17.5 -28t-30 -34t-43.5 -23.5t-57 -3.5q-28 5 -67.5 28t-56.5 24q-17 2 -32 -9.5t-21 -23.5l-6 -12l-76 49q2 5 6 13t17.5 28.5t29.5 35t43 23.5t57 4q28 -5 67 -28.5t55 -24.5q17 -1 32.5 10.5t22.5 23.5l7 12zM624 700v-400q0 -153 -78.5 -229
t-202.5 -76t-203.5 76t-79.5 229v400h139v-390q0 -87 36.5 -135t107.5 -48t106.5 48t35.5 135v390h139z" />
    <glyph glyph-name="utilde" unicode="&#x169;" horiz-adv-x="618" 
d="M245 584q-16 1 -29.5 -9t-19.5 -21l-5 -11l-69 44q2 5 5.5 12t16 25.5t27 32t39 22t51.5 3.5q26 -5 61 -26t50 -22q16 -1 30 9t20 21l6 11l69 -46q-2 -5 -5.5 -12t-16 -25.5t-27 -31t-39.5 -21t-52 -3.5q-26 5 -61.5 26t-50.5 22zM413 500h135v-500h-100l-18 56h-13
q-49 -61 -146 -61t-149 63t-52 171v271h136v-241q0 -30 2.5 -50.5t10.5 -45.5t28 -38.5t50 -13.5q19 0 37 6t37 21.5t30.5 48t11.5 78.5v235z" />
    <glyph glyph-name="Umacron" unicode="&#x16a;" horiz-adv-x="684" 
d="M167 868h350v-95h-350v95zM624 700v-400q0 -153 -78.5 -229t-202.5 -76t-203.5 76t-79.5 229v400h139v-390q0 -87 36.5 -135t107.5 -48t106.5 48t35.5 135v390h139z" />
    <glyph glyph-name="umacron" unicode="&#x16b;" horiz-adv-x="618" 
d="M484 660v-90h-350v90h350zM413 500h135v-500h-100l-18 56h-13q-49 -61 -146 -61t-149 63t-52 171v271h136v-241q0 -30 2.5 -50.5t10.5 -45.5t28 -38.5t50 -13.5q19 0 37 6t37 21.5t30.5 48t11.5 78.5v235z" />
    <glyph glyph-name="Ubreve" unicode="&#x16c;" horiz-adv-x="684" 
d="M494 880q0 -56 -43.5 -94.5t-106.5 -38.5t-108 39t-45 94h102q0 -18 13.5 -32t37.5 -14q23 0 35.5 14t12.5 32h102zM624 700v-400q0 -153 -78.5 -229t-202.5 -76t-203.5 76t-79.5 229v400h139v-390q0 -87 36.5 -135t107.5 -48t106.5 48t35.5 135v390h139z" />
    <glyph glyph-name="ubreve" unicode="&#x16d;" horiz-adv-x="618" 
d="M311 573q-60 0 -102.5 37t-42.5 90h97q0 -17 12.5 -30.5t35.5 -13.5q22 0 34 13t12 31h97q0 -53 -41.5 -90t-101.5 -37zM413 500h135v-500h-100l-18 56h-13q-49 -61 -146 -61t-149 63t-52 171v271h136v-241q0 -30 2.5 -50.5t10.5 -45.5t28 -38.5t50 -13.5q19 0 37 6
t37 21.5t30.5 48t11.5 78.5v235z" />
    <glyph glyph-name="Uring" unicode="&#x16e;" horiz-adv-x="684" 
d="M340 680q-50 0 -85 35t-35 85t35 85t85 35t86 -35.5t36 -84.5t-36 -84.5t-86 -35.5zM341 768q13 0 22 9.5t9 22.5t-9 22.5t-22 9.5t-22 -9.5t-9 -22.5t9 -22.5t22 -9.5zM624 700v-400q0 -153 -78.5 -229t-202.5 -76t-203.5 76t-79.5 229v400h139v-390q0 -87 36.5 -135
t107.5 -48t106.5 48t35.5 135v390h139z" />
    <glyph glyph-name="uring" unicode="&#x16f;" horiz-adv-x="618" 
d="M308 530q-41 0 -70.5 29.5t-29.5 70.5t29.5 70.5t70.5 29.5t71.5 -29.5t30.5 -70.5t-30.5 -70.5t-71.5 -29.5zM309 657q-11 0 -18.5 -8t-7.5 -19t7.5 -19t18.5 -8q10 0 18 8t8 19t-8 19t-18 8zM413 500h135v-500h-100l-18 56h-13q-49 -61 -146 -61t-149 63t-52 171v271
h136v-241q0 -30 2.5 -50.5t10.5 -45.5t28 -38.5t50 -13.5q19 0 37 6t37 21.5t30.5 48t11.5 78.5v235z" />
    <glyph glyph-name="Uhungarumlaut" unicode="&#x170;" horiz-adv-x="684" 
d="M243 880h154l-124 -125h-105zM441 880h154l-124 -125h-105zM624 700v-400q0 -153 -78.5 -229t-202.5 -76t-203.5 76t-79.5 229v400h139v-390q0 -87 36.5 -135t107.5 -48t106.5 48t35.5 135v390h139z" />
    <glyph glyph-name="uhungarumlaut" unicode="&#x171;" horiz-adv-x="618" 
d="M352 680l-113 -125h-95l68 125h140zM419 555h-95l68 125h140zM413 500h135v-500h-100l-18 56h-13q-49 -61 -146 -61t-149 63t-52 171v271h136v-241q0 -30 2.5 -50.5t10.5 -45.5t28 -38.5t50 -13.5q19 0 37 6t37 21.5t30.5 48t11.5 78.5v235z" />
    <glyph glyph-name="Uogonek" unicode="&#x172;" horiz-adv-x="684" 
d="M485 700h139v-400q0 -136 -62.5 -211t-165.5 -90q-34 -26 -34 -64q0 -26 17 -37.5t37.5 -10t38.5 9.5l4 -84q-25 -18 -71 -18q-53 0 -87 29t-34 81t34 92q-108 13 -174.5 88.5t-66.5 214.5v400h139v-390q0 -87 36.5 -135t107.5 -48t106.5 48t35.5 135v390z" />
    <glyph glyph-name="uogonek" unicode="&#x173;" horiz-adv-x="618" 
d="M584 -109l3 -80q-23 -17 -67 -17q-50 0 -82.5 27.5t-32.5 77.5q0 58 43 101l-18 56h-13q-49 -61 -146 -61t-149 63t-52 171v271h136v-241q0 -30 2.5 -50.5t10.5 -45.5t28 -38.5t50 -13.5q19 0 37 6t37 21.5t30.5 48t11.5 78.5v235h135v-500h-2q-6 -2 -14.5 -7
t-22.5 -23.5t-14 -41.5q0 -25 16.5 -36t35.5 -9.5t37 8.5z" />
    <glyph glyph-name="Wcircumflex" unicode="&#x174;" horiz-adv-x="963" 
d="M466 823l-52 -68h-129l131 154h120l131 -154h-129l-52 68h-20zM791 700h137l-148 -700h-209l-80 452h-21l-88 -452h-209l-138 700h137l102 -547h21l98 497h177l91 -497h21z" />
    <glyph glyph-name="wcircumflex" unicode="&#x175;" horiz-adv-x="850" 
d="M422 624l-48 -68h-117l119 154h109l119 -154h-117l-48 68h-17zM667 500h128l-119 -500h-176l-68 292h-14l-68 -292h-176l-119 500h128l77 -349h17l69 309h158l70 -309h16z" />
    <glyph glyph-name="Ycircumflex" unicode="&#x176;" horiz-adv-x="639" 
d="M306 823l-52 -68h-129l131 154h120l131 -154h-129l-52 68h-20zM450 700h159l-220 -349v-351h-139v351l-220 349h158l125 -214h12z" />
    <glyph glyph-name="ycircumflex" unicode="&#x177;" horiz-adv-x="621" 
d="M300 624l-48 -68h-117l119 154h109l119 -154h-117l-48 68h-17zM447 500h134l-174 -519q-12 -35 -18.5 -52.5t-24.5 -47.5t-37.5 -45.5t-54 -28t-77.5 -12.5q-60 0 -98 17.5t-54 37.5l63 89q31 -31 78 -31q64 0 81 51l14 41h-67l-172 500h139l126 -364h20z" />
    <glyph glyph-name="Ydieresis" unicode="&#x178;" horiz-adv-x="639" 
d="M191 749q-34 0 -58.5 24t-24.5 58q0 35 24.5 59t58.5 24t58 -24t24 -59q0 -34 -24 -58t-58 -24zM431 749q-34 0 -58.5 24t-24.5 58q0 35 24.5 59t58.5 24t58 -24t24 -59q0 -34 -24 -58t-58 -24zM450 700h159l-220 -349v-351h-139v351l-220 349h158l125 -214h12z" />
    <glyph glyph-name="Zacute" unicode="&#x179;" horiz-adv-x="611" 
d="M493 890l-142 -135h-106l76 135h172zM232 131h329v-131h-511v102l324 468h-304v130h481v-101z" />
    <glyph glyph-name="zacute" unicode="&#x17a;" horiz-adv-x="545" 
d="M419 690l-119 -135h-88l63 135h144zM234 112h251v-112h-425v66l241 322h-231v112h405v-66z" />
    <glyph glyph-name="Zdotaccent" unicode="&#x17b;" horiz-adv-x="611" 
d="M307 745q-35 0 -60.5 25t-25.5 59q0 36 25 60.5t61 24.5q35 0 59.5 -24.5t24.5 -60.5q0 -34 -25 -59t-59 -25zM232 131h329v-131h-511v102l324 468h-304v130h481v-101z" />
    <glyph glyph-name="zdotaccent" unicode="&#x17c;" horiz-adv-x="545" 
d="M272 556q-35 0 -60.5 25t-25.5 59q0 36 25 60.5t61 24.5q35 0 59.5 -24.5t24.5 -60.5q0 -34 -25 -59t-59 -25zM234 112h251v-112h-425v66l241 322h-231v112h405v-66z" />
    <glyph glyph-name="Zcaron" unicode="&#x17d;" horiz-adv-x="611" 
d="M365 755h-120l-131 154h129l52 -68h20l52 68h129zM232 131h329v-131h-511v102l324 468h-304v130h481v-101z" />
    <glyph glyph-name="zcaron" unicode="&#x17e;" horiz-adv-x="545" 
d="M325 556h-109l-119 154h117l48 -68h17l48 68h117zM234 112h251v-112h-425v66l241 322h-231v112h405v-66z" />
    <glyph glyph-name="florin" unicode="&#x192;" horiz-adv-x="556" 
d="M445 602q-60 0 -69 -58l-17 -105h95l-17 -101h-94l-70 -420q-11 -59 -54.5 -91t-110.5 -32q-24 0 -46 4t-32 8l-10 4l23 105q22 -8 51 -8q59 0 68 48l64 382h-96l17 101h95l23 143q9 54 54.5 88.5t110.5 34.5q22 0 43.5 -4t32.5 -8l10 -4l-20 -96q-26 9 -51 9z" />
    <glyph glyph-name="uni01CD" unicode="&#x1cd;" horiz-adv-x="668" 
d="M394 755h-120l-131 154h129l52 -68h20l52 68h129zM422 700l236 -700h-144l-49 153h-262l-49 -153h-144l236 700h176zM243 277h182l-79 243h-24z" />
    <glyph glyph-name="uni01CE" unicode="&#x1ce;" horiz-adv-x="569" 
d="M332 556h-109l-119 154h117l48 -68h17l48 68h117zM480 168q0 -41 14.5 -56.5t44.5 -15.5v-96h-30q-91 0 -116 64q-50 -69 -158 -69q-85 0 -135 40t-50 108q0 37 15.5 66.5t44.5 47.5t57.5 30t69.5 18.5t65 8.5t57 4q-3 79 -85 79q-20 0 -35 -4.5t-22.5 -10.5t-12 -12.5
t-5.5 -11.5l-1 -4h-125q7 68 60.5 109.5t143.5 41.5q94 0 148.5 -50t54.5 -154v-133zM176 147q0 -36 42 -46q49 -12 93 20q43 31 46 89v10q-29 -3 -45.5 -5.5l-41 -6.5t-38.5 -9t-28.5 -12t-21 -17t-6.5 -23z" />
    <glyph glyph-name="uni01CF" unicode="&#x1cf;" horiz-adv-x="279" 
d="M199 755h-120l-131 154h129l52 -68h20l52 68h129zM70 0v700h139v-700h-139z" />
    <glyph glyph-name="uni01D0" unicode="&#x1d0;" horiz-adv-x="248" 
d="M180 556h-109l-119 154h117l48 -68h17l48 68h117zM70 0v500h128v-500h-128z" />
    <glyph glyph-name="uni01D1" unicode="&#x1d1;" horiz-adv-x="764" 
d="M451 755h-120l-131 154h129l52 -68h20l52 68h129zM382 705q140 0 241 -102t101 -253t-100.5 -253t-240.5 -102t-241.5 102t-101.5 253t101 253t241 102zM383 127q90 0 146.5 62.5t56.5 160.5t-57 160.5t-147 62.5t-146.5 -62.5t-56.5 -160.5t57 -160.5t147 -62.5z" />
    <glyph glyph-name="uni01D2" unicode="&#x1d2;" horiz-adv-x="611" 
d="M360 556h-109l-119 154h117l48 -68h17l48 68h117zM308 505q105 0 179 -70t74 -184q0 -115 -75.5 -185.5t-181.5 -70.5t-180 70t-74 184q0 115 76.5 185.5t181.5 70.5zM308 111q56 0 89 39.5t33 99.5t-33 99.5t-89 39.5t-91.5 -40t-35.5 -99t35.5 -99t91.5 -40z" />
    <glyph glyph-name="uni01D3" unicode="&#x1d3;" horiz-adv-x="684" 
d="M401 755h-120l-131 154h129l52 -68h20l52 68h129zM485 700h139v-400q0 -153 -78.5 -229t-202.5 -76t-203.5 76t-79.5 229v400h139v-390q0 -87 36.5 -135t107.5 -48t106.5 48t35.5 135v390z" />
    <glyph glyph-name="uni01D4" unicode="&#x1d4;" horiz-adv-x="618" 
d="M364 556h-109l-119 154h117l48 -68h17l48 68h117zM413 500h135v-500h-100l-18 56h-13q-49 -61 -146 -61t-149 63t-52 171v271h136v-241q0 -30 2.5 -50.5t10.5 -45.5t28 -38.5t50 -13.5q19 0 37 6t37 21.5t30.5 48t11.5 78.5v235z" />
    <glyph glyph-name="uni01E2" unicode="&#x1e2;" horiz-adv-x="1040" 
d="M876 868v-95h-350v95h350zM610 125h340v-125h-471v153h-223l-97 -153h-149l443 700h151h336v-125h-330v-158h300v-125h-300v-167zM335 277h144v201h-16z" />
    <glyph glyph-name="uni01E3" unicode="&#x1e3;" horiz-adv-x="900" 
d="M625 660v-90h-350v90h350zM607 505q50 0 94.5 -17.5t80.5 -52t54.5 -92.5t12.5 -131h-365q10 -53 47.5 -78.5t83.5 -25.5q30 0 54.5 10.5t33.5 21.5l9 10h126q-28 -73 -90 -114t-137 -41q-121 0 -197 92q-49 -92 -179 -92q-85 0 -135 40t-50 108q0 37 15.5 66.5
t44.5 47.5t57.5 30t69.5 18.5t65 8.5t57 4q-3 79 -85 79q-20 0 -35 -4.5t-22.5 -10.5t-12 -12.5t-5.5 -11.5l-1 -4h-125q7 68 60.5 109.5t143.5 41.5q109 0 161 -63q69 63 169 63zM611 396q-41 0 -72.5 -22t-46.5 -61h225q-21 83 -106 83zM176 147q0 -36 42 -46
q49 -12 93 20q43 31 46 89v10q-29 -3 -45.5 -5.5l-41 -6.5t-38.5 -9t-28.5 -12t-21 -17t-6.5 -23z" />
    <glyph glyph-name="Gcaron" unicode="&#x1e6;" horiz-adv-x="733" 
d="M433 755h-120l-131 154h129l52 -68h20l52 68h129zM393 382h280v-382h-93l-15 59h-13q-60 -64 -177 -64q-140 0 -232.5 101t-92.5 255t92.5 254t238.5 100q64 0 117 -21t83.5 -51.5t51 -60.5t27.5 -51l8 -21h-150q-1 3 -4 8.5t-14 19t-25 23.5t-39 18.5t-55 8.5
q-87 0 -141.5 -64t-54.5 -164q0 -101 55.5 -164t147.5 -63q114 0 155 80v61h-150v118z" />
    <glyph glyph-name="gcaron" unicode="&#x1e7;" horiz-adv-x="575" 
d="M341 556h-109l-119 154h117l48 -68h17l48 68h117zM349 119q79 0 121.5 -46t40.5 -113q-3 -81 -67 -123t-159 -42q-114 0 -176.5 57.5t-44.5 139.5l57 46q-53 33 -53 88q0 56 62 89q-51 47 -51 120q0 74 54 122.5t146 48.5q66 0 114 -25q24 11 45.5 27.5t30.5 27.5l9 10
l62 -83q-34 -23 -80 -37q29 -40 29 -90q0 -72 -60 -121.5t-153 -49.5q-40 0 -71 9q-15 -9 -15 -25q0 -7 3 -13t9 -9t12 -5t16 -2.5t16 -0.5h17.5h15.5h70zM284 400q-42 0 -63.5 -17t-21.5 -46q0 -30 21.5 -48t63.5 -18q41 0 63 18t22 48q0 29 -22 46t-63 17zM287 -89
q48 0 74.5 14.5t26.5 38.5q0 48 -78 48q-67 0 -96 1l-34 -36q-6 -23 20.5 -44.5t86.5 -21.5z" />
    <glyph glyph-name="uni01E8" unicode="&#x1e8;" horiz-adv-x="650" 
d="M381 755h-120l-131 154h129l52 -68h20l52 68h129zM372 360l248 -360h-154l-204 295h-58v-295h-134v700h134v-275h56l177 275h153z" />
    <glyph glyph-name="uni01EA" unicode="&#x1ea;" horiz-adv-x="764" 
d="M454 3q-39 -27 -39 -68q0 -26 17 -37.5t37.5 -10t38.5 9.5l4 -84q-25 -18 -71 -18q-53 0 -87 29t-34 81q0 50 33 91q-131 12 -222 111.5t-91 242.5q0 151 101 253t241 102t241 -102t101 -253q0 -131 -77 -226.5t-193 -120.5zM179 350q0 -98 57 -160.5t147 -62.5
t146.5 62.5t56.5 160.5t-57 160.5t-147 62.5t-146.5 -62.5t-56.5 -160.5z" />
    <glyph glyph-name="uni01EB" unicode="&#x1eb;" horiz-adv-x="611" 
d="M351 -1q-49 -25 -49 -71q0 -25 16.5 -36t35.5 -9.5t37 8.5l3 -80q-23 -17 -67 -17q-50 0 -82.5 27.5t-32.5 77.5q0 56 42 100q-88 16 -146 83t-58 167q0 115 76.5 185.5t181.5 70.5t179 -70t74 -184q0 -101 -60 -168.5t-150 -83.5zM181 250q0 -59 35.5 -99t91.5 -40
t89 39.5t33 99.5t-33 99.5t-89 39.5t-91.5 -40t-35.5 -99z" />
    <glyph glyph-name="uni01F4" unicode="&#x1f4;" horiz-adv-x="733" 
d="M564 890l-142 -135h-106l76 135h172zM393 382h280v-382h-93l-15 59h-13q-60 -64 -177 -64q-140 0 -232.5 101t-92.5 255t92.5 254t238.5 100q64 0 117 -21t83.5 -51.5t51 -60.5t27.5 -51l8 -21h-150q-1 3 -4 8.5t-14 19t-25 23.5t-39 18.5t-55 8.5q-87 0 -141.5 -64
t-54.5 -164q0 -101 55.5 -164t147.5 -63q114 0 155 80v61h-150v118z" />
    <glyph glyph-name="uni01F5" unicode="&#x1f5;" horiz-adv-x="575" 
d="M449 690l-119 -135h-88l63 135h144zM349 119q79 0 121.5 -46t40.5 -113q-3 -81 -67 -123t-159 -42q-114 0 -176.5 57.5t-44.5 139.5l57 46q-53 33 -53 88q0 56 62 89q-51 47 -51 120q0 74 54 122.5t146 48.5q66 0 114 -25q24 11 45.5 27.5t30.5 27.5l9 10l62 -83
q-34 -23 -80 -37q29 -40 29 -90q0 -72 -60 -121.5t-153 -49.5q-40 0 -71 9q-15 -9 -15 -25q0 -7 3 -13t9 -9t12 -5t16 -2.5t16 -0.5h17.5h15.5h70zM284 400q-42 0 -63.5 -17t-21.5 -46q0 -30 21.5 -48t63.5 -18q41 0 63 18t22 48q0 29 -22 46t-63 17zM287 -89
q48 0 74.5 14.5t26.5 38.5q0 48 -78 48q-67 0 -96 1l-34 -36q-6 -23 20.5 -44.5t86.5 -21.5z" />
    <glyph glyph-name="uni01F8" unicode="&#x1f8;" horiz-adv-x="692" 
d="M363 890l76 -135h-106l-142 135h172zM491 700h131v-700h-131l-277 452h-13v-452h-131v700h132l277 -440h12v440z" />
    <glyph glyph-name="uni01F9" unicode="&#x1f9;" horiz-adv-x="610" 
d="M396 555h-88l-119 135h144zM358 505q94 0 143 -63.5t49 -170.5v-271h-133v241l1 9q0 9 -0.5 16t-1 19.5t-3 22.5t-6 22.5t-10 22t-15 17.5t-21.5 13t-28 6q-20 1 -40.5 -5t-42 -21.5t-35 -48.5t-13.5 -79v-235h-132v500h102l17 -61h17q55 66 152 66z" />
    <glyph glyph-name="AEacute" unicode="&#x1fc;" horiz-adv-x="1040" 
d="M867 890l-142 -135h-106l76 135h172zM610 125h340v-125h-471v153h-223l-97 -153h-149l443 700h151h336v-125h-330v-158h300v-125h-300v-167zM335 277h144v201h-16z" />
    <glyph glyph-name="aeacute" unicode="&#x1fd;" horiz-adv-x="900" 
d="M600 690l-119 -135h-88l63 135h144zM607 505q50 0 94.5 -17.5t80.5 -52t54.5 -92.5t12.5 -131h-365q10 -53 47.5 -78.5t83.5 -25.5q30 0 54.5 10.5t33.5 21.5l9 10h126q-28 -73 -90 -114t-137 -41q-121 0 -197 92q-49 -92 -179 -92q-85 0 -135 40t-50 108q0 37 15.5 66.5
t44.5 47.5t57.5 30t69.5 18.5t65 8.5t57 4q-3 79 -85 79q-20 0 -35 -4.5t-22.5 -10.5t-12 -12.5t-5.5 -11.5l-1 -4h-125q7 68 60.5 109.5t143.5 41.5q109 0 161 -63q69 63 169 63zM611 396q-41 0 -72.5 -22t-46.5 -61h225q-21 83 -106 83zM176 147q0 -36 42 -46
q49 -12 93 20q43 31 46 89v10q-29 -3 -45.5 -5.5l-41 -6.5t-38.5 -9t-28.5 -12t-21 -17t-6.5 -23z" />
    <glyph glyph-name="Scommaaccent" unicode="&#x218;" horiz-adv-x="593" 
d="M543 195q0 -94 -67 -147t-167 -53q-114 0 -186.5 66t-72.5 165h130q8 -58 46.5 -82.5t81.5 -24.5q22 0 42.5 5t40 23.5t19.5 48.5q0 21 -9 37.5t-27.5 29.5t-34.5 20.5t-43 17.5q-104 41 -142 67q-85 58 -85 148q0 86 65.5 138t162.5 52q103 0 164.5 -57t61.5 -129h-128
q-5 29 -33.5 46.5t-66.5 17.5t-63 -18t-25 -50q0 -16 6 -27.5t23.5 -23t31 -18.5t46.5 -22q8 -4 41.5 -17.5t51.5 -22t48 -28.5t46 -40t29 -52t13 -70zM300 -44q35 0 54 -25t19 -68q0 -32 -10.5 -61t-26 -46.5t-31 -30t-25.5 -17.5l-11 -6l-27 28q51 43 59 90
q-29 2 -52 18.5t-23 49.5q0 31 21.5 49.5t52.5 18.5z" />
    <glyph glyph-name="scommaaccent" unicode="&#x219;" horiz-adv-x="508" 
d="M335 353q-11 46 -71 46q-30 0 -45 -12.5t-15 -29.5q0 -35 75 -50q40 -9 66.5 -17.5t55 -25t43 -44t14.5 -65.5q0 -75 -53.5 -117.5t-134.5 -42.5q-87 0 -146.5 48.5t-63.5 127.5h123q3 -28 23 -48.5t61 -20.5q63 0 63 48q0 25 -18 36.5t-51 19.5q-26 6 -35.5 8.5t-38 11
t-43 18.5t-33.5 25.5t-27.5 38t-8.5 49.5q0 70 56.5 109t134.5 39q82 0 134.5 -43.5t57.5 -108.5h-123zM271 -37q33 0 51 -23.5t18 -65.5q0 -31 -10 -58t-25 -44t-29.5 -29.5t-24.5 -17.5l-10 -5l-26 27q48 42 56 87q-27 1 -49 16.5t-22 46.5q0 30 20.5 48t50.5 18z" />
    <glyph glyph-name="uni021A" unicode="&#x21a;" horiz-adv-x="552" 
d="M20 700h512v-124h-189v-576h-134v576h-189v124zM271 -44q35 0 54 -25t19 -68q0 -32 -10.5 -61t-26 -46.5t-31 -30t-26.5 -17.5l-10 -6l-27 28q51 43 59 90q-29 2 -52 18.5t-23 49.5q0 31 21.5 49.5t52.5 18.5z" />
    <glyph glyph-name="uni021B" unicode="&#x21b;" horiz-adv-x="498" 
d="M448 37q-5 -5 -14 -12t-40 -18.5t-65 -11.5q-74 0 -126.5 46t-52.5 120v232h-100v98h50q26 0 41.5 16t15.5 43v100h121v-150h126v-107h-126v-224q0 -25 18.5 -42.5t45.5 -17.5q13 0 27.5 4.5t22.5 8.5l8 4zM311 -42q33 0 51 -23.5t18 -65.5q0 -31 -10 -58t-25 -44
t-29.5 -29.5t-24.5 -17.5l-10 -5l-26 27q48 42 56 87q-27 1 -49 16.5t-22 46.5q0 30 20.5 48t50.5 18z" />
    <glyph glyph-name="uni021E" unicode="&#x21e;" horiz-adv-x="686" 
d="M402 755h-120l-131 154h129l52 -68h20l52 68h129zM481 700h135v-700h-135v291h-276v-291h-135v700h135v-282h276v282z" />
    <glyph glyph-name="uni0226" unicode="&#x226;" horiz-adv-x="668" 
d="M335 745q-35 0 -60.5 25t-25.5 59q0 36 25 60.5t61 24.5q35 0 59.5 -24.5t24.5 -60.5q0 -34 -25 -59t-59 -25zM422 700l236 -700h-144l-49 153h-262l-49 -153h-144l236 700h176zM243 277h182l-79 243h-24z" />
    <glyph glyph-name="uni0228" unicode="&#x228;" horiz-adv-x="611" 
d="M541 0h-189l-19 -33q36 8 65.5 -14t29.5 -63q0 -40 -30.5 -67.5t-82.5 -27.5q-24 0 -45.5 6.5t-34 16t-22 19t-13.5 15.5l-3 7l63 34q17 -29 51 -29q15 0 23.5 7.5t8.5 16.5q0 10 -8 18t-24 8q-9 0 -17 -3t-12 -5l-4 -3l-47 49l33 48h-194v700h461v-125h-330v-158h300
v-125h-300v-167h340v-125z" />
    <glyph glyph-name="uni0229" unicode="&#x229;" horiz-adv-x="592" 
d="M299 505q50 0 94.5 -17.5t80.5 -52t54.5 -92.5t12.5 -131h-365q10 -53 47.5 -78.5t83.5 -25.5q30 0 54.5 10.5t33.5 21.5l9 10h126q-23 -62 -72.5 -101.5t-111.5 -49.5l-23 -40q34 8 62.5 -13.5t28.5 -59.5t-29 -64.5t-79 -26.5q-37 0 -65 15.5t-37 30.5l-10 15l60 33
q16 -28 48 -28q15 0 23 7t8 16q0 10 -8 17.5t-23 7.5q-8 0 -16 -2.5t-12 -5.5l-3 -3l-45 47l36 53q-91 15 -151.5 84.5t-60.5 171.5q0 113 73 182t176 69zM303 396q-41 0 -72.5 -22t-46.5 -61h225q-21 83 -106 83z" />
    <glyph glyph-name="uni022E" unicode="&#x22e;" horiz-adv-x="764" 
d="M393 745q-35 0 -60.5 25t-25.5 59q0 36 25 60.5t61 24.5q35 0 59.5 -24.5t24.5 -60.5q0 -34 -25 -59t-59 -25zM383 -5q-140 0 -241.5 102t-101.5 253t101 253t241 102t241 -102t101 -253t-100.5 -253t-240.5 -102zM383 127q90 0 146.5 62.5t56.5 160.5t-57 160.5
t-147 62.5t-146.5 -62.5t-56.5 -160.5t57 -160.5t147 -62.5z" />
    <glyph glyph-name="uni022F" unicode="&#x22f;" horiz-adv-x="611" 
d="M307 556q-35 0 -60.5 25t-25.5 59q0 36 25 60.5t61 24.5q35 0 59.5 -24.5t24.5 -60.5q0 -34 -25 -59t-59 -25zM304 -5q-106 0 -180 70t-74 184q0 115 76.5 185.5t181.5 70.5t179 -70t74 -184q0 -115 -75.5 -185.5t-181.5 -70.5zM308 111q56 0 89 39.5t33 99.5t-33 99.5
t-89 39.5t-91.5 -40t-35.5 -99t35.5 -99t91.5 -40z" />
    <glyph glyph-name="uni0233" unicode="&#x233;" horiz-adv-x="621" 
d="M484 660v-90h-350v90h350zM447 500h134l-174 -519q-12 -35 -18.5 -52.5t-24.5 -47.5t-37.5 -45.5t-54 -28t-77.5 -12.5q-60 0 -98 17.5t-54 37.5l63 89q31 -31 78 -31q64 0 81 51l14 41h-67l-172 500h139l126 -364h20z" />
    <glyph glyph-name="uni0237" unicode="&#x237;" horiz-adv-x="368" 
d="M48 -74q28 -19 58 -19q27 0 46.5 18.5t19.5 43.5v531h126v-539q0 -74 -52.5 -120t-126.5 -46q-34 0 -64 10.5t-43 20.5l-12 11z" />
    <glyph glyph-name="circumflex" unicode="&#x2c6;" horiz-adv-x="487" 
d="M300 556l-48 68h-17l-48 -68h-117l119 154h109l119 -154h-117z" />
    <glyph glyph-name="caron" unicode="&#x2c7;" horiz-adv-x="487" 
d="M300 710h117l-119 -154h-109l-119 154h117l48 -68h17z" />
    <glyph glyph-name="breve" unicode="&#x2d8;" horiz-adv-x="428" 
d="M358 700q0 -53 -41.5 -90t-101.5 -37t-102.5 37t-42.5 90h97q0 -17 12.5 -30.5t35.5 -13.5q22 0 34 13t12 31h97z" />
    <glyph glyph-name="dotaccent" unicode="&#x2d9;" horiz-adv-x="310" 
d="M156 556q-35 0 -60.5 25t-25.5 59q0 36 25 60.5t61 24.5q35 0 59.5 -24.5t24.5 -60.5q0 -34 -25 -59t-59 -25z" />
    <glyph glyph-name="ring" unicode="&#x2da;" horiz-adv-x="342" 
d="M170 530q-41 0 -70.5 29.5t-29.5 70.5t29.5 70.5t70.5 29.5t71.5 -29.5t30.5 -70.5t-30.5 -70.5t-71.5 -29.5zM171 603q10 0 18 8t8 19t-8 19t-18 8q-11 0 -18.5 -8t-7.5 -19t7.5 -19t18.5 -8z" />
    <glyph glyph-name="ogonek" unicode="&#x2db;" horiz-adv-x="322" 
d="M139 22l72 -22q-6 -2 -14.5 -7t-22.5 -23.5t-14 -41.5q0 -25 16.5 -36t35.5 -9.5t37 8.5l3 -80q-23 -17 -67 -17q-50 0 -82.5 27.5t-32.5 77.5q0 22 7 43t17 35t20.5 24.5t17.5 15.5z" />
    <glyph glyph-name="tilde" unicode="&#x2dc;" horiz-adv-x="515" 
d="M445 629q-2 -5 -5.5 -12t-16 -25.5t-27 -31t-39.5 -21t-52 -3.5q-26 5 -61.5 26t-50.5 22q-16 1 -29.5 -9t-19.5 -21l-5 -11l-69 44q2 5 5.5 12t16 25.5t27 32t39 22t51.5 3.5q26 -5 61 -26t50 -22q16 -1 30 9t20 21l6 11z" />
    <glyph glyph-name="hungarumlaut" unicode="&#x2dd;" horiz-adv-x="528" 
d="M138 680h140l-113 -125h-95zM318 680h140l-113 -125h-95z" />
    <glyph glyph-name="uni0326" unicode="&#x326;" horiz-adv-x="0" 
d="M-152 -42q33 0 51 -23.5t18 -65.5q0 -31 -10 -58t-24.5 -44t-29.5 -29.5t-25 -17.5l-10 -5l-26 27q48 42 56 87q-27 1 -49 16.5t-22 46.5q0 30 20.5 48t50.5 18z" />
    <glyph glyph-name="uni1E02" unicode="&#x1e02;" horiz-adv-x="617" 
d="M291 745q-35 0 -60.5 25t-25.5 59q0 36 25 60.5t61 24.5q35 0 59.5 -24.5t24.5 -60.5q0 -34 -25 -59t-59 -25zM452 371q51 -15 83 -59t32 -110q0 -96 -66 -149t-169 -53h-262v700h241q87 0 154 -47.5t67 -134.5q0 -98 -80 -139v-8zM198 582v-159h96q107 0 107 79
q0 80 -107 80h-96zM302 118q67 0 99 25.5t32 67.5q0 40 -28.5 67.5t-92.5 27.5h-114v-188h104z" />
    <glyph glyph-name="uni1E03" unicode="&#x1e03;" 
d="M314 725q-35 0 -60.5 25t-25.5 59q0 36 25 60.5t61 24.5q35 0 59.5 -24.5t24.5 -60.5q0 -34 -25 -59t-59 -25zM324 505q97 0 165 -72t68 -183t-68 -183t-165 -72q-79 0 -127 53h-15l-14 -48h-98v710h125v-259q48 54 129 54zM305 118q50 0 86 35t36 97t-36 97t-86 35
t-80 -35.5t-30 -96.5t30 -96.5t80 -35.5z" />
    <glyph glyph-name="uni1E0A" unicode="&#x1e0a;" horiz-adv-x="692" 
d="M339 745q-35 0 -60.5 25t-25.5 59q0 36 25 60.5t61 24.5q35 0 59.5 -24.5t24.5 -60.5q0 -34 -25 -59t-59 -25zM292 700q146 0 248 -93.5t102 -256.5t-102 -256.5t-248 -93.5h-222v700h222zM292 132q94 0 153.5 59.5t59.5 161.5q0 101 -59.5 158t-153.5 57h-86v-436h86z
" />
    <glyph glyph-name="uni1E0B" unicode="&#x1e0b;" 
d="M295 735q-35 0 -60.5 25t-25.5 59q0 36 25 60.5t61 24.5q35 0 59.5 -24.5t24.5 -60.5q0 -34 -25 -59t-59 -25zM412 710h125v-710h-98l-14 48h-15q-48 -53 -127 -53q-97 0 -165 72t-68 183t68 183t165 72q81 0 129 -54v259zM302 118q50 0 80 35.5t30 96.5t-30 96.5
t-80 35.5t-86 -35t-36 -97t36 -97t86 -35z" />
    <glyph glyph-name="uni1E10" unicode="&#x1e10;" horiz-adv-x="692" 
d="M642 350q0 -140 -77.5 -230t-197.5 -113l-23 -40q36 8 65.5 -14t29.5 -63q0 -40 -30.5 -67.5t-82.5 -27.5q-24 0 -45.5 6.5t-34 16t-22 19t-12.5 15.5l-4 7l63 34q17 -29 51 -29q15 0 23.5 7.5t8.5 16.5q0 10 -8 18t-24 8q-9 0 -17 -3t-12 -5l-4 -3l-47 49l33 48h-205
v700h222q146 0 248 -93.5t102 -256.5zM206 568v-436h86q94 0 153.5 59.5t59.5 161.5q0 101 -59.5 158t-153.5 57h-86z" />
    <glyph glyph-name="uni1E11" unicode="&#x1e11;" 
d="M412 710h125v-710h-98l-14 48h-15q-27 -30 -65 -43h3l-27 -46q34 8 62.5 -13.5t28.5 -59.5t-29 -64.5t-79 -26.5q-37 0 -65 15.5t-37 30.5l-10 15l60 33q16 -28 48 -28q15 0 23 7t8 16q0 10 -8 17.5t-23 7.5q-8 0 -16 -2.5t-12 -5.5l-3 -3l-45 47l35 51q-89 9 -149 79.5
t-60 174.5q0 111 68 183t165 72q81 0 129 -54v259zM302 118q50 0 80 35.5t30 96.5t-30 96.5t-80 35.5t-86 -35t-36 -97t36 -97t86 -35z" />
    <glyph glyph-name="uni1E1E" unicode="&#x1e1e;" horiz-adv-x="551" 
d="M302 745q-35 0 -60.5 25t-25.5 59q0 36 25 60.5t61 24.5q35 0 59.5 -24.5t24.5 -60.5q0 -34 -25 -59t-59 -25zM531 573h-327v-156h267v-123h-267v-294h-134v417v283h461v-127z" />
    <glyph glyph-name="uni1E1F" unicode="&#x1e1f;" horiz-adv-x="462" 
d="M232 735q-35 0 -60.5 25t-25.5 59q0 36 25 60.5t61 24.5q35 0 59.5 -24.5t24.5 -60.5q0 -34 -25 -59t-59 -25zM374 574q-28 19 -58 19q-27 0 -46.5 -18.5t-19.5 -43.5v-31h144v-105h-144v-395h-126v395h-84v105h84v39q0 74 52.5 120t126.5 46q34 0 64 -10.5t43 -20.5
l12 -11z" />
    <glyph glyph-name="uni1E20" unicode="&#x1e20;" horiz-adv-x="733" 
d="M539 868v-95h-350v95h350zM393 382h280v-382h-93l-15 59h-13q-60 -64 -177 -64q-140 0 -232.5 101t-92.5 255t92.5 254t238.5 100q64 0 117 -21t83.5 -51.5t51 -60.5t27.5 -51l8 -21h-150q-1 3 -4 8.5t-14 19t-25 23.5t-39 18.5t-55 8.5q-87 0 -141.5 -64t-54.5 -164
q0 -101 55.5 -164t147.5 -63q114 0 155 80v61h-150v118z" />
    <glyph glyph-name="uni1E22" unicode="&#x1e22;" horiz-adv-x="686" 
d="M344 745q-35 0 -60.5 25t-25.5 59q0 36 25 60.5t61 24.5q35 0 59.5 -24.5t24.5 -60.5q0 -34 -25 -59t-59 -25zM481 700h135v-700h-135v291h-276v-291h-135v700h135v-282h276v282z" />
    <glyph glyph-name="uni1E23" unicode="&#x1e23;" horiz-adv-x="619" 
d="M311 735q-35 0 -60.5 25t-25.5 59q0 36 25 60.5t61 24.5q35 0 59.5 -24.5t24.5 -60.5q0 -34 -25 -59t-59 -25zM358 505q94 0 142.5 -63.5t48.5 -170.5v-271h-134v241v16v18.5t-0.5 18.5t-2 20.5t-4.5 18.5t-7 18l-10.5 15t-14.5 13t-19 7t-24 3q-20 0 -39.5 -6t-41 -21
t-35 -48t-13.5 -79v-235h-134v710h127v-262h17q55 57 144 57z" />
    <glyph glyph-name="uni1E26" unicode="&#x1e26;" horiz-adv-x="686" 
d="M219 749q-34 0 -58.5 24t-24.5 58q0 35 24.5 59t58.5 24t58 -24t24 -59q0 -34 -24 -58t-58 -24zM459 749q-34 0 -58.5 24t-24.5 58q0 35 24.5 59t58.5 24t58 -24t24 -59q0 -34 -24 -58t-58 -24zM481 700h135v-700h-135v291h-276v-291h-135v700h135v-282h276v282z" />
    <glyph glyph-name="uni1E27" unicode="&#x1e27;" horiz-adv-x="619" 
d="M213 760q-30 0 -51.5 21.5t-21.5 51.5t21.5 51t51.5 21t51 -21t21 -51t-21.5 -51.5t-50.5 -21.5zM407 760q-29 0 -50.5 21.5t-21.5 51.5t21 51t51 21t51.5 -21t21.5 -51t-21.5 -51.5t-51.5 -21.5zM358 505q94 0 142.5 -63.5t48.5 -170.5v-271h-134v241v16v18.5t-0.5 18.5
t-2 20.5t-4.5 18.5t-7 18l-10.5 15t-14.5 13t-19 7t-24 3q-20 0 -39.5 -6t-41 -21t-35 -48t-13.5 -79v-235h-134v710h127v-262h17q55 57 144 57z" />
    <glyph glyph-name="uni1E28" unicode="&#x1e28;" horiz-adv-x="686" 
d="M481 700h135v-700h-135v291h-276v-291h-48l-19 -33q36 8 65.5 -14t29.5 -63q0 -40 -30.5 -67.5t-82.5 -27.5q-24 0 -45.5 6.5t-34 16t-22 19t-12.5 15.5l-4 7l63 34q17 -29 51 -29q15 0 23.5 7.5t8.5 16.5q0 10 -8 18t-24 8q-9 0 -17 -3t-12 -5l-4 -3l-47 49l34 50v698
h135v-282h276v282z" />
    <glyph glyph-name="uni1E29" unicode="&#x1e29;" horiz-adv-x="619" 
d="M358 505q94 0 142.5 -63.5t48.5 -170.5v-271h-134v241v16v18.5t-0.5 18.5t-2 20.5t-4.5 18.5t-7 18l-10.5 15t-14.5 13t-19 7t-24 3q-20 0 -39.5 -6t-41 -21t-35 -48t-13.5 -79v-235h-51l-24 -41q34 8 62.5 -13.5t28.5 -59.5t-29 -64.5t-79 -26.5q-37 0 -65 15.5
t-37 30.5l-10 15l60 33q16 -28 48 -28q15 0 23 7t8 16q0 10 -8 17.5t-23 7.5q-8 0 -16 -2.5t-12 -5.5l-3 -3l-45 47l38 56v709h127v-262h17q55 57 144 57z" />
    <glyph glyph-name="uni1E40" unicode="&#x1e40;" horiz-adv-x="840" 
d="M421 745q-35 0 -60.5 25t-25.5 59q0 36 25 60.5t61 24.5q35 0 59.5 -24.5t24.5 -60.5q0 -34 -25 -59t-59 -25zM770 700v-700h-131v427h-8l-131 -377h-161l-130 377h-8v-427h-131v700h171l171 -496h16l171 496h171z" />
    <glyph glyph-name="uni1E41" unicode="&#x1e41;" horiz-adv-x="877" 
d="M455 556q-35 0 -60.5 25t-25.5 59q0 36 25 60.5t61 24.5q35 0 59.5 -24.5t24.5 -60.5q0 -34 -25 -59t-59 -25zM628 506q94 1 141.5 -62.5t47.5 -172.5v-271h-133v241q0 80 -8 104q-17 49 -77 44q-90 -7 -90 -154v-235h-132v241q0 80 -8 104q-17 49 -77 44
q-90 -7 -90 -154v-235h-132v500h102l15 -54h16q44 58 121 59q84 2 137 -69h15q55 69 152 70z" />
    <glyph glyph-name="uni1E44" unicode="&#x1e44;" horiz-adv-x="692" 
d="M348 745q-35 0 -60.5 25t-25.5 59q0 36 25 60.5t61 24.5q35 0 59.5 -24.5t24.5 -60.5q0 -34 -25 -59t-59 -25zM491 700h131v-700h-131l-277 452h-13v-452h-131v700h132l277 -440h12v440z" />
    <glyph glyph-name="uni1E45" unicode="&#x1e45;" horiz-adv-x="610" 
d="M309 556q-35 0 -60.5 25t-25.5 59q0 36 25 60.5t61 24.5q35 0 59.5 -24.5t24.5 -60.5q0 -34 -25 -59t-59 -25zM358 505q94 0 143 -63.5t49 -170.5v-271h-133v241l1 9q0 9 -0.5 16t-1 19.5t-3 22.5t-6 22.5t-10 22t-15 17.5t-21.5 13t-28 6q-20 1 -40.5 -5t-42 -21.5
t-35 -48.5t-13.5 -79v-235h-132v500h102l17 -61h17q55 66 152 66z" />
    <glyph glyph-name="uni1E56" unicode="&#x1e56;" horiz-adv-x="594" 
d="M294 745q-35 0 -60.5 25t-25.5 59q0 36 25 60.5t61 24.5q35 0 59.5 -24.5t24.5 -60.5q0 -34 -25 -59t-59 -25zM337 700q91 0 154 -57.5t63 -157.5t-63.5 -162.5t-153.5 -62.5h-140v-260h-127v700h267zM327 383q42 0 68.5 29t26.5 73q0 43 -26 67.5t-69 24.5h-130v-194
h130z" />
    <glyph glyph-name="uni1E57" unicode="&#x1e57;" 
d="M314 556q-35 0 -60.5 25t-25.5 59q0 36 25 60.5t61 24.5q35 0 59.5 -24.5t24.5 -60.5q0 -34 -25 -59t-59 -25zM324 505q97 0 165 -72t68 -183t-68 -183t-165 -72q-81 0 -129 54v-249h-125v700h98l14 -48h15q48 53 127 53zM305 118q50 0 86 35t36 97t-36 97t-86 35
t-80 -35.5t-30 -96.5t30 -96.5t80 -35.5z" />
    <glyph glyph-name="uni1E58" unicode="&#x1e58;" horiz-adv-x="627" 
d="M296 745q-35 0 -60.5 25t-25.5 59q0 36 25 60.5t61 24.5q35 0 59.5 -24.5t24.5 -60.5q0 -34 -25 -59t-59 -25zM577 0h-148l-149 257h-83v-257h-127v700h247q91 0 154 -58t63 -157q0 -69 -35 -123t-91 -81zM197 575v-194h110q42 0 68.5 29t26.5 73q0 43 -26 67.5t-69 24.5
h-110z" />
    <glyph glyph-name="uni1E59" unicode="&#x1e59;" horiz-adv-x="430" 
d="M230 556q-35 0 -60.5 25t-25.5 59q0 36 25 60.5t61 24.5q35 0 59.5 -24.5t24.5 -60.5q0 -34 -25 -59t-59 -25zM359 505h31v-128q-20 4 -44 4q-59 0 -101 -32t-42 -96v-253h-133v500h102l18 -55h16q60 60 153 60z" />
    <glyph glyph-name="uni1E60" unicode="&#x1e60;" horiz-adv-x="593" 
d="M298 745q-35 0 -60.5 25t-25.5 59q0 36 25 60.5t61 24.5q35 0 59.5 -24.5t24.5 -60.5q0 -34 -25 -59t-59 -25zM543 195q0 -94 -67 -147t-167 -53q-114 0 -186.5 66t-72.5 165h130q8 -58 46.5 -82.5t81.5 -24.5q22 0 42.5 5t40 23.5t19.5 48.5q0 21 -9 37.5t-27.5 29.5
t-34.5 20.5t-43 17.5q-104 41 -142 67q-85 58 -85 148q0 86 65.5 138t162.5 52q103 0 164.5 -57t61.5 -129h-128q-5 29 -33.5 46.5t-66.5 17.5t-63 -18t-25 -50q0 -16 6 -27.5t23.5 -23t31 -18.5t46.5 -22q8 -4 41.5 -17.5t51.5 -22t48 -28.5t46 -40t29 -52t13 -70z" />
    <glyph glyph-name="uni1E61" unicode="&#x1e61;" horiz-adv-x="508" 
d="M260 556q-35 0 -60.5 25t-25.5 59q0 36 25 60.5t61 24.5q35 0 59.5 -24.5t24.5 -60.5q0 -34 -25 -59t-59 -25zM335 353q-11 46 -71 46q-30 0 -45 -12.5t-15 -29.5q0 -35 75 -50q40 -9 66.5 -17.5t55 -25t43 -44t14.5 -65.5q0 -75 -53.5 -117.5t-134.5 -42.5
q-87 0 -146.5 48.5t-63.5 127.5h123q3 -28 23 -48.5t61 -20.5q63 0 63 48q0 25 -18 36.5t-51 19.5q-26 6 -35.5 8.5t-38 11t-43 18.5t-33.5 25.5t-27.5 38t-8.5 49.5q0 70 56.5 109t134.5 39q82 0 134.5 -43.5t57.5 -108.5h-123z" />
    <glyph glyph-name="uni1E7C" unicode="&#x1e7c;" horiz-adv-x="672" 
d="M542 830q-2 -5 -6 -13t-17.5 -28t-30 -34t-43.5 -23.5t-57 -3.5q-28 5 -67.5 28t-56.5 24q-17 2 -32 -9.5t-21 -23.5l-6 -12l-76 49q2 5 6 13t17.5 28.5t29.5 35t43 23.5t57 4q28 -5 67 -28.5t55 -24.5q17 -1 32.5 10.5t22.5 23.5l7 12zM500 700h142l-204 -700h-204
l-204 700h143l153 -544h21z" />
    <glyph glyph-name="uni1E7D" unicode="&#x1e7d;" horiz-adv-x="618" 
d="M245 584q-16 1 -29.5 -9t-19.5 -21l-5 -11l-69 44q2 5 5.5 12t16 25.5t27 32t39 22t51.5 3.5q26 -5 61 -26t50 -22q16 -1 30 9t20 21l6 11l69 -46q-2 -5 -5.5 -12t-16 -25.5t-27 -31t-39.5 -21t-52 -3.5q-26 5 -61.5 26t-50.5 22zM435 500h133l-162 -500h-128h-66
l-162 500h133l116 -368h20z" />
    <glyph glyph-name="Wgrave" unicode="&#x1e80;" horiz-adv-x="963" 
d="M501 890l76 -135h-106l-142 135h172zM791 700h137l-148 -700h-209l-80 452h-21l-88 -452h-209l-138 700h137l102 -547h21l98 497h177l91 -497h21z" />
    <glyph glyph-name="wgrave" unicode="&#x1e81;" horiz-adv-x="850" 
d="M441 690l63 -135h-88l-119 135h144zM667 500h128l-119 -500h-176l-68 292h-14l-68 -292h-176l-119 500h128l77 -349h17l69 309h158l70 -309h16z" />
    <glyph glyph-name="Wacute" unicode="&#x1e82;" horiz-adv-x="963" 
d="M476 890h172l-142 -135h-106zM791 700h137l-148 -700h-209l-80 452h-21l-88 -452h-209l-138 700h137l102 -547h21l98 497h177l91 -497h21z" />
    <glyph glyph-name="wacute" unicode="&#x1e83;" horiz-adv-x="850" 
d="M442 690h144l-119 -135h-88zM667 500h128l-119 -500h-176l-68 292h-14l-68 -292h-176l-119 500h128l77 -349h17l69 309h158l70 -309h16z" />
    <glyph glyph-name="Wdieresis" unicode="&#x1e84;" horiz-adv-x="963" 
d="M352 749q-34 0 -58.5 24t-24.5 58q0 35 24.5 59t58.5 24t58 -24t24 -59q0 -34 -24 -58t-58 -24zM592 749q-34 0 -58.5 24t-24.5 58q0 35 24.5 59t58.5 24t58 -24t24 -59q0 -34 -24 -58t-58 -24zM791 700h137l-148 -700h-209l-80 452h-21l-88 -452h-209l-138 700h137
l102 -547h21l98 497h177l91 -497h21z" />
    <glyph glyph-name="wdieresis" unicode="&#x1e85;" horiz-adv-x="850" 
d="M333 551q-30 0 -51.5 21.5t-21.5 51.5t21.5 51t51.5 21t51 -21t21 -51t-21.5 -51.5t-50.5 -21.5zM527 551q-29 0 -50.5 21.5t-21.5 51.5t21 51t51 21t51.5 -21t21.5 -51t-21.5 -51.5t-51.5 -21.5zM667 500h128l-119 -500h-176l-68 292h-14l-68 -292h-176l-119 500h128
l77 -349h17l69 309h158l70 -309h16z" />
    <glyph glyph-name="uni1E8C" unicode="&#x1e8c;" horiz-adv-x="725" 
d="M191 749q-34 0 -58.5 24t-24.5 58q0 35 24.5 59t58.5 24t58 -24t24 -59q0 -34 -24 -58t-58 -24zM431 749q-34 0 -58.5 24t-24.5 58q0 35 24.5 59t58.5 24t58 -24t24 -59q0 -34 -24 -58t-58 -24zM536 0l-164 273h-14l-165 -273h-163l224 361l-210 339h159l154 -253h14
l154 253h156l-210 -339l224 -361h-159z" />
    <glyph glyph-name="uni1E8D" unicode="&#x1e8d;" horiz-adv-x="617" 
d="M217 551q-30 0 -51.5 21.5t-21.5 51.5t21.5 51t51.5 21t51 -21t21 -51t-21.5 -51.5t-50.5 -21.5zM411 551q-29 0 -50.5 21.5t-21.5 51.5t21 51t51 21t51.5 -21t21.5 -51t-21.5 -51.5t-51.5 -21.5zM418 0l-102 169h-14l-103 -169h-144l165 257l-155 243h141l97 -150h12
l96 150h141l-155 -243l165 -257h-144z" />
    <glyph glyph-name="uni1E90" unicode="&#x1e90;" horiz-adv-x="611" 
d="M295 823l-52 -68h-129l131 154h120l131 -154h-129l-52 68h-20zM232 131h329v-131h-511v102l324 468h-304v130h481v-101z" />
    <glyph glyph-name="uni1E97" unicode="&#x1e97;" horiz-adv-x="498" 
d="M120 695q-30 0 -51.5 21.5t-21.5 51.5t21.5 51t51.5 21t51 -21t21 -51t-21.5 -51.5t-50.5 -21.5zM314 695q-29 0 -50.5 21.5t-21.5 51.5t21 51t51 21t51.5 -21t21.5 -51t-21.5 -51.5t-51.5 -21.5zM400 126l48 -89q-5 -5 -14 -12t-40 -18.5t-65 -11.5q-74 0 -126.5 46
t-52.5 120v232h-100v98h50q26 0 41.5 16t15.5 43v100h121v-150h126v-107h-126v-224q0 -25 18.5 -42.5t45.5 -17.5q13 0 27.5 4.5t22.5 8.5z" />
    <glyph glyph-name="uni1E98" unicode="&#x1e98;" horiz-adv-x="850" 
d="M429 530q-41 0 -70.5 29.5t-29.5 70.5t29.5 70.5t70.5 29.5t71.5 -29.5t30.5 -70.5t-30.5 -70.5t-71.5 -29.5zM430 603q10 0 18 8t8 19t-8 19t-18 8q-11 0 -18.5 -8t-7.5 -19t7.5 -19t18.5 -8zM667 500h128l-119 -500h-176l-68 292h-14l-68 -292h-176l-119 500h128
l77 -349h17l69 309h158l70 -309h16z" />
    <glyph glyph-name="uni1E99" unicode="&#x1e99;" horiz-adv-x="621" 
d="M304 530q-41 0 -70.5 29.5t-29.5 70.5t29.5 70.5t70.5 29.5t71.5 -29.5t30.5 -70.5t-30.5 -70.5t-71.5 -29.5zM305 657q-11 0 -18.5 -8t-7.5 -19t7.5 -19t18.5 -8q10 0 18 8t8 19t-8 19t-18 8zM447 500h134l-174 -519q-12 -35 -18.5 -52.5t-24.5 -47.5t-37.5 -45.5
t-54 -28t-77.5 -12.5q-60 0 -98 17.5t-54 37.5l63 89q31 -31 78 -31q64 0 81 51l14 41h-67l-172 500h139l126 -364h20z" />
    <glyph glyph-name="uni1E9E" unicode="&#x1e9e;" horiz-adv-x="1186" 
d="M543 195q0 -94 -67 -147t-167 -53q-114 0 -186.5 66t-72.5 165h130q8 -58 46.5 -82.5t81.5 -24.5q22 0 42.5 5t40 23.5t19.5 48.5q0 21 -9 37.5t-27.5 29.5t-34.5 20.5t-43 17.5q-104 41 -142 67q-85 58 -85 148q0 86 65.5 138t162.5 52q103 0 164.5 -57t61.5 -129h-128
q-5 29 -33.5 46.5t-66.5 17.5t-63 -18t-25 -50q0 -16 6 -27.5t23.5 -23t31 -18.5t46.5 -22q8 -4 41.5 -17.5t51.5 -22t48 -28.5t46 -40t29 -52t13 -70zM1136 195q0 -94 -67 -147t-167 -53q-114 0 -186.5 66t-72.5 165h130q8 -58 46.5 -82.5t81.5 -24.5q22 0 42.5 5t40 23.5
t19.5 48.5q0 21 -9 37.5t-27.5 29.5t-34.5 20.5t-43 17.5q-104 41 -142 67q-85 58 -85 148q0 86 65.5 138t162.5 52q103 0 164.5 -57t61.5 -129h-128q-5 29 -33.5 46.5t-66.5 17.5t-63 -18t-25 -50q0 -16 6 -27.5t23.5 -23t31 -18.5t46.5 -22q8 -4 41.5 -17.5t51.5 -22
t48 -28.5t46 -40t29 -52t13 -70z" />
    <glyph glyph-name="uni1EBC" unicode="&#x1ebc;" horiz-adv-x="611" 
d="M511 830q-2 -5 -6 -13t-17.5 -28t-30 -34t-43.5 -23.5t-57 -3.5q-28 5 -67.5 28t-56.5 24q-17 2 -32 -9.5t-21 -23.5l-6 -12l-76 49q2 5 6 13t17.5 28.5t29.5 35t43 23.5t57 4q28 -5 67 -28.5t55 -24.5q17 -1 32.5 10.5t22.5 23.5l7 12zM201 125h340v-125h-471v700h461
v-125h-330v-158h300v-125h-300v-167z" />
    <glyph glyph-name="uni1EBD" unicode="&#x1ebd;" horiz-adv-x="592" 
d="M232 584q-16 1 -29.5 -9t-18.5 -21l-6 -11l-69 44q2 5 5.5 12t16 25.5t27 32t39 22t51.5 3.5q26 -5 61 -26t50 -22q16 -1 30 9t20 21l6 11l69 -46q-2 -5 -5.5 -12t-16 -25.5t-27 -31t-39.5 -21t-52 -3.5q-26 5 -61.5 26t-50.5 22zM299 505q50 0 94.5 -17.5t80.5 -52
t54.5 -92.5t12.5 -131h-365q10 -53 47.5 -78.5t83.5 -25.5q30 0 54.5 10.5t33.5 21.5l9 10h126q-28 -73 -90 -114t-137 -41q-104 0 -178.5 72.5t-74.5 186.5q0 113 73 182t176 69zM303 396q-41 0 -72.5 -22t-46.5 -61h225q-21 83 -106 83z" />
    <glyph glyph-name="Ygrave" unicode="&#x1ef2;" horiz-adv-x="639" 
d="M399 755h-106l-142 135h172zM450 700h159l-220 -349v-351h-139v351l-220 349h158l125 -214h12z" />
    <glyph glyph-name="ygrave" unicode="&#x1ef3;" horiz-adv-x="621" 
d="M379 555h-88l-119 135h144zM447 500h134l-174 -519q-12 -35 -18.5 -52.5t-24.5 -47.5t-37.5 -45.5t-54 -28t-77.5 -12.5q-60 0 -98 17.5t-54 37.5l63 89q31 -31 78 -31q64 0 81 51l14 41h-67l-172 500h139l126 -364h20z" />
    <glyph glyph-name="uni1EF8" unicode="&#x1ef8;" horiz-adv-x="639" 
d="M244 780q-17 2 -32 -9.5t-21 -23.5l-6 -12l-76 49q2 5 6 13t17.5 28.5t29.5 35t43 23.5t57 4q28 -5 67 -28.5t55 -24.5q17 -1 32.5 10.5t22.5 23.5l7 12l76 -51q-2 -5 -6 -13t-17.5 -28t-30 -34t-43.5 -23.5t-57 -3.5q-28 5 -67.5 28t-56.5 24zM450 700h159l-220 -349
v-351h-139v351l-220 349h158l125 -214h12z" />
    <glyph glyph-name="uni1EF9" unicode="&#x1ef9;" horiz-adv-x="621" 
d="M241 584q-16 1 -29.5 -9t-19.5 -21l-5 -11l-69 44q2 5 5.5 12t16 25.5t27 32t39 22t51.5 3.5q26 -5 61 -26t50 -22q16 -1 30 9t20 21l6 11l69 -46q-2 -5 -5.5 -12t-16 -25.5t-27 -31t-39.5 -21t-52 -3.5q-26 5 -61.5 26t-50.5 22zM447 500h134l-174 -519
q-12 -35 -18.5 -52.5t-24.5 -47.5t-37.5 -45.5t-54 -28t-77.5 -12.5q-60 0 -98 17.5t-54 37.5l63 89q31 -31 78 -31q64 0 81 51l14 41h-67l-172 500h139l126 -364h20z" />
    <glyph glyph-name="uni200B" unicode="&#x200b;" horiz-adv-x="0" 
 />
    <glyph glyph-name="endash" unicode="&#x2013;" horiz-adv-x="535" 
d="M50 368h435v-114h-435v114z" />
    <glyph glyph-name="emdash" unicode="&#x2014;" horiz-adv-x="860" 
d="M810 368v-114h-760v114h760z" />
    <glyph glyph-name="quoteleft" unicode="&#x2018;" horiz-adv-x="250" 
d="M125 495q-36 0 -55.5 27.5t-19.5 75.5q0 36 11 67.5t26.5 51t31 33.5t26.5 20l11 6l28 -31q-52 -48 -60 -100q29 -2 52.5 -20t23.5 -54q0 -34 -21.5 -55t-53.5 -21z" />
    <glyph glyph-name="quoteright" unicode="&#x2019;" horiz-adv-x="250" 
d="M125 776q36 0 55.5 -27.5t19.5 -75.5q0 -36 -11 -67.5t-26.5 -51t-31 -33.5t-26.5 -20l-11 -6l-28 31q52 48 60 100q-29 2 -52.5 20t-23.5 54q0 34 21.5 55t53.5 21z" />
    <glyph glyph-name="quotesinglbase" unicode="&#x201a;" horiz-adv-x="250" 
d="M125 145q36 0 55.5 -27.5t19.5 -75.5q0 -36 -11 -67.5t-26.5 -51t-31 -33.5t-26.5 -20l-11 -6l-28 31q52 48 60 100q-29 2 -52.5 20t-23.5 54q0 34 21.5 55t53.5 21z" />
    <glyph glyph-name="quotedblleft" unicode="&#x201c;" horiz-adv-x="445" 
d="M125 495q-36 0 -55.5 27.5t-19.5 75.5q0 36 11 67.5t26.5 51t31 33.5t26.5 20l11 6l28 -31q-52 -48 -60 -100q29 -2 52.5 -20t23.5 -54q0 -34 -21.5 -55t-53.5 -21zM320 495q-36 0 -55.5 27.5t-19.5 75.5q0 36 11 67.5t26.5 51t31 33.5t26.5 20l11 6l28 -31
q-52 -48 -60 -100q29 -2 52.5 -20t23.5 -54q0 -34 -21.5 -55t-53.5 -21z" />
    <glyph glyph-name="quotedblright" unicode="&#x201d;" horiz-adv-x="445" 
d="M125 776q36 0 55.5 -27.5t19.5 -75.5q0 -36 -11 -67.5t-26.5 -51t-31 -33.5t-26.5 -20l-11 -6l-28 31q52 48 60 100q-29 2 -52.5 20t-23.5 54q0 34 21.5 55t53.5 21zM320 776q36 0 55.5 -27.5t19.5 -75.5q0 -36 -11 -67.5t-26.5 -51t-31 -33.5t-26.5 -20l-11 -6l-28 31
q52 48 60 100q-29 2 -52.5 20t-23.5 54q0 34 21.5 55t53.5 21z" />
    <glyph glyph-name="quotedblbase" unicode="&#x201e;" horiz-adv-x="445" 
d="M125 145q36 0 55.5 -27.5t19.5 -75.5q0 -36 -11 -67.5t-26.5 -51t-31 -33.5t-26.5 -20l-11 -6l-28 31q52 48 60 100q-29 2 -52.5 20t-23.5 54q0 34 21.5 55t53.5 21zM320 145q36 0 55.5 -27.5t19.5 -75.5q0 -36 -11 -67.5t-26.5 -51t-31 -33.5t-26.5 -20l-11 -6l-28 31
q52 48 60 100q-29 2 -52.5 20t-23.5 54q0 34 21.5 55t53.5 21z" />
    <glyph glyph-name="dagger" unicode="&#x2020;" horiz-adv-x="560" 
d="M500 500v-116h-160v-524h-120v524h-160v116h160v200h120v-200h160z" />
    <glyph glyph-name="daggerdbl" unicode="&#x2021;" horiz-adv-x="560" 
d="M500 384h-160v-208h160v-116h-160v-200h-120v200h-160v116h160v208h-160v116h160v200h120v-200h160v-116z" />
    <glyph glyph-name="bullet" unicode="&#x2022;" horiz-adv-x="290" 
d="M130 251q-33 0 -56.5 23.5t-23.5 56.5q0 34 23.5 57t56.5 23t56.5 -23t23.5 -57q0 -33 -23.5 -56.5t-56.5 -23.5z" />
    <glyph glyph-name="ellipsis" unicode="&#x2026;" horiz-adv-x="860" 
d="M130 -5q-33 0 -56.5 23.5t-23.5 56.5q0 34 23.5 57t56.5 23t56.5 -23t23.5 -57q0 -33 -23.5 -56.5t-56.5 -23.5zM430 -5q-33 0 -56.5 23.5t-23.5 56.5q0 34 23.5 57t56.5 23t56.5 -23t23.5 -57q0 -33 -23.5 -56.5t-56.5 -23.5zM730 -5q-33 0 -56.5 23.5t-23.5 56.5
q0 34 23.5 57t56.5 23t56.5 -23t23.5 -57q0 -33 -23.5 -56.5t-56.5 -23.5z" />
    <glyph glyph-name="perthousand" unicode="&#x2030;" horiz-adv-x="1119" 
d="M200 345q-62 0 -106 44.5t-44 105.5t44 105.5t106 44.5q61 0 105.5 -44.5t44.5 -105.5t-44.5 -105.5t-105.5 -44.5zM659 640l-406 -640h-134l406 640h134zM200 450q20 0 32.5 13t12.5 32t-12.5 32t-32.5 13t-32.5 -13t-12.5 -32t12.5 -32t32.5 -13zM579 -5
q-61 0 -105.5 44.5t-44.5 105.5t44.5 105.5t105.5 44.5t105.5 -44.5t44.5 -105.5t-44.5 -105.5t-105.5 -44.5zM929 -5q-61 0 -105.5 44.5t-44.5 105.5t44.5 105.5t105.5 44.5t105.5 -44.5t44.5 -105.5t-44.5 -105.5t-105.5 -44.5zM579 100q19 0 32 13t13 32t-13 32t-32 13
t-32 -13t-13 -32t13 -32t32 -13zM929 100q19 0 32 13t13 32t-13 32t-32 13t-32 -13t-13 -32t13 -32t32 -13z" />
    <glyph glyph-name="guilsinglleft" unicode="&#x2039;" horiz-adv-x="401" 
d="M211 97l-161 202l161 202h140l-163 -202l163 -202h-140z" />
    <glyph glyph-name="guilsinglright" unicode="&#x203a;" horiz-adv-x="401" 
d="M190 97h-140l163 202l-163 202h140l161 -202z" />
    <glyph glyph-name="uni2042" unicode="&#x2042;" horiz-adv-x="800" 
d="M517 423l-80 53l6 -96h-86l6 96l-80 -53l-43 74l85 43l-85 43l43 74l80 -53l-6 96h86l-6 -96l80 53l43 -74l-85 -43l85 -43zM307 277l43 -74l-85 -43l85 -43l-43 -74l-80 53l6 -96h-86l6 96l-80 -53l-43 74l85 43l-85 43l43 74l80 -53l-6 96h86l-6 -96zM770 203l-85 -43
l85 -43l-43 -74l-80 53l6 -96h-86l6 96l-80 -53l-43 74l85 43l-85 43l43 74l80 -53l-6 96h86l-6 -96l80 53z" />
    <glyph glyph-name="fraction" unicode="&#x2044;" horiz-adv-x="293" 
d="M453 640h-115l-498 -640h115z" />
    <glyph glyph-name="uni2051" unicode="&#x2051;" horiz-adv-x="400" 
d="M360 583l-85 -43l85 -43l-43 -74l-80 53l6 -96h-86l6 96l-80 -53l-43 74l85 43l-85 43l43 74l80 -53l-6 96h86l-6 -96l80 53zM317 277l43 -74l-85 -43l85 -43l-43 -74l-80 53l6 -96h-86l6 96l-80 -53l-43 74l85 43l-85 43l43 74l80 -53l-6 96h86l-6 -96z" />
    <glyph glyph-name="uni2070" unicode="&#x2070;" horiz-adv-x="404" 
d="M203 337q-65 0 -109 49t-44 134t44 134t108 49t108 -49.5t44 -134.5q0 -84 -43.5 -133t-107.5 -49zM203 434q52 0 52 85t-53 85q-52 0 -52 -84q0 -86 53 -86z" />
    <glyph glyph-name="uni2074" unicode="&#x2074;" horiz-adv-x="402" 
d="M357 500v-79h-60v-81h-85v81h-167v50l137 229h115v-200h60zM161 500h51v70h-9z" />
    <glyph glyph-name="uni2075" unicode="&#x2075;" horiz-adv-x="389" 
d="M213 588q55 0 90.5 -34t35.5 -88q0 -57 -40 -93t-103 -36q-64 0 -105 37.5t-41 87.5h96q4 -18 17.5 -30t32.5 -12q22 0 35.5 14.5t13.5 32.5t-13 32t-37 14q-29 0 -48 -27l-82 16l22 198h231v-80h-153l-7 -43q25 11 55 11z" />
    <glyph glyph-name="uni2076" unicode="&#x2076;" horiz-adv-x="366" 
d="M191 567q55 3 90 -29.5t35 -81.5q0 -51 -40 -85t-93 -34q-54 0 -93.5 35.5t-39.5 88.5q0 30 10.5 54.5t36.5 64.5l82 120h110zM183 420q20 0 31.5 10.5t11.5 26.5t-12 27t-31 11t-31 -11t-12 -27q0 -15 12 -26t31 -11z" />
    <glyph glyph-name="uni2077" unicode="&#x2077;" horiz-adv-x="364" 
d="M50 700h269v-62q-71 -86 -95 -146.5t-26 -151.5h-99q4 89 25.5 149t66.5 123h-141v88z" />
    <glyph glyph-name="uni2078" unicode="&#x2078;" horiz-adv-x="374" 
d="M273 536q22 -8 36.5 -29.5t14.5 -52.5q0 -48 -38 -82.5t-100 -34.5t-99 34.5t-37 83.5q0 63 49 81v7q-34 18 -34 66q0 43 36.5 68.5t85.5 25.5q50 0 85.5 -25.5t35.5 -68.5q0 -47 -35 -66v-7zM187 629q-18 0 -26.5 -10t-8.5 -22q0 -13 8.5 -22t25.5 -9t26.5 9.5t9.5 22.5
q0 12 -8.5 21.5t-26.5 9.5zM186 411q22 0 35.5 14.5t13.5 32.5q0 17 -13 31.5t-36 14.5t-35 -14.5t-12 -31.5q0 -18 12.5 -32.5t34.5 -14.5z" />
    <glyph glyph-name="uni2079" unicode="&#x2079;" horiz-adv-x="366" 
d="M175 473q-55 -3 -90 29.5t-35 81.5q0 51 40 85t93 34q54 0 93.5 -35.5t39.5 -88.5q0 -30 -10.5 -54.5t-36.5 -64.5l-82 -120h-110zM183 620q-20 0 -31.5 -10.5t-11.5 -26.5t12 -27t31 -11t31 11t12 27q0 15 -12 26t-31 11z" />
    <glyph glyph-name="uni2080" unicode="&#x2080;" horiz-adv-x="404" 
d="M203 -103q-65 0 -109 49t-44 134t44 134t108 49t108 -49.5t44 -134.5q0 -84 -43.5 -133t-107.5 -49zM203 -6q52 0 52 85t-53 85q-52 0 -52 -84q0 -86 53 -86z" />
    <glyph glyph-name="uni2081" unicode="&#x2081;" horiz-adv-x="286" 
d="M139 -100v214h-94v81h57q19 0 30 11.5t11 30.5v23h92l1 -360h-97z" />
    <glyph glyph-name="uni2082" unicode="&#x2082;" horiz-adv-x="372" 
d="M245 40l-25.5 -15.5l-22.5 -13t-16 -10.5t-12 -12h150v-89h-269v36q0 42 23.5 78t63.5 58q53 29 71.5 43t18.5 29q0 12 -10.5 20t-29.5 8q-45 0 -45 -43h-91q0 51 35.5 92.5t106.5 41.5q59 0 94 -30t35 -82q0 -37 -19 -62t-58 -49z" />
    <glyph glyph-name="uni2083" unicode="&#x2083;" horiz-adv-x="378" 
d="M273 85q17 -4 36 -26t19 -53q0 -44 -37.5 -76.5t-97.5 -32.5q-63 0 -103 36.5t-40 91.5h92q1 -18 14.5 -30.5t37.5 -12.5q39 0 39 31q0 34 -48 34h-24v74h23q42 0 42 29q0 30 -35 30q-33 0 -38 -29h-91q0 46 36 79t97 33q56 0 88 -28t32 -72q0 -53 -42 -72v-6z" />
    <glyph glyph-name="uni2084" unicode="&#x2084;" horiz-adv-x="402" 
d="M357 60v-79h-60v-81h-85v81h-167v50l137 229h115v-200h60zM161 60h51v70h-9z" />
    <glyph glyph-name="uni2085" unicode="&#x2085;" horiz-adv-x="389" 
d="M213 148q55 0 90.5 -34t35.5 -88q0 -57 -40 -93t-103 -36q-64 0 -105 37.5t-41 87.5h96q4 -18 17.5 -30t32.5 -12q22 0 35.5 14.5t13.5 32.5t-13 32t-37 14q-29 0 -48 -27l-82 16l22 198h231v-80h-153l-7 -43q25 11 55 11z" />
    <glyph glyph-name="uni2086" unicode="&#x2086;" horiz-adv-x="366" 
d="M191 127q55 3 90 -29.5t35 -81.5q0 -51 -40 -85t-93 -34q-54 0 -93.5 35.5t-39.5 88.5q0 30 10.5 54.5t36.5 64.5l82 120h110zM183 -20q20 0 31.5 10.5t11.5 26.5t-12 27t-31 11t-31 -11t-12 -27q0 -15 12 -26t31 -11z" />
    <glyph glyph-name="uni2087" unicode="&#x2087;" horiz-adv-x="364" 
d="M50 260h269v-62q-71 -86 -95 -146.5t-26 -151.5h-99q4 89 25.5 149t66.5 123h-141v88z" />
    <glyph glyph-name="uni2088" unicode="&#x2088;" horiz-adv-x="374" 
d="M273 96q22 -8 36.5 -29.5t14.5 -52.5q0 -48 -38 -82.5t-100 -34.5t-99 34.5t-37 83.5q0 63 49 81v7q-34 18 -34 66q0 43 36.5 68.5t85.5 25.5q50 0 85.5 -25.5t35.5 -68.5q0 -47 -35 -66v-7zM187 189q-18 0 -26.5 -10t-8.5 -22q0 -13 8.5 -22t25.5 -9t26.5 9.5t9.5 22.5
q0 12 -8.5 21.5t-26.5 9.5zM186 -29q22 0 35.5 14.5t13.5 32.5q0 17 -13 31.5t-36 14.5t-35 -14.5t-12 -31.5q0 -18 12.5 -32.5t34.5 -14.5z" />
    <glyph glyph-name="uni2089" unicode="&#x2089;" horiz-adv-x="366" 
d="M175 33q-55 -3 -90 29.5t-35 81.5q0 51 40 85t93 34q54 0 93.5 -35.5t39.5 -88.5q0 -30 -10.5 -54.5t-36.5 -64.5l-82 -120h-110zM183 180q-20 0 -31.5 -10.5t-11.5 -26.5t12 -27t31 -11t31 11t12 27q0 15 -12 26t-31 11z" />
    <glyph glyph-name="Euro" unicode="&#x20ac;" horiz-adv-x="650" 
d="M428 118q44 0 79 16.5t50 32.5l53 -110q-33 -29 -88.5 -45.5t-105.5 -16.5q-93 0 -173 58.5t-113 154.5h-80v101h62v11v18h-62v101h83q34 93 112.5 149.5t170.5 56.5q50 0 105.5 -16.5t88.5 -45.5l-53 -110q-14 16 -52.5 32.5t-81.5 16.5q-45 0 -84.5 -21.5t-62.5 -61.5
h264l-44 -101h-248q-1 -6 -1 -18v-11h238l-45 -101h-167q24 -44 65.5 -67t89.5 -23z" />
    <glyph glyph-name="uni2113" unicode="&#x2113;" horiz-adv-x="458" 
d="M235 229q0 -118 92 -118q24 0 47.5 7t35.5 14l11 7v-112q-52 -32 -119 -32q-81 0 -133 57.5t-52 148.5v17q-23 -3 -44.5 -4t-32.5 0h-10v101q42 5 87 13v112q0 98 41.5 151.5t115.5 53.5q80 0 119.5 -41.5t39.5 -106.5q0 -75 -51.5 -143t-146.5 -106v-19zM278 529
q-25 0 -34 -22t-9 -67v-72q82 47 82 115q0 46 -39 46z" />
    <glyph glyph-name="trademark" unicode="&#x2122;" horiz-adv-x="745" 
d="M296 700v-78h-88v-272h-90v272h-88v78h266zM715 700v-350h-87v196l-59 -171h-78l-60 174v-199h-86v350h115l69 -205h2l69 205h115z" />
    <glyph glyph-name="arrowup" unicode="&#x2191;" horiz-adv-x="709" 
d="M659 445l-83 -83l-161 162v-557h-120v558l-162 -163l-83 83l285 285h39z" />
    <glyph glyph-name="arrowdown" unicode="&#x2193;" horiz-adv-x="709" 
d="M576 328l83 -83l-285 -285h-39l-285 285l83 83l161 -162v557h120v-558z" />
    <glyph glyph-name="arrowboth" unicode="&#x2194;" horiz-adv-x="1034" 
d="M709 609l285 -285v-39l-285 -285l-83 83l163 162h-544l163 -162l-83 -83l-285 285v39l285 285l83 -83l-162 -161h542l-162 161z" />
    <glyph glyph-name="arrowupdn" unicode="&#x2195;" horiz-adv-x="709" 
d="M415 70l161 162l83 -83l-285 -285h-39l-285 285l83 83l162 -163v543l-162 -163l-83 83l285 285h39l285 -285l-83 -83l-161 162v-541z" />
    <glyph glyph-name="uni2196" unicode="&#x2196;" horiz-adv-x="671" 
d="M631 82l-85 -85l-370 372v-230h-116v403l28 27h403v-116h-231z" />
    <glyph glyph-name="uni2197" unicode="&#x2197;" horiz-adv-x="671" 
d="M583 569l28 -27v-403h-116v230l-370 -372l-85 85l371 371h-231v116h403z" />
    <glyph glyph-name="uni2198" unicode="&#x2198;" horiz-adv-x="672" 
d="M496 506h116v-403l-27 -28h-403v116h230l-372 370l85 85l371 -371v231z" />
    <glyph glyph-name="uni2199" unicode="&#x2199;" horiz-adv-x="672" 
d="M632 561l-372 -370h230v-116h-403l-27 28v403h116v-231l371 371z" />
    <glyph glyph-name="partialdiff" unicode="&#x2202;" horiz-adv-x="603" 
d="M553 344q0 -349 -243 -349q-112 0 -186 69.5t-74 175.5q0 107 75 181t176 74q42 0 75 -14.5t44 -28.5l12 -14q-3 30 -12.5 59t-25.5 57.5t-43 47t-61 22.5q-29 3 -54.5 -5.5t-36.5 -18.5l-11 -11l-104 42q2 5 6.5 12.5t22 27.5t39 35t59.5 26.5t81 10.5
q131 -4 196 -112.5t65 -286.5zM298 110q55 0 91 41t36 97q0 55 -35.5 93.5t-88.5 38.5q-54 0 -89.5 -40t-35.5 -97q0 -56 35 -94.5t87 -38.5z" />
    <glyph glyph-name="emptyset" unicode="&#x2205;" horiz-adv-x="660" 
d="M578 465q52 -77 52 -170q0 -125 -88 -212.5t-212 -87.5q-93 0 -169 52l-46 -47l-79 80l46 46q-52 76 -52 169q0 125 88 212.5t212 87.5q92 0 168 -51l47 47l79 -80zM141 295q0 -46 21 -88l255 256q-42 21 -87 21q-79 0 -134 -55t-55 -134zM330 106q78 0 133.5 55
t55.5 134q0 47 -22 89l-255 -257q42 -21 88 -21z" />
    <glyph glyph-name="product" unicode="&#x220f;" horiz-adv-x="690" 
d="M70 700h550v-787h-120v669h-310v-669h-120v787z" />
    <glyph glyph-name="summation" unicode="&#x2211;" horiz-adv-x="601" 
d="M40 616v84h521v-114h-341l267 -279l-267 -280h341v-114h-521v84l287 310z" />
    <glyph glyph-name="minus" unicode="&#x2212;" horiz-adv-x="460" 
d="M50 368h360v-114h-360v114z" />
    <glyph glyph-name="radical" unicode="&#x221a;" horiz-adv-x="702" 
d="M692 800v-114h-134l-250 -686h-133l-145 340h132l71 -168h7l228 628h224z" />
    <glyph glyph-name="infinity" unicode="&#x221e;" horiz-adv-x="771" 
d="M563 507q75 0 126.5 -47t51.5 -124t-51 -123.5t-128 -46.5q-103 0 -173 87h-10q-78 -87 -172 -87q-75 0 -126 46.5t-51 123.5t51.5 124t126.5 47q103 0 174 -88h10q74 88 171 88zM206 281q45 0 99 54q-58 56 -98 56q-23 0 -41 -15t-18 -41t18 -40t40 -14zM565 281
q22 0 40.5 14t18.5 40t-18.5 41t-41.5 15q-37 0 -99 -56q57 -54 100 -54z" />
    <glyph glyph-name="integral" unicode="&#x222b;" horiz-adv-x="674" 
d="M492 705q25 0 47.5 -7t37.5 -16.5t26 -19t16 -16.5l5 -7l-76 -66q-18 24 -50 24q-45 0 -54 -53l-103 -626q-10 -55 -55.5 -89t-103.5 -34q-25 0 -47.5 7t-37.5 16.5t-26 19t-16 16.5l-5 7l76 66q18 -24 50 -24q45 0 54 53l103 626q10 55 55.5 89t103.5 34z" />
    <glyph glyph-name="approxequal" unicode="&#x2248;" horiz-adv-x="620" 
d="M570 472q-2 -6 -6 -16t-20 -34.5t-36.5 -42t-56 -28.5t-77.5 -4q-33 6 -80 28t-71 23q-24 0 -44.5 -12t-29.5 -24l-9 -13l-90 40q2 6 6 16t20.5 34t37 41t56 28.5t76.5 5.5q36 -5 81.5 -28t69.5 -23t44.5 12t29.5 25l9 12zM570 272q-2 -6 -6 -16t-20 -35t-36.5 -42.5
t-56 -28.5t-77.5 -3q-32 6 -79.5 28.5t-71.5 22.5t-44.5 -12t-29.5 -24l-9 -13l-90 40q2 6 6 16t20.5 34t37 41t56 28.5t76.5 5.5q36 -5 81.5 -28t69.5 -23t44.5 12t29.5 25l9 12z" />
    <glyph glyph-name="notequal" unicode="&#x2260;" horiz-adv-x="595" 
d="M545 329h-157l-55 -79h212v-115h-293l-84 -120l-71 49l50 71h-97v115h177l55 79h-232v116h313l84 121l72 -50l-50 -71h76v-116z" />
    <glyph glyph-name="lessequal" unicode="&#x2264;" horiz-adv-x="515" 
d="M465 605v-138l-224 -80v-15l224 -80v-138l-415 166v118zM465 111v-111h-415v111h415z" />
    <glyph glyph-name="greaterequal" unicode="&#x2265;" horiz-adv-x="515" 
d="M50 605l415 -167v-118l-415 -166v138l224 80v15l-224 80v138zM50 111h415v-111h-415v111z" />
    <glyph glyph-name="lozenge" unicode="&#x25ca;" horiz-adv-x="640" 
d="M320 580l290 -290l-290 -290l-290 290zM320 415l-125 -125l125 -125l125 125z" />
    <glyph glyph-name="uni2731" unicode="&#x2731;" horiz-adv-x="542" 
d="M482 356l-109 -58l109 -59l-55 -95l-105 65l4 -124h-109l4 125l-106 -66l-55 94l109 60l-109 58l54 95l106 -65l-3 123h109l-3 -122l104 64z" />
    <glyph glyph-name="uni2780" unicode="&#x2780;" horiz-adv-x="810" 
d="M405 -5q-147 0 -251 104t-104 251t104 251t251 104q146 0 250.5 -104t104.5 -251t-104.5 -251t-250.5 -104zM405 89q106 0 181 74.5t75 186.5t-75 186.5t-181 74.5t-181 -74.5t-75 -186.5t75 -186.5t181 -74.5zM374 157v233h-94v81h57q19 0 30 11.5t11 30.5v29h92l1 -385
h-97z" />
    <glyph glyph-name="uni2781" unicode="&#x2781;" horiz-adv-x="810" 
d="M405 -5q-147 0 -251 104t-104 251t104 251t251 104q146 0 250.5 -104t104.5 -251t-104.5 -251t-250.5 -104zM405 89q106 0 181 74.5t75 186.5t-75 186.5t-181 74.5t-181 -74.5t-75 -186.5t75 -186.5t181 -74.5zM467 316q-9 -6 -26 -15.5l-25.5 -14.5t-16 -13t-8.5 -15
h155v-89h-279v36q0 58 23 90t64 56l29 15.5t28 15.5t21.5 14t16.5 17t5 20q0 15 -11.5 24t-29.5 9q-25 0 -39.5 -15.5t-14.5 -37.5h-91q0 57 37.5 100.5t109.5 43.5q60 0 97 -32t37 -86q0 -73 -82 -123z" />
    <glyph glyph-name="uni2782" unicode="&#x2782;" horiz-adv-x="810" 
d="M405 -5q-147 0 -251 104t-104 251t104 251t251 104q146 0 250.5 -104t104.5 -251t-104.5 -251t-250.5 -104zM405 89q106 0 181 74.5t75 186.5t-75 186.5t-181 74.5t-181 -74.5t-75 -186.5t75 -186.5t181 -74.5zM492 354q19 -4 37.5 -24t18.5 -56q0 -50 -39.5 -84.5
t-100.5 -34.5q-64 0 -106 36.5t-42 91.5h92q1 -17 17 -30t38 -13q20 0 33 10t13 29q0 37 -58 37h-27v74h24q54 0 54 37q0 15 -11 25.5t-29 10.5q-17 0 -29 -10t-14 -24h-91q0 46 38.5 81.5t99.5 35.5q56 0 90.5 -30.5t34.5 -76.5q0 -31 -14.5 -52t-28.5 -27v-6z" />
    <glyph glyph-name="uni2783" unicode="&#x2783;" horiz-adv-x="810" 
d="M405 -5q-147 0 -251 104t-104 251t104 251t251 104q146 0 250.5 -104t104.5 -251t-104.5 -251t-250.5 -104zM405 89q106 0 181 74.5t75 186.5t-75 186.5t-181 74.5t-181 -74.5t-75 -186.5t75 -186.5t181 -74.5zM557 318v-79h-65v-81h-85v81h-172v50l142 254h115v-225h65z
M349 318h58v95h-9z" />
    <glyph glyph-name="uni2784" unicode="&#x2784;" horiz-adv-x="810" 
d="M405 -5q-147 0 -251 104t-104 251t104 251t251 104q146 0 250.5 -104t104.5 -251t-104.5 -251t-250.5 -104zM405 89q106 0 181 74.5t75 186.5t-75 186.5t-181 74.5t-181 -74.5t-75 -186.5t75 -186.5t181 -74.5zM424 418q54 0 92 -38.5t38 -95.5q0 -60 -42 -97.5
t-106 -37.5q-65 0 -108 37.5t-43 87.5h96q4 -18 19 -30t37 -12q23 0 38 14.5t15 37.5q0 22 -13.5 38t-41.5 16q-31 0 -53 -27l-82 16l23 210h240v-80h-157l-8 -51q27 12 56 12z" />
    <glyph glyph-name="uni2785" unicode="&#x2785;" horiz-adv-x="810" 
d="M405 -5q-147 0 -251 104t-104 251t104 251t251 104q146 0 250.5 -104t104.5 -251t-104.5 -251t-250.5 -104zM405 89q106 0 181 74.5t75 186.5t-75 186.5t-181 74.5t-181 -74.5t-75 -186.5t75 -186.5t181 -74.5zM425 415q46 0 81 -36t35 -92q0 -61 -42 -95t-99 -34
q-58 0 -99.5 35t-41.5 99q0 56 47 129l90 125h112l-104 -134q9 3 21 3zM400 241q22 0 36 13t14 34t-14 34.5t-36 13.5t-36 -13.5t-14 -34.5t14 -34t36 -13z" />
    <glyph glyph-name="uni2786" unicode="&#x2786;" horiz-adv-x="810" 
d="M405 -5q-147 0 -251 104t-104 251t104 251t251 104q146 0 250.5 -104t104.5 -251t-104.5 -251t-250.5 -104zM405 89q106 0 181 74.5t75 186.5t-75 186.5t-181 74.5t-181 -74.5t-75 -186.5t75 -186.5t181 -74.5zM277 529h279v-62q-76 -92 -100 -157t-26 -166h-99
q4 100 24 164.5t68 132.5h-146v88z" />
    <glyph glyph-name="uni2787" unicode="&#x2787;" horiz-adv-x="810" 
d="M405 -5q-147 0 -251 104t-104 251t104 251t251 104q146 0 250.5 -104t104.5 -251t-104.5 -251t-250.5 -104zM405 89q106 0 181 74.5t75 186.5t-75 186.5t-181 74.5t-181 -74.5t-75 -186.5t75 -186.5t181 -74.5zM494 365q26 -9 40.5 -34.5t14.5 -55.5q0 -50 -39.5 -85
t-105.5 -35t-104.5 35t-38.5 85q0 30 14 55.5t40 34.5v7q-39 21 -39 72q0 48 39 75t90 27t89.5 -26.5t38.5 -75.5q0 -51 -39 -72v-7zM405 472q-17 0 -27 -10t-10 -26t10 -25.5t26 -9.5t27 9.5t11 26.5q0 15 -10 25t-27 10zM404 229q26 0 39.5 15t13.5 37t-13 37t-40 15
q-26 0 -38.5 -15t-12.5 -37t13 -37t38 -15z" />
    <glyph glyph-name="uni2788" unicode="&#x2788;" horiz-adv-x="810" 
d="M405 -5q-147 0 -251 104t-104 251t104 251t251 104q146 0 250.5 -104t104.5 -251t-104.5 -251t-250.5 -104zM405 89q106 0 181 74.5t75 186.5t-75 186.5t-181 74.5t-181 -74.5t-75 -186.5t75 -186.5t181 -74.5zM412 540q58 0 99.5 -35t41.5 -99q0 -56 -47 -129l-90 -125
h-109l106 138q-9 -3 -21 -3q-48 0 -84.5 34t-36.5 91q0 61 42 94.5t99 33.5zM412 362q22 0 36 13.5t14 34.5t-14 34t-36 13t-36 -13t-14 -34t14 -34.5t36 -13.5z" />
    <glyph glyph-name="uni2789" unicode="&#x2789;" horiz-adv-x="810" 
d="M405 -5q-147 0 -251 104t-104 251t104 251t251 104q146 0 250.5 -104t104.5 -251t-104.5 -251t-250.5 -104zM405 89q106 0 181 74.5t75 186.5t-75 186.5t-181 74.5t-181 -74.5t-75 -186.5t75 -186.5t181 -74.5zM494 196q-55 0 -87.5 42t-32.5 112t32.5 111.5t87.5 41.5
t87.5 -41.5t32.5 -111.5t-32.5 -112t-87.5 -42zM267 199v173h-70v73h41q32 0 32 32v23h83l1 -301h-87zM495 281q35 0 35 66q0 70 -35 70q-36 0 -36 -69q0 -67 36 -67z" />
    <glyph glyph-name="uni278A" unicode="&#x278a;" horiz-adv-x="810" 
d="M405 -5q146 0 250.5 104t104.5 251t-104.5 251t-250.5 104q-147 0 -251 -104t-104 -251t104 -251t251 -104zM384 155v233h-94v81h57q19 0 30 11.5t11 30.5v29h92l1 -385h-97z" />
    <glyph glyph-name="uni278B" unicode="&#x278b;" horiz-adv-x="810" 
d="M405 -5q146 0 250.5 104t104.5 251t-104.5 251t-250.5 104q-147 0 -251 -104t-104 -251t104 -251t251 -104zM468 315q-9 -6 -26 -15.5l-25.5 -14.5t-16 -13t-8.5 -15h155v-89h-279v36q0 58 23 90t64 56l29 15.5t28 15.5t21.5 14t16.5 17t5 20q0 15 -11.5 24t-29.5 9
q-25 0 -39.5 -15.5t-14.5 -37.5h-91q0 57 37.5 100.5t109.5 43.5q60 0 97 -32t37 -86q0 -73 -82 -123z" />
    <glyph glyph-name="uni278C" unicode="&#x278c;" horiz-adv-x="810" 
d="M405 -5q146 0 250.5 104t104.5 251t-104.5 251t-250.5 104q-147 0 -251 -104t-104 -251t104 -251t251 -104zM502 353q19 -4 37.5 -24t18.5 -56q0 -50 -39.5 -84.5t-100.5 -34.5q-64 0 -106 36.5t-42 91.5h92q1 -17 17 -30t38 -13q20 0 33 10t13 29q0 37 -58 37h-27v74h24
q54 0 54 37q0 15 -11 25.5t-29 10.5q-17 0 -29 -10t-14 -24h-91q0 46 38.5 81.5t99.5 35.5q56 0 90.5 -30.5t34.5 -76.5q0 -31 -14.5 -52t-28.5 -27v-6z" />
    <glyph glyph-name="uni278D" unicode="&#x278d;" horiz-adv-x="810" 
d="M405 -5q146 0 250.5 104t104.5 251t-104.5 251t-250.5 104q-147 0 -251 -104t-104 -251t104 -251t251 -104zM558 316v-79h-65v-81h-85v81h-172v50l142 254h115v-225h65zM350 316h58v95h-9z" />
    <glyph glyph-name="uni278E" unicode="&#x278e;" horiz-adv-x="810" 
d="M405 -5q146 0 250.5 104t104.5 251t-104.5 251t-250.5 104q-147 0 -251 -104t-104 -251t104 -251t251 -104zM430 419q54 0 92 -38.5t38 -95.5q0 -60 -42 -97.5t-106 -37.5q-65 0 -108 37.5t-43 87.5h96q4 -18 19 -30t37 -12q23 0 38 14.5t15 37.5q0 22 -13.5 38t-41.5 16
q-31 0 -53 -27l-82 16l23 210h240v-80h-157l-8 -51q27 12 56 12z" />
    <glyph glyph-name="uni278F" unicode="&#x278f;" horiz-adv-x="810" 
d="M405 -5q146 0 250.5 104t104.5 251t-104.5 251t-250.5 104q-147 0 -251 -104t-104 -251t104 -251t251 -104zM427 416q46 0 81 -36t35 -92q0 -61 -42 -95t-99 -34q-58 0 -99.5 35t-41.5 99q0 56 47 129l90 125h112l-104 -134q9 3 21 3zM402 242q22 0 36 13t14 34t-14 34.5
t-36 13.5t-36 -13.5t-14 -34.5t14 -34t36 -13z" />
    <glyph glyph-name="uni2790" unicode="&#x2790;" horiz-adv-x="810" 
d="M405 -5q146 0 250.5 104t104.5 251t-104.5 251t-250.5 104q-147 0 -251 -104t-104 -251t104 -251t251 -104zM282 526h279v-62q-76 -92 -100 -157t-26 -166h-99q4 100 24 164.5t68 132.5h-146v88z" />
    <glyph glyph-name="uni2791" unicode="&#x2791;" horiz-adv-x="810" 
d="M405 -5q146 0 250.5 104t104.5 251t-104.5 251t-250.5 104q-147 0 -251 -104t-104 -251t104 -251t251 -104zM497 364q26 -9 40.5 -34.5t14.5 -55.5q0 -50 -39.5 -85t-105.5 -35t-104.5 35t-38.5 85q0 30 14 55.5t40 34.5v7q-39 21 -39 72q0 48 39 75t90 27t89.5 -26.5
t38.5 -75.5q0 -51 -39 -72v-7zM408 471q-17 0 -27 -10t-10 -26t10 -25.5t26 -9.5t27 9.5t11 26.5q0 15 -10 25t-27 10zM407 228q26 0 39.5 15t13.5 37t-13 37t-40 15q-26 0 -38.5 -15t-12.5 -37t13 -37t38 -15z" />
    <glyph glyph-name="uni2792" unicode="&#x2792;" horiz-adv-x="810" 
d="M405 -5q146 0 250.5 104t104.5 251t-104.5 251t-250.5 104q-147 0 -251 -104t-104 -251t104 -251t251 -104zM419 543q58 0 99.5 -35t41.5 -99q0 -56 -47 -129l-90 -125h-109l106 138q-9 -3 -21 -3q-48 0 -84.5 34t-36.5 91q0 61 42 94.5t99 33.5zM419 365q22 0 36 13.5
t14 34.5t-14 34t-36 13t-36 -13t-14 -34t14 -34.5t36 -13.5z" />
    <glyph glyph-name="uni2793" unicode="&#x2793;" horiz-adv-x="810" 
d="M405 -5q-147 0 -251 104t-104 251t104 251t251 104q146 0 250.5 -104t104.5 -251t-104.5 -251t-250.5 -104zM501 196q55 0 87.5 42t32.5 112t-32.5 111.5t-87.5 41.5t-87.5 -41.5t-32.5 -111.5t32.5 -112t87.5 -42zM264 199h87l-1 301h-83v-23q0 -32 -32 -32h-41v-73h70
v-173zM502 281q-36 0 -36 67q0 69 36 69q35 0 35 -70q0 -66 -35 -66z" />
    <glyph glyph-name="a.fina" horiz-adv-x="628" 
d="M546 117l72 -38l-3 -9t-11 -20.5t-20.5 -25.5t-33 -20t-47.5 -9q-80 0 -112 74q-46 -74 -156 -74q-85 0 -135 41.5t-50 111.5q0 39 15 68.5t43.5 47.5t57.5 29.5t69.5 17t65.5 7t58 2.5q-3 79 -85 79q-20 0 -35.5 -4.5t-23 -11.5t-12.5 -13.5t-6 -11.5l-1 -4h-123
q7 68 61 109.5t140 41.5q91 0 147 -50.5t56 -153.5v-133q0 -73 37 -73q11 0 19 5.5t11 11.5zM176 153q0 -39 43 -51q50 -13 93 20q42 31 45 88v15q-42 -2 -68 -5t-55.5 -10.5t-43.5 -21.5t-14 -35z" />
    <glyph glyph-name="aacute.fina" horiz-adv-x="628" 
d="M430 690l-119 -135h-88l63 135h144zM546 117l72 -38l-3 -9t-11 -20.5t-20.5 -25.5t-33 -20t-47.5 -9q-80 0 -112 74q-46 -74 -156 -74q-85 0 -135 41.5t-50 111.5q0 39 15 68.5t43.5 47.5t57.5 29.5t69.5 17t65.5 7t58 2.5q-3 79 -85 79q-20 0 -35.5 -4.5t-23 -11.5
t-12.5 -13.5t-6 -11.5l-1 -4h-123q7 68 61 109.5t140 41.5q91 0 147 -50.5t56 -153.5v-133q0 -73 37 -73q11 0 19 5.5t11 11.5zM176 153q0 -39 43 -51q50 -13 93 20q42 31 45 88v15q-42 -2 -68 -5t-55.5 -10.5t-43.5 -21.5t-14 -35z" />
    <glyph glyph-name="abreve.fina" horiz-adv-x="628" 
d="M270 573q-60 0 -102.5 37t-42.5 90h97q0 -17 12.5 -30.5t35.5 -13.5q22 0 34 13t12 31h97q0 -53 -41.5 -90t-101.5 -37zM546 117l72 -38l-3 -9t-11 -20.5t-20.5 -25.5t-33 -20t-47.5 -9q-80 0 -112 74q-46 -74 -156 -74q-85 0 -135 41.5t-50 111.5q0 39 15 68.5
t43.5 47.5t57.5 29.5t69.5 17t65.5 7t58 2.5q-3 79 -85 79q-20 0 -35.5 -4.5t-23 -11.5t-12.5 -13.5t-6 -11.5l-1 -4h-123q7 68 61 109.5t140 41.5q91 0 147 -50.5t56 -153.5v-133q0 -73 37 -73q11 0 19 5.5t11 11.5zM176 153q0 -39 43 -51q50 -13 93 20q42 31 45 88v15
q-42 -2 -68 -5t-55.5 -10.5t-43.5 -21.5t-14 -35z" />
    <glyph glyph-name="uni01CE.fina" horiz-adv-x="628" 
d="M329 556h-109l-119 154h117l48 -68h17l48 68h117zM546 117l72 -38l-3 -9t-11 -20.5t-20.5 -25.5t-33 -20t-47.5 -9q-80 0 -112 74q-46 -74 -156 -74q-85 0 -135 41.5t-50 111.5q0 39 15 68.5t43.5 47.5t57.5 29.5t69.5 17t65.5 7t58 2.5q-3 79 -85 79q-20 0 -35.5 -4.5
t-23 -11.5t-12.5 -13.5t-6 -11.5l-1 -4h-123q7 68 61 109.5t140 41.5q91 0 147 -50.5t56 -153.5v-133q0 -73 37 -73q11 0 19 5.5t11 11.5zM176 153q0 -39 43 -51q50 -13 93 20q42 31 45 88v15q-42 -2 -68 -5t-55.5 -10.5t-43.5 -21.5t-14 -35z" />
    <glyph glyph-name="acircumflex.fina" horiz-adv-x="628" 
d="M263 624l-48 -68h-117l119 154h109l119 -154h-117l-48 68h-17zM546 117l72 -38l-3 -9t-11 -20.5t-20.5 -25.5t-33 -20t-47.5 -9q-80 0 -112 74q-46 -74 -156 -74q-85 0 -135 41.5t-50 111.5q0 39 15 68.5t43.5 47.5t57.5 29.5t69.5 17t65.5 7t58 2.5q-3 79 -85 79
q-20 0 -35.5 -4.5t-23 -11.5t-12.5 -13.5t-6 -11.5l-1 -4h-123q7 68 61 109.5t140 41.5q91 0 147 -50.5t56 -153.5v-133q0 -73 37 -73q11 0 19 5.5t11 11.5zM176 153q0 -39 43 -51q50 -13 93 20q42 31 45 88v15q-42 -2 -68 -5t-55.5 -10.5t-43.5 -21.5t-14 -35z" />
    <glyph glyph-name="adieresis.fina" horiz-adv-x="628" 
d="M174 551q-30 0 -51.5 21.5t-21.5 51.5t21.5 51t51.5 21t51 -21t21 -51t-21.5 -51.5t-50.5 -21.5zM368 551q-29 0 -50.5 21.5t-21.5 51.5t21 51t51 21t51.5 -21t21.5 -51t-21.5 -51.5t-51.5 -21.5zM546 117l72 -38l-3 -9t-11 -20.5t-20.5 -25.5t-33 -20t-47.5 -9
q-80 0 -112 74q-46 -74 -156 -74q-85 0 -135 41.5t-50 111.5q0 39 15 68.5t43.5 47.5t57.5 29.5t69.5 17t65.5 7t58 2.5q-3 79 -85 79q-20 0 -35.5 -4.5t-23 -11.5t-12.5 -13.5t-6 -11.5l-1 -4h-123q7 68 61 109.5t140 41.5q91 0 147 -50.5t56 -153.5v-133q0 -73 37 -73
q11 0 19 5.5t11 11.5zM176 153q0 -39 43 -51q50 -13 93 20q42 31 45 88v15q-42 -2 -68 -5t-55.5 -10.5t-43.5 -21.5t-14 -35z" />
    <glyph glyph-name="agrave.fina" horiz-adv-x="628" 
d="M345 555h-88l-119 135h144zM546 117l72 -38l-3 -9t-11 -20.5t-20.5 -25.5t-33 -20t-47.5 -9q-80 0 -112 74q-46 -74 -156 -74q-85 0 -135 41.5t-50 111.5q0 39 15 68.5t43.5 47.5t57.5 29.5t69.5 17t65.5 7t58 2.5q-3 79 -85 79q-20 0 -35.5 -4.5t-23 -11.5t-12.5 -13.5
t-6 -11.5l-1 -4h-123q7 68 61 109.5t140 41.5q91 0 147 -50.5t56 -153.5v-133q0 -73 37 -73q11 0 19 5.5t11 11.5zM176 153q0 -39 43 -51q50 -13 93 20q42 31 45 88v15q-42 -2 -68 -5t-55.5 -10.5t-43.5 -21.5t-14 -35z" />
    <glyph glyph-name="amacron.fina" horiz-adv-x="628" 
d="M443 660v-90h-350v90h350zM546 117l72 -38l-3 -9t-11 -20.5t-20.5 -25.5t-33 -20t-47.5 -9q-80 0 -112 74q-46 -74 -156 -74q-85 0 -135 41.5t-50 111.5q0 39 15 68.5t43.5 47.5t57.5 29.5t69.5 17t65.5 7t58 2.5q-3 79 -85 79q-20 0 -35.5 -4.5t-23 -11.5t-12.5 -13.5
t-6 -11.5l-1 -4h-123q7 68 61 109.5t140 41.5q91 0 147 -50.5t56 -153.5v-133q0 -73 37 -73q11 0 19 5.5t11 11.5zM176 153q0 -39 43 -51q50 -13 93 20q42 31 45 88v15q-42 -2 -68 -5t-55.5 -10.5t-43.5 -21.5t-14 -35z" />
    <glyph glyph-name="aogonek.fina" horiz-adv-x="628" 
d="M529 -3q-46 -23 -46 -69q0 -25 16.5 -36t35.5 -9.5t37 8.5l3 -80q-23 -17 -67 -17q-50 0 -82.5 27.5t-32.5 77.5q0 61 52 110q-36 19 -54 60q-46 -74 -156 -74q-85 0 -135 41.5t-50 111.5q0 39 15 68.5t43.5 47.5t57.5 29.5t69.5 17t65.5 7t58 2.5q-3 79 -85 79
q-20 0 -35.5 -4.5t-23 -11.5t-12.5 -13.5t-6 -11.5l-1 -4h-123q7 68 61 109.5t140 41.5q91 0 147 -50.5t56 -153.5v-133q0 -73 37 -73q11 0 19 5.5t11 11.5l2 5l72 -38q-2 -8 -7 -19.5t-28 -34t-54 -28.5zM176 153q0 -39 43 -51q50 -13 93 20q42 31 45 88v15q-42 -2 -68 -5
t-55.5 -10.5t-43.5 -21.5t-14 -35z" />
    <glyph glyph-name="aring.fina" horiz-adv-x="628" 
d="M277 530q-41 0 -70.5 29.5t-29.5 70.5t29.5 70.5t70.5 29.5t71.5 -29.5t30.5 -70.5t-30.5 -70.5t-71.5 -29.5zM278 657q-11 0 -18.5 -8t-7.5 -19t7.5 -19t18.5 -8q10 0 18 8t8 19t-8 19t-18 8zM546 117l72 -38l-3 -9t-11 -20.5t-20.5 -25.5t-33 -20t-47.5 -9
q-80 0 -112 74q-46 -74 -156 -74q-85 0 -135 41.5t-50 111.5q0 39 15 68.5t43.5 47.5t57.5 29.5t69.5 17t65.5 7t58 2.5q-3 79 -85 79q-20 0 -35.5 -4.5t-23 -11.5t-12.5 -13.5t-6 -11.5l-1 -4h-123q7 68 61 109.5t140 41.5q91 0 147 -50.5t56 -153.5v-133q0 -73 37 -73
q11 0 19 5.5t11 11.5zM176 153q0 -39 43 -51q50 -13 93 20q42 31 45 88v15q-42 -2 -68 -5t-55.5 -10.5t-43.5 -21.5t-14 -35z" />
    <glyph glyph-name="atilde.fina" horiz-adv-x="628" 
d="M211 584q-16 1 -29.5 -9t-19.5 -21l-5 -11l-69 44q2 5 5.5 12t16 25.5t27 32t39 22t51.5 3.5q26 -5 61 -26t50 -22q16 -1 30 9t20 21l6 11l69 -46q-2 -5 -5.5 -12t-16 -25.5t-27 -31t-39.5 -21t-52 -3.5q-26 5 -61.5 26t-50.5 22zM546 117l72 -38l-3 -9t-11 -20.5
t-20.5 -25.5t-33 -20t-47.5 -9q-80 0 -112 74q-46 -74 -156 -74q-85 0 -135 41.5t-50 111.5q0 39 15 68.5t43.5 47.5t57.5 29.5t69.5 17t65.5 7t58 2.5q-3 79 -85 79q-20 0 -35.5 -4.5t-23 -11.5t-12.5 -13.5t-6 -11.5l-1 -4h-123q7 68 61 109.5t140 41.5q91 0 147 -50.5
t56 -153.5v-133q0 -73 37 -73q11 0 19 5.5t11 11.5zM176 153q0 -39 43 -51q50 -13 93 20q42 31 45 88v15q-42 -2 -68 -5t-55.5 -10.5t-43.5 -21.5t-14 -35z" />
    <glyph glyph-name="a.ss02" 
d="M412 500h125v-500h-98l-14 48h-15q-48 -53 -127 -53q-97 0 -165 72t-68 183t68 183t165 72q81 0 129 -54v49zM302 118q50 0 80 35.5t30 96.5t-30 96.5t-80 35.5t-86 -35t-36 -97t36 -97t86 -35z" />
    <glyph glyph-name="aacute.ss02" 
d="M440 690l-119 -135h-88l63 135h144zM412 500h125v-500h-98l-14 48h-15q-48 -53 -127 -53q-97 0 -165 72t-68 183t68 183t165 72q81 0 129 -54v49zM302 118q50 0 80 35.5t30 96.5t-30 96.5t-80 35.5t-86 -35t-36 -97t36 -97t86 -35z" />
    <glyph glyph-name="abreve.ss02" 
d="M296 573q-60 0 -102.5 37t-42.5 90h97q0 -17 12.5 -30.5t35.5 -13.5q22 0 34 13t12 31h97q0 -53 -41.5 -90t-101.5 -37zM412 500h125v-500h-98l-14 48h-15q-48 -53 -127 -53q-97 0 -165 72t-68 183t68 183t165 72q81 0 129 -54v49zM302 118q50 0 80 35.5t30 96.5
t-30 96.5t-80 35.5t-86 -35t-36 -97t36 -97t86 -35z" />
    <glyph glyph-name="uni01CE.ss02" 
d="M348 556h-109l-119 154h117l48 -68h17l48 68h117zM412 500h125v-500h-98l-14 48h-15q-48 -53 -127 -53q-97 0 -165 72t-68 183t68 183t165 72q81 0 129 -54v49zM302 118q50 0 80 35.5t30 96.5t-30 96.5t-80 35.5t-86 -35t-36 -97t36 -97t86 -35z" />
    <glyph glyph-name="acircumflex.ss02" 
d="M285 624l-48 -68h-117l119 154h109l119 -154h-117l-48 68h-17zM412 500h125v-500h-98l-14 48h-15q-48 -53 -127 -53q-97 0 -165 72t-68 183t68 183t165 72q81 0 129 -54v49zM302 118q50 0 80 35.5t30 96.5t-30 96.5t-80 35.5t-86 -35t-36 -97t36 -97t86 -35z" />
    <glyph glyph-name="adieresis.ss02" 
d="M200 551q-30 0 -51.5 21.5t-21.5 51.5t21.5 51t51.5 21t51 -21t21 -51t-21.5 -51.5t-50.5 -21.5zM394 551q-29 0 -50.5 21.5t-21.5 51.5t21 51t51 21t51.5 -21t21.5 -51t-21.5 -51.5t-51.5 -21.5zM412 500h125v-500h-98l-14 48h-15q-48 -53 -127 -53q-97 0 -165 72
t-68 183t68 183t165 72q81 0 129 -54v49zM302 118q50 0 80 35.5t30 96.5t-30 96.5t-80 35.5t-86 -35t-36 -97t36 -97t86 -35z" />
    <glyph glyph-name="agrave.ss02" 
d="M361 555h-88l-119 135h144zM412 500h125v-500h-98l-14 48h-15q-48 -53 -127 -53q-97 0 -165 72t-68 183t68 183t165 72q81 0 129 -54v49zM302 118q50 0 80 35.5t30 96.5t-30 96.5t-80 35.5t-86 -35t-36 -97t36 -97t86 -35z" />
    <glyph glyph-name="amacron.ss02" 
d="M469 660v-90h-350v90h350zM412 500h125v-500h-98l-14 48h-15q-48 -53 -127 -53q-97 0 -165 72t-68 183t68 183t165 72q81 0 129 -54v49zM302 118q50 0 80 35.5t30 96.5t-30 96.5t-80 35.5t-86 -35t-36 -97t36 -97t86 -35z" />
    <glyph glyph-name="aogonek.ss02" 
d="M575 -109l3 -80q-23 -17 -67 -17q-50 0 -82.5 27.5t-32.5 77.5q0 58 43 101l-14 48h-15q-48 -53 -127 -53q-97 0 -165 72t-68 183t68 183t165 72q81 0 129 -54v49h125v-500q-6 -2 -14.5 -7t-22.5 -23.5t-14 -41.5q0 -25 16.5 -36t35.5 -9.5t37 8.5zM302 118q50 0 80 35.5
t30 96.5t-30 96.5t-80 35.5t-86 -35t-36 -97t36 -97t86 -35z" />
    <glyph glyph-name="aring.ss02" 
d="M293 530q-41 0 -70.5 29.5t-29.5 70.5t29.5 70.5t70.5 29.5t71.5 -29.5t30.5 -70.5t-30.5 -70.5t-71.5 -29.5zM294 657q-11 0 -18.5 -8t-7.5 -19t7.5 -19t18.5 -8q10 0 18 8t8 19t-8 19t-18 8zM412 500h125v-500h-98l-14 48h-15q-48 -53 -127 -53q-97 0 -165 72t-68 183
t68 183t165 72q81 0 129 -54v49zM302 118q50 0 80 35.5t30 96.5t-30 96.5t-80 35.5t-86 -35t-36 -97t36 -97t86 -35z" />
    <glyph glyph-name="atilde.ss02" 
d="M229 584q-16 1 -29.5 -9t-19.5 -21l-5 -11l-69 44q2 5 5.5 12t16 25.5t27 32t39 22t51.5 3.5q26 -5 61 -26t50 -22q16 -1 30 9t20 21l6 11l69 -46q-2 -5 -5.5 -12t-16 -25.5t-27 -31t-39.5 -21t-52 -3.5q-26 5 -61.5 26t-50.5 22zM412 500h125v-500h-98l-14 48h-15
q-48 -53 -127 -53q-97 0 -165 72t-68 183t68 183t165 72q81 0 129 -54v49zM302 118q50 0 80 35.5t30 96.5t-30 96.5t-80 35.5t-86 -35t-36 -97t36 -97t86 -35z" />
    <glyph glyph-name="a.fina.ss02" horiz-adv-x="688" 
d="M606 117l72 -38q-1 -3 -3.5 -9t-12.5 -20.5t-23.5 -25.5t-37 -20t-52.5 -9q-75 0 -112 60h-15q-46 -60 -139 -60q-98 0 -165.5 72t-67.5 183t67.5 183t164.5 72q82 0 130 -54v49h125v-332q0 -73 37 -73q11 0 19 5.5t11 11.5zM302 118q50 0 80 35.5t30 96.5t-30 96.5
t-80 35.5t-86 -35t-36 -97t36 -97t86 -35z" />
    <glyph glyph-name="aacute.fina.ss02" horiz-adv-x="688" 
d="M438 690l-119 -135h-88l63 135h144zM606 117l72 -38q-1 -3 -3.5 -9t-12.5 -20.5t-23.5 -25.5t-37 -20t-52.5 -9q-75 0 -112 60h-15q-46 -60 -139 -60q-98 0 -165.5 72t-67.5 183t67.5 183t164.5 72q82 0 130 -54v49h125v-332q0 -73 37 -73q11 0 19 5.5t11 11.5zM302 118
q50 0 80 35.5t30 96.5t-30 96.5t-80 35.5t-86 -35t-36 -97t36 -97t86 -35z" />
    <glyph glyph-name="abreve.fina.ss02" horiz-adv-x="688" 
d="M300 573q-60 0 -102.5 37t-42.5 90h97q0 -17 12.5 -30.5t35.5 -13.5q22 0 34 13t12 31h97q0 -53 -41.5 -90t-101.5 -37zM606 117l72 -38q-1 -3 -3.5 -9t-12.5 -20.5t-23.5 -25.5t-37 -20t-52.5 -9q-75 0 -112 60h-15q-46 -60 -139 -60q-98 0 -165.5 72t-67.5 183
t67.5 183t164.5 72q82 0 130 -54v49h125v-332q0 -73 37 -73q11 0 19 5.5t11 11.5zM302 118q50 0 80 35.5t30 96.5t-30 96.5t-80 35.5t-86 -35t-36 -97t36 -97t86 -35z" />
    <glyph glyph-name="uni01CE.fina.ss02" horiz-adv-x="688" 
d="M358 556h-109l-119 154h117l48 -68h17l48 68h117zM606 117l72 -38q-1 -3 -3.5 -9t-12.5 -20.5t-23.5 -25.5t-37 -20t-52.5 -9q-75 0 -112 60h-15q-46 -60 -139 -60q-98 0 -165.5 72t-67.5 183t67.5 183t164.5 72q82 0 130 -54v49h125v-332q0 -73 37 -73q11 0 19 5.5
t11 11.5zM302 118q50 0 80 35.5t30 96.5t-30 96.5t-80 35.5t-86 -35t-36 -97t36 -97t86 -35z" />
    <glyph glyph-name="acircumflex.fina.ss02" horiz-adv-x="688" 
d="M303 624l-48 -68h-117l119 154h109l119 -154h-117l-48 68h-17zM606 117l72 -38q-1 -3 -3.5 -9t-12.5 -20.5t-23.5 -25.5t-37 -20t-52.5 -9q-75 0 -112 60h-15q-46 -60 -139 -60q-98 0 -165.5 72t-67.5 183t67.5 183t164.5 72q82 0 130 -54v49h125v-332q0 -73 37 -73
q11 0 19 5.5t11 11.5zM302 118q50 0 80 35.5t30 96.5t-30 96.5t-80 35.5t-86 -35t-36 -97t36 -97t86 -35z" />
    <glyph glyph-name="adieresis.fina.ss02" horiz-adv-x="688" 
d="M209 551q-30 0 -51.5 21.5t-21.5 51.5t21.5 51t51.5 21t51 -21t21 -51t-21.5 -51.5t-50.5 -21.5zM403 551q-29 0 -50.5 21.5t-21.5 51.5t21 51t51 21t51.5 -21t21.5 -51t-21.5 -51.5t-51.5 -21.5zM606 117l72 -38q-1 -3 -3.5 -9t-12.5 -20.5t-23.5 -25.5t-37 -20
t-52.5 -9q-75 0 -112 60h-15q-46 -60 -139 -60q-98 0 -165.5 72t-67.5 183t67.5 183t164.5 72q82 0 130 -54v49h125v-332q0 -73 37 -73q11 0 19 5.5t11 11.5zM302 118q50 0 80 35.5t30 96.5t-30 96.5t-80 35.5t-86 -35t-36 -97t36 -97t86 -35z" />
    <glyph glyph-name="agrave.fina.ss02" horiz-adv-x="688" 
d="M363 555h-88l-119 135h144zM606 117l72 -38q-1 -3 -3.5 -9t-12.5 -20.5t-23.5 -25.5t-37 -20t-52.5 -9q-75 0 -112 60h-15q-46 -60 -139 -60q-98 0 -165.5 72t-67.5 183t67.5 183t164.5 72q82 0 130 -54v49h125v-332q0 -73 37 -73q11 0 19 5.5t11 11.5zM302 118
q50 0 80 35.5t30 96.5t-30 96.5t-80 35.5t-86 -35t-36 -97t36 -97t86 -35z" />
    <glyph glyph-name="amacron.fina.ss02" horiz-adv-x="688" 
d="M472 660v-90h-350v90h350zM606 117l72 -38q-1 -3 -3.5 -9t-12.5 -20.5t-23.5 -25.5t-37 -20t-52.5 -9q-75 0 -112 60h-15q-46 -60 -139 -60q-98 0 -165.5 72t-67.5 183t67.5 183t164.5 72q82 0 130 -54v49h125v-332q0 -73 37 -73q11 0 19 5.5t11 11.5zM302 118
q50 0 80 35.5t30 96.5t-30 96.5t-80 35.5t-86 -35t-36 -97t36 -97t86 -35z" />
    <glyph glyph-name="aogonek.fina.ss02" horiz-adv-x="688" 
d="M588 0q-7 -3 -16.5 -9.5t-21.5 -24t-12 -38.5q0 -25 16.5 -36t35.5 -9.5t37 8.5l3 -80q-23 -17 -67 -17q-50 0 -82.5 27.5t-32.5 77.5q0 60 48 106q-37 14 -59 50h-15q-46 -60 -139 -60q-98 0 -165.5 72t-67.5 183t67.5 183t164.5 72q82 0 130 -54v49h125v-332
q0 -73 37 -73q11 0 19 5.5t11 11.5l2 5l72 -38q-1 -3 -2.5 -7t-9 -15.5t-16.5 -21.5t-25.5 -20t-36.5 -15zM302 118q50 0 80 35.5t30 96.5t-30 96.5t-80 35.5t-86 -35t-36 -97t36 -97t86 -35z" />
    <glyph glyph-name="aring.fina.ss02" horiz-adv-x="688" 
d="M309 530q-41 0 -70.5 29.5t-29.5 70.5t29.5 70.5t70.5 29.5t71.5 -29.5t30.5 -70.5t-30.5 -70.5t-71.5 -29.5zM310 657q-11 0 -18.5 -8t-7.5 -19t7.5 -19t18.5 -8q10 0 18 8t8 19t-8 19t-18 8zM606 117l72 -38q-1 -3 -3.5 -9t-12.5 -20.5t-23.5 -25.5t-37 -20t-52.5 -9
q-75 0 -112 60h-15q-46 -60 -139 -60q-98 0 -165.5 72t-67.5 183t67.5 183t164.5 72q82 0 130 -54v49h125v-332q0 -73 37 -73q11 0 19 5.5t11 11.5zM302 118q50 0 80 35.5t30 96.5t-30 96.5t-80 35.5t-86 -35t-36 -97t36 -97t86 -35z" />
    <glyph glyph-name="atilde.fina.ss02" horiz-adv-x="688" 
d="M238 584q-16 1 -29.5 -9t-18.5 -21l-6 -11l-69 44q2 5 5.5 12t16 25.5t27 32t39 22t51.5 3.5q26 -5 61 -26t50 -22q16 -1 30 9t20 21l6 11l69 -46q-2 -5 -5.5 -12t-16 -25.5t-27 -31t-39.5 -21t-52 -3.5q-26 5 -61.5 26t-50.5 22zM606 117l72 -38q-1 -3 -3.5 -9
t-12.5 -20.5t-23.5 -25.5t-37 -20t-52.5 -9q-75 0 -112 60h-15q-46 -60 -139 -60q-98 0 -165.5 72t-67.5 183t67.5 183t164.5 72q82 0 130 -54v49h125v-332q0 -73 37 -73q11 0 19 5.5t11 11.5zM302 118q50 0 80 35.5t30 96.5t-30 96.5t-80 35.5t-86 -35t-36 -97t36 -97
t86 -35z" />
    <glyph glyph-name="g.ss02" 
d="M439 500h98v-450q0 -110 -59.5 -182.5t-180.5 -72.5q-111 0 -179 58.5t-68 125.5h125q1 -3 3 -7t10.5 -15.5t20 -20t34 -15.5t50.5 -7q119 0 119 116v19q-48 -54 -129 -54q-97 0 -165 72t-68 183t68 183t165 72q79 0 127 -53h15zM302 118q50 0 80 35.5t30 96.5t-30 96.5
t-80 35.5t-86 -35t-36 -97t36 -97t86 -35z" />
    <glyph glyph-name="uni01F5.ss02" 
d="M437 690l-119 -135h-88l63 135h144zM439 500h98v-450q0 -110 -59.5 -182.5t-180.5 -72.5q-111 0 -179 58.5t-68 125.5h125q1 -3 3 -7t10.5 -15.5t20 -20t34 -15.5t50.5 -7q119 0 119 116v19q-48 -54 -129 -54q-97 0 -165 72t-68 183t68 183t165 72q79 0 127 -53h15z
M302 118q50 0 80 35.5t30 96.5t-30 96.5t-80 35.5t-86 -35t-36 -97t36 -97t86 -35z" />
    <glyph glyph-name="gbreve.ss02" 
d="M296 573q-60 0 -102.5 37t-42.5 90h97q0 -17 12.5 -30.5t35.5 -13.5q22 0 34 13t12 31h97q0 -53 -41.5 -90t-101.5 -37zM439 500h98v-450q0 -110 -59.5 -182.5t-180.5 -72.5q-111 0 -179 58.5t-68 125.5h125q1 -3 3 -7t10.5 -15.5t20 -20t34 -15.5t50.5 -7q119 0 119 116
v19q-48 -54 -129 -54q-97 0 -165 72t-68 183t68 183t165 72q79 0 127 -53h15zM302 118q50 0 80 35.5t30 96.5t-30 96.5t-80 35.5t-86 -35t-36 -97t36 -97t86 -35z" />
    <glyph glyph-name="gcaron.ss02" 
d="M348 556h-109l-119 154h117l48 -68h17l48 68h117zM439 500h98v-450q0 -110 -59.5 -182.5t-180.5 -72.5q-111 0 -179 58.5t-68 125.5h125q1 -3 3 -7t10.5 -15.5t20 -20t34 -15.5t50.5 -7q119 0 119 116v19q-48 -54 -129 -54q-97 0 -165 72t-68 183t68 183t165 72
q79 0 127 -53h15zM302 118q50 0 80 35.5t30 96.5t-30 96.5t-80 35.5t-86 -35t-36 -97t36 -97t86 -35z" />
    <glyph glyph-name="gcircumflex.ss02" 
d="M285 624l-48 -68h-117l119 154h109l119 -154h-117l-48 68h-17zM439 500h98v-450q0 -110 -59.5 -182.5t-180.5 -72.5q-111 0 -179 58.5t-68 125.5h125q1 -3 3 -7t10.5 -15.5t20 -20t34 -15.5t50.5 -7q119 0 119 116v19q-48 -54 -129 -54q-97 0 -165 72t-68 183t68 183
t165 72q79 0 127 -53h15zM302 118q50 0 80 35.5t30 96.5t-30 96.5t-80 35.5t-86 -35t-36 -97t36 -97t86 -35z" />
    <glyph glyph-name="gcommaaccent.ss02" 
d="M322 548q-33 0 -51 23.5t-18 65.5q0 31 10 58t24.5 44t29.5 29.5t25 17.5l10 5l26 -27q-48 -42 -56 -87q27 -1 49 -16.5t22 -46.5q0 -30 -20.5 -48t-50.5 -18zM439 500h98v-450q0 -110 -59.5 -182.5t-180.5 -72.5q-111 0 -179 58.5t-68 125.5h125q1 -3 3 -7t10.5 -15.5
t20 -20t34 -15.5t50.5 -7q119 0 119 116v19q-48 -54 -129 -54q-97 0 -165 72t-68 183t68 183t165 72q79 0 127 -53h15zM302 118q50 0 80 35.5t30 96.5t-30 96.5t-80 35.5t-86 -35t-36 -97t36 -97t86 -35z" />
    <glyph glyph-name="gdotaccent.ss02" 
d="M295 556q-35 0 -60.5 25t-25.5 59q0 36 25 60.5t61 24.5q35 0 59.5 -24.5t24.5 -60.5q0 -34 -25 -59t-59 -25zM439 500h98v-450q0 -110 -59.5 -182.5t-180.5 -72.5q-111 0 -179 58.5t-68 125.5h125q1 -3 3 -7t10.5 -15.5t20 -20t34 -15.5t50.5 -7q119 0 119 116v19
q-48 -54 -129 -54q-97 0 -165 72t-68 183t68 183t165 72q79 0 127 -53h15zM302 118q50 0 80 35.5t30 96.5t-30 96.5t-80 35.5t-86 -35t-36 -97t36 -97t86 -35z" />
    <glyph glyph-name="i.loclTRK" horiz-adv-x="290" 
d="M155 556q-35 0 -60.5 25t-25.5 59q0 36 25 60.5t61 24.5q35 0 59.5 -24.5t24.5 -60.5q0 -34 -25 -59t-59 -25zM219 500v-500h-128v500h128z" />
    <glyph glyph-name="y.ss02" 
d="M420 500h127v-440v-10q0 -110 -59.5 -182.5t-180.5 -72.5q-111 0 -179 58.5t-68 125.5h125q1 -3 3 -7.5t10.5 -16t20 -20.5t34 -16t50.5 -7q61 0 90 31.5t29 86.5v21q-49 -56 -139 -56q-97 0 -155 64.5t-58 169.5l-1 271h130v-241q0 -38 9 -69t34 -55t64 -24q44 0 79 33
t35 121v235z" />
    <glyph glyph-name="yacute.ss02" 
d="M460 690l-119 -135h-88l63 135h144zM420 500h127v-440v-10q0 -110 -59.5 -182.5t-180.5 -72.5q-111 0 -179 58.5t-68 125.5h125q1 -3 3 -7.5t10.5 -16t20 -20.5t34 -16t50.5 -7q61 0 90 31.5t29 86.5v21q-49 -56 -139 -56q-97 0 -155 64.5t-58 169.5l-1 271h130v-241
q0 -38 9 -69t34 -55t64 -24q44 0 79 33t35 121v235z" />
    <glyph glyph-name="ycircumflex.ss02" 
d="M301 624l-48 -68h-117l119 154h109l119 -154h-117l-48 68h-17zM420 500h127v-440v-10q0 -110 -59.5 -182.5t-180.5 -72.5q-111 0 -179 58.5t-68 125.5h125q1 -3 3 -7.5t10.5 -16t20 -20.5t34 -16t50.5 -7q61 0 90 31.5t29 86.5v21q-49 -56 -139 -56q-97 0 -155 64.5
t-58 169.5l-1 271h130v-241q0 -38 9 -69t34 -55t64 -24q44 0 79 33t35 121v235z" />
    <glyph glyph-name="ydieresis.ss02" 
d="M209 551q-30 0 -51.5 21.5t-21.5 51.5t21.5 51t51.5 21t51 -21t21 -51t-21.5 -51.5t-50.5 -21.5zM403 551q-29 0 -50.5 21.5t-21.5 51.5t21 51t51 21t51.5 -21t21.5 -51t-21.5 -51.5t-51.5 -21.5zM420 500h127v-440v-10q0 -110 -59.5 -182.5t-180.5 -72.5
q-111 0 -179 58.5t-68 125.5h125q1 -3 3 -7.5t10.5 -16t20 -20.5t34 -16t50.5 -7q61 0 90 31.5t29 86.5v21q-49 -56 -139 -56q-97 0 -155 64.5t-58 169.5l-1 271h130v-241q0 -38 9 -69t34 -55t64 -24q44 0 79 33t35 121v235z" />
    <glyph glyph-name="ygrave.ss02" 
d="M370 555h-88l-119 135h144zM420 500h127v-440v-10q0 -110 -59.5 -182.5t-180.5 -72.5q-111 0 -179 58.5t-68 125.5h125q1 -3 3 -7.5t10.5 -16t20 -20.5t34 -16t50.5 -7q61 0 90 31.5t29 86.5v21q-49 -56 -139 -56q-97 0 -155 64.5t-58 169.5l-1 271h130v-241q0 -38 9 -69
t34 -55t64 -24q44 0 79 33t35 121v235z" />
    <glyph glyph-name="uni0233.ss02" 
d="M476 660v-90h-350v90h350zM420 500h127v-440v-10q0 -110 -59.5 -182.5t-180.5 -72.5q-111 0 -179 58.5t-68 125.5h125q1 -3 3 -7.5t10.5 -16t20 -20.5t34 -16t50.5 -7q61 0 90 31.5t29 86.5v21q-49 -56 -139 -56q-97 0 -155 64.5t-58 169.5l-1 271h130v-241q0 -38 9 -69
t34 -55t64 -24q44 0 79 33t35 121v235z" />
    <glyph glyph-name="uni1E99.ss02" 
d="M305 530q-41 0 -70.5 29.5t-29.5 70.5t29.5 70.5t70.5 29.5t71.5 -29.5t30.5 -70.5t-30.5 -70.5t-71.5 -29.5zM306 657q-11 0 -18.5 -8t-7.5 -19t7.5 -19t18.5 -8q10 0 18 8t8 19t-8 19t-18 8zM420 500h127v-440v-10q0 -110 -59.5 -182.5t-180.5 -72.5q-111 0 -179 58.5
t-68 125.5h125q1 -3 3 -7.5t10.5 -16t20 -20.5t34 -16t50.5 -7q61 0 90 31.5t29 86.5v21q-49 -56 -139 -56q-97 0 -155 64.5t-58 169.5l-1 271h130v-241q0 -38 9 -69t34 -55t64 -24q44 0 79 33t35 121v235z" />
    <glyph glyph-name="uni1EF9.ss02" 
d="M244 584q-16 1 -29.5 -9t-18.5 -21l-6 -11l-69 44q2 5 5.5 12t16 25.5t27 32t39 22t51.5 3.5q26 -5 61 -26t50 -22q16 -1 30 9t20 21l6 11l69 -46q-2 -5 -5.5 -12t-16 -25.5t-27 -31t-39.5 -21t-52 -3.5q-26 5 -61.5 26t-50.5 22zM420 500h127v-440v-10
q0 -110 -59.5 -182.5t-180.5 -72.5q-111 0 -179 58.5t-68 125.5h125q1 -3 3 -7.5t10.5 -16t20 -20.5t34 -16t50.5 -7q61 0 90 31.5t29 86.5v21q-49 -56 -139 -56q-97 0 -155 64.5t-58 169.5l-1 271h130v-241q0 -38 9 -69t34 -55t64 -24q44 0 79 33t35 121v235z" />
    <glyph glyph-name="zero.lf" horiz-adv-x="584" 
d="M293 -5q-118 0 -180.5 85.5t-62.5 240.5t62 240t180 85t180 -85t62 -241q0 -155 -62 -240t-179 -85zM292 128q101 0 101 191q0 194 -101 194q-100 0 -100 -193q0 -192 100 -192z" />
    <glyph glyph-name="one.lf" horiz-adv-x="395" 
d="M187 0v433h-132v106h73q28 0 46.5 19t18.5 47v35h126l1 -640h-133z" />
    <glyph glyph-name="two.lf" horiz-adv-x="570" 
d="M332 251q-66 -33 -89.5 -62t-23.5 -63h276v-126h-425v51q0 187 159 282q20 12 50.5 27.5t45 23.5t27 24.5t13.5 38.5q2 37 -20 56t-55 19q-38 0 -62 -24t-24 -63h-133q0 35 13 70t37.5 67.5t68.5 53t100 20.5q90 0 150 -50.5t60 -137.5q0 -43 -14.5 -77t-43.5 -59
t-51 -39t-59 -32z" />
    <glyph glyph-name="three.lf" horiz-adv-x="549" 
d="M395 340q41 -15 65 -56.5t24 -91.5q0 -81 -62 -139t-154 -58q-96 0 -159.5 63t-63.5 141h129q3 -32 27 -55.5t65 -23.5q37 0 61.5 20.5t24.5 58.5q0 36 -24 62t-75 26h-43v105h39q47 0 66 22.5t19 50.5q0 31 -21 48t-50 17q-24 0 -44.5 -13.5t-24.5 -46.5h-126
q0 78 59 127t141 49q79 0 135.5 -47.5t56.5 -121.5q0 -41 -17.5 -76.5t-47.5 -52.5v-8z" />
    <glyph glyph-name="four.lf" horiz-adv-x="600" 
d="M550 249v-119h-104v-130h-129v130h-282v81l233 430h128h50v-392h104zM188 249h129v224h-10z" />
    <glyph glyph-name="five.lf" horiz-adv-x="563" 
d="M278 430q99 0 159.5 -62t60.5 -159q0 -100 -63.5 -157t-159.5 -57q-103 0 -161.5 63t-58.5 137h130q0 -3 1 -8t6.5 -18t14 -23t26.5 -18t41 -8q48 0 70 28.5t22 67.5q0 44 -26.5 70t-68.5 26q-25 0 -45.5 -9t-28.5 -18l-8 -9l-121 33l30 332h370v-126h-260l-9 -99
q34 14 79 14z" />
    <glyph glyph-name="six.lf" horiz-adv-x="540" 
d="M266 407q92 0 153 -56t61 -147q0 -95 -63.5 -152t-151.5 -57t-151.5 56.5t-63.5 153.5q0 43 19 104q7 23 33 71.5t50.5 89l60 99l44.5 72.5h145zM265 118q35 0 60.5 21.5t25.5 64.5q0 44 -27 64.5t-59 20.5t-59 -20.5t-27 -64.5q0 -43 26 -64.5t60 -21.5z" />
    <glyph glyph-name="seven.lf" horiz-adv-x="485" 
d="M40 641h405v-95q-89 -92 -141 -233t-52 -313h-133q0 105 15 196t40.5 153t46 99t42.5 65h-223v128z" />
    <glyph glyph-name="eight.lf" horiz-adv-x="582" 
d="M413 346q43 -16 73.5 -59t30.5 -96q0 -78 -64.5 -137t-162.5 -59t-161.5 58.5t-63.5 137.5q0 55 31.5 97.5t72.5 57.5v9q-30 16 -50 50.5t-20 74.5q0 70 56.5 118t137.5 48q78 0 134 -46t56 -115q0 -41 -20 -77t-50 -52v-10zM291 528q-30 0 -49.5 -16.5t-19.5 -43.5
q0 -28 21 -43.5t48 -15.5t47.5 15.5t20.5 43.5q0 27 -19 43.5t-49 16.5zM292 116q42 0 65.5 25t23.5 55q0 31 -24.5 56t-65.5 25t-65.5 -25.5t-24.5 -55.5t24.5 -55t66.5 -25z" />
    <glyph glyph-name="nine.lf" horiz-adv-x="520" 
d="M264 234q-92 0 -153 56t-61 147q0 95 63.5 152t150.5 57t151.5 -56.5t64.5 -148.5q0 -57 -29 -119q-48 -103 -178 -322h-145zM265 523q-35 0 -60.5 -21.5t-25.5 -64.5q0 -44 27 -64.5t59 -20.5t59 20.5t27 64.5q0 43 -26 64.5t-60 21.5z" />
    <glyph glyph-name="zero.case" horiz-adv-x="604" 
d="M303 -5q-123 0 -188 98t-65 258t65 257t187 97t187 -97.5t65 -257.5t-64.5 -257.5t-186.5 -97.5zM302 128q34 0 58 22t34.5 59t14.5 70t4 70q0 38 -4 72t-15 70.5t-34.5 58.5t-57.5 22t-57 -22t-34 -58.5t-15 -70.5t-4 -71q0 -38 4 -71.5t15 -70t34 -58.5t57 -22z" />
    <glyph glyph-name="one.case" horiz-adv-x="408" 
d="M200 0v493h-145v106h76q35 0 55 20t20 56v25h126l1 -700h-133z" />
    <glyph glyph-name="two.case" horiz-adv-x="585" 
d="M337 261q-64 -47 -89.5 -75.5t-25.5 -59.5h288v-126h-440v51q0 63 13.5 112t40.5 83t50.5 54t59.5 43q9 6 30 19t30 19t25.5 18t24.5 21t17.5 21t13.5 25t5 27q2 39 -22 63.5t-62 24.5q-43 0 -67.5 -31.5t-24.5 -74.5h-133q0 35 13 73t38.5 74t70.5 59.5t101 23.5
q93 0 157 -58t64 -146q0 -40 -13 -74t-43.5 -65.5t-48.5 -46t-58 -43.5q-10 -8 -15 -11z" />
    <glyph glyph-name="three.case" horiz-adv-x="564" 
d="M400 370q44 -16 71.5 -62t27.5 -103q0 -88 -63 -149t-159 -61q-99 0 -165.5 63t-66.5 141h129q3 -32 29.5 -55.5t65.5 -23.5q40 0 69 24.5t29 68.5q0 43 -28.5 73.5t-80.5 30.5h-43v105h39q49 0 72 26.5t23 61.5t-23 57t-57 22q-30 0 -50.5 -19.5t-24.5 -55.5h-126
q0 83 61.5 137t146.5 54q83 0 141 -51.5t58 -127.5q0 -46 -21.5 -87.5t-53.5 -60.5v-8z" />
    <glyph glyph-name="four.case" horiz-adv-x="616" 
d="M566 259v-119h-110v-140h-129v140h-292v81l243 479h141h37v-441h110zM201 259h126v234h-10z" />
    <glyph glyph-name="five.case" horiz-adv-x="577" 
d="M284 471q100 0 164 -70.5t64 -172.5q0 -104 -65.5 -168.5t-166.5 -64.5q-102 0 -163.5 63.5t-61.5 136.5h130q0 -3 1.5 -8t7.5 -18t15.5 -23t28 -18t42.5 -8q53 0 77.5 34t24.5 81q0 52 -28 84t-75 32q-32 0 -54.5 -15t-29.5 -30l-7 -15l-121 33l31 376h386v-126h-276
l-10 -122q36 19 86 19z" />
    <glyph glyph-name="six.case" horiz-adv-x="558" 
d="M257 428q98 14 169.5 -48.5t71.5 -165.5q0 -100 -66 -159.5t-159 -59.5t-158 59.5t-65 160.5q0 53 19 114q21 68 203 372h145zM275 118q37 0 65.5 25t28.5 71q0 48 -29.5 71.5t-64.5 23.5q-36 0 -66 -23.5t-30 -71.5q0 -46 29 -71t67 -25z" />
    <glyph glyph-name="seven.case" horiz-adv-x="503" 
d="M40 700h423v-95q-93 -97 -152 -258t-59 -347h-133q0 112 17 212t44.5 170t51.5 114.5t49 75.5h-241v128z" />
    <glyph glyph-name="eight.case" horiz-adv-x="598" 
d="M425 375q45 -16 76.5 -62t31.5 -108q0 -89 -65 -149.5t-170 -60.5q-106 0 -169.5 60.5t-63.5 148.5q0 64 32.5 110t75.5 61v9q-32 18 -53 54.5t-21 84.5q0 81 58.5 131.5t143.5 50.5q83 0 140.5 -48.5t57.5 -128.5q0 -48 -21 -87t-53 -56v-10zM299 587q-32 0 -54.5 -19.5
t-22.5 -55.5q0 -38 23.5 -56t53.5 -18q29 0 52.5 18t23.5 56q0 36 -22 55.5t-54 19.5zM300 116q45 0 71 28t26 67t-27 67t-71 28t-71 -28.5t-27 -66.5t26.5 -66.5t72.5 -28.5z" />
    <glyph glyph-name="nine.case" horiz-adv-x="538" 
d="M291 273q-98 -14 -169.5 48.5t-71.5 165.5q0 100 66 159.5t159 59.5t158 -59.5t65 -160.5q0 -53 -19 -114q-21 -68 -203 -372h-145zM273 583q-37 0 -65.5 -25t-28.5 -71q0 -48 29.5 -71.5t64.5 -23.5q36 0 66 23.5t30 71.5q0 46 -29 71t-67 25z" />
    <glyph glyph-name="zero.lf.case" horiz-adv-x="604" 
d="M303 -5q-123 0 -188 98t-65 258t65 257t187 97t187 -97.5t65 -257.5t-64.5 -257.5t-186.5 -97.5zM302 128q34 0 58 22t34.5 59t14.5 70t4 70q0 38 -4 72t-15 70.5t-34.5 58.5t-57.5 22t-57 -22t-34 -58.5t-15 -70.5t-4 -71q0 -38 4 -71.5t15 -70t34 -58.5t57 -22z" />
    <glyph glyph-name="one.lf.case" horiz-adv-x="408" 
d="M200 0v493h-145v106h76q35 0 55 20t20 56v25h126l1 -700h-133z" />
    <glyph glyph-name="two.lf.case" horiz-adv-x="585" 
d="M337 261q-64 -47 -89.5 -75.5t-25.5 -59.5h288v-126h-440v51q0 63 13.5 112t40.5 83t50.5 54t59.5 43q9 6 30 19t30 19t25.5 18t24.5 21t17.5 21t13.5 25t5 27q2 39 -22 63.5t-62 24.5q-43 0 -67.5 -31.5t-24.5 -74.5h-133q0 35 13 73t38.5 74t70.5 59.5t101 23.5
q93 0 157 -58t64 -146q0 -40 -13 -74t-43.5 -65.5t-48.5 -46t-58 -43.5q-10 -8 -15 -11z" />
    <glyph glyph-name="three.lf.case" horiz-adv-x="564" 
d="M400 370q44 -16 71.5 -62t27.5 -103q0 -88 -63 -149t-159 -61q-99 0 -165.5 63t-66.5 141h129q3 -32 29.5 -55.5t65.5 -23.5q40 0 69 24.5t29 68.5q0 43 -28.5 73.5t-80.5 30.5h-43v105h39q49 0 72 26.5t23 61.5t-23 57t-57 22q-30 0 -50.5 -19.5t-24.5 -55.5h-126
q0 83 61.5 137t146.5 54q83 0 141 -51.5t58 -127.5q0 -46 -21.5 -87.5t-53.5 -60.5v-8z" />
    <glyph glyph-name="four.lf.case" horiz-adv-x="616" 
d="M566 259v-119h-110v-140h-129v140h-292v81l243 479h141h37v-441h110zM201 259h126v234h-10z" />
    <glyph glyph-name="five.lf.case" horiz-adv-x="577" 
d="M284 471q100 0 164 -70.5t64 -172.5q0 -104 -65.5 -168.5t-166.5 -64.5q-102 0 -163.5 63.5t-61.5 136.5h130q0 -3 1.5 -8t7.5 -18t15.5 -23t28 -18t42.5 -8q53 0 77.5 34t24.5 81q0 52 -28 84t-75 32q-32 0 -54.5 -15t-29.5 -30l-7 -15l-121 33l31 376h386v-126h-276
l-10 -122q36 19 86 19z" />
    <glyph glyph-name="six.lf.case" horiz-adv-x="558" 
d="M257 428q98 14 169.5 -48.5t71.5 -165.5q0 -100 -66 -159.5t-159 -59.5t-158 59.5t-65 160.5q0 53 19 114q21 68 203 372h145zM275 118q37 0 65.5 25t28.5 71q0 48 -29.5 71.5t-64.5 23.5q-36 0 -66 -23.5t-30 -71.5q0 -46 29 -71t67 -25z" />
    <glyph glyph-name="seven.lf.case" horiz-adv-x="503" 
d="M40 700h423v-95q-93 -97 -152 -258t-59 -347h-133q0 112 17 212t44.5 170t51.5 114.5t49 75.5h-241v128z" />
    <glyph glyph-name="eight.lf.case" horiz-adv-x="598" 
d="M425 375q45 -16 76.5 -62t31.5 -108q0 -89 -65 -149.5t-170 -60.5q-106 0 -169.5 60.5t-63.5 148.5q0 64 32.5 110t75.5 61v9q-32 18 -53 54.5t-21 84.5q0 81 58.5 131.5t143.5 50.5q83 0 140.5 -48.5t57.5 -128.5q0 -48 -21 -87t-53 -56v-10zM299 587q-32 0 -54.5 -19.5
t-22.5 -55.5q0 -38 23.5 -56t53.5 -18q29 0 52.5 18t23.5 56q0 36 -22 55.5t-54 19.5zM300 116q45 0 71 28t26 67t-27 67t-71 28t-71 -28.5t-27 -66.5t26.5 -66.5t72.5 -28.5z" />
    <glyph glyph-name="nine.lf.case" horiz-adv-x="538" 
d="M291 273q-98 -14 -169.5 48.5t-71.5 165.5q0 100 66 159.5t159 59.5t158 -59.5t65 -160.5q0 -53 -19 -114q-21 -68 -203 -372h-145zM273 583q-37 0 -65.5 -25t-28.5 -71q0 -48 29.5 -71.5t64.5 -23.5q36 0 66 23.5t30 71.5q0 46 -29 71t-67 25z" />
    <glyph glyph-name="zero.osf" horiz-adv-x="575" 
d="M288 -5q-106 0 -172 76t-66 204t66 204t171 76t171.5 -76t66.5 -205q0 -128 -66 -203.5t-171 -75.5zM288 120q54 0 81.5 42t27.5 111q0 70 -27.5 113.5t-82.5 43.5q-54 0 -80.5 -43t-26.5 -113t27 -112t81 -42z" />
    <glyph glyph-name="one.osf" horiz-adv-x="378" 
d="M177 0v337h-122v112h67q29 0 45 16.5t16 45.5v39h119l1 -550h-126z" />
    <glyph glyph-name="two.osf" horiz-adv-x="549" 
d="M356 212q-78 -39 -100.5 -55t-31.5 -40h251v-117h-405v51q0 48 14.5 86t43 66.5t57.5 48t72 40.5q27 13 39.5 20t28 18t21.5 23.5t6 28.5q0 26 -18.5 41t-52.5 15q-39 0 -62.5 -20t-23.5 -55h-124q0 73 54 132.5t161 59.5q89 0 141 -44.5t52 -123.5q0 -113 -123 -175z
" />
    <glyph glyph-name="three.osf" horiz-adv-x="517" 
d="M375 284q28 -11 52.5 -43t24.5 -82q0 -75 -57 -119.5t-139 -44.5q-93 0 -152 57t-59 140h118q5 -38 28.5 -60t62.5 -22q35 0 55.5 17.5t20.5 47.5q0 67 -102 67h-23v94h19q50 0 71 13t21 39q0 51 -67 51t-71 -47h-116q0 66 53.5 114.5t139.5 48.5q76 0 126.5 -39.5
t50.5 -109.5q0 -73 -57 -112v-10z" />
    <glyph glyph-name="four.osf" horiz-adv-x="548" 
d="M498 227v-111h-83v-116h-123v116h-257v71l237 363h112h31v-323h83zM206 227h86v127h-16z" />
    <glyph glyph-name="five.osf" horiz-adv-x="553" 
d="M294 375q94 0 144 -53t50 -132q0 -84 -56 -139.5t-152 -55.5q-99 0 -162 56t-63 124h127q2 -27 29.5 -46t66.5 -19q38 0 61.5 20t23.5 58q0 77 -92 77q-54 0 -84 -39l-111 23l33 301h339v-117h-230l-13 -79q33 21 89 21z" />
    <glyph glyph-name="six.osf" horiz-adv-x="518" 
d="M286 364q61 0 116.5 -49t55.5 -134q0 -86 -58.5 -136t-144.5 -50q-87 0 -146 51t-59 138q0 43 17 84t54 98l53 78l54 76l22 30h148l-141 -192q10 6 29 6zM254 104q35 0 57 21t22 56q0 36 -22 57t-57 21t-57 -21t-22 -57q0 -35 22 -56t57 -21z" />
    <glyph glyph-name="seven.osf" horiz-adv-x="485" 
d="M40 550h405v-78q-60 -55 -99.5 -111t-60.5 -117t-30 -115.5t-13 -128.5h-127q7 167 46 276.5t93 157.5h-214v116z" />
    <glyph glyph-name="eight.osf" horiz-adv-x="538" 
d="M392 295q17 -9 32.5 -22.5t32 -44t16.5 -66.5q0 -72 -55 -119.5t-150 -47.5q-94 0 -148.5 47.5t-54.5 119.5q0 88 80 133v10q-58 34 -58 103q0 68 55 107.5t127 39.5t127 -39t55 -107q0 -70 -59 -104v-10zM269 449q-26 0 -42 -13.5t-16 -35.5q0 -24 17 -37.5t40 -13.5
q24 0 41.5 13t17.5 38q0 22 -15.5 35.5t-42.5 13.5zM270 102q38 0 58 20.5t20 47.5q0 28 -21.5 48t-58.5 20t-57.5 -19.5t-20.5 -47.5q0 -29 21 -49t59 -20z" />
    <glyph glyph-name="nine.osf" horiz-adv-x="498" 
d="M253 556q87 0 146 -51t59 -138q0 -43 -17 -84t-54 -98l-53 -78l-54 -76l-22 -30h-148l141 192q-10 -6 -29 -6q-61 0 -116.5 49t-55.5 134q0 86 58.5 136t144.5 50zM254 292q35 0 57 21t22 57q0 35 -22 56t-57 21t-57 -21t-22 -56q0 -36 22 -57t57 -21z" />
    <glyph glyph-name="zero.tf" horiz-adv-x="600" 
d="M300 646q118 0 180 -85t62 -241q0 -155 -62 -240t-179 -85q-118 0 -180.5 85.5t-62.5 240.5t62 240t180 85zM300 513q-100 0 -100 -193q0 -46 5 -78l152 249q-24 22 -57 22zM300 128q101 0 101 191q0 18 -2 54l-142 -233q18 -12 43 -12z" />
    <glyph glyph-name="one.tf" horiz-adv-x="600" 
d="M393 117h136v-117h-269h-152v117h152v316h-132v106h73q28 0 46.5 19t18.5 47v35h126z" />
    <glyph glyph-name="two.tf" horiz-adv-x="601" 
d="M340 251q-66 -33 -89.5 -62t-23.5 -63h276v-126h-425v51q0 187 159 282q20 12 50.5 27.5t45 23.5t27 24.5t13.5 38.5q2 37 -20 56t-55 19q-38 0 -62 -24t-24 -63h-133q0 35 13 70t37.5 67.5t68.5 53t100 20.5q90 0 150 -50.5t60 -137.5q0 -43 -14.5 -77t-43.5 -59
t-51 -39t-59 -32z" />
    <glyph glyph-name="three.tf" horiz-adv-x="604" 
d="M423 340q41 -15 65 -56.5t24 -91.5q0 -81 -62 -139t-154 -58q-96 0 -159.5 63t-63.5 141h129q3 -32 27 -55.5t65 -23.5q37 0 61.5 20.5t24.5 58.5q0 36 -24 62t-75 26h-43v105h39q47 0 66 22.5t19 50.5q0 31 -21 48t-50 17q-24 0 -44.5 -13.5t-24.5 -46.5h-126
q0 78 59 127t141 49q79 0 135.5 -47.5t56.5 -121.5q0 -41 -17.5 -76.5t-47.5 -52.5v-8z" />
    <glyph glyph-name="four.tf" horiz-adv-x="600" 
d="M553 249v-119h-104v-130h-129v130h-282v81l233 430h128h50v-392h104zM191 249h129v224h-10z" />
    <glyph glyph-name="five.tf" horiz-adv-x="600" 
d="M306 430q99 0 159.5 -62t60.5 -159q0 -100 -63.5 -157t-159.5 -57q-103 0 -161.5 63t-58.5 137h130q0 -3 1 -8t6.5 -18t14 -23t26.5 -18t41 -8q48 0 70 28.5t22 67.5q0 44 -26.5 70t-68.5 26q-25 0 -45.5 -9t-28.5 -18l-8 -9l-121 33l30 332h370v-126h-260l-9 -99
q34 14 79 14z" />
    <glyph glyph-name="six.tf" horiz-adv-x="600" 
d="M294 407q92 0 153 -56t61 -147q0 -95 -63.5 -152t-151.5 -57t-151.5 56.5t-63.5 153.5q0 43 19 104q7 23 33 71.5t50.5 89l60 99l44.5 72.5h145zM293 118q35 0 60.5 21.5t25.5 64.5q0 44 -27 64.5t-59 20.5t-59 -20.5t-27 -64.5q0 -43 26 -64.5t60 -21.5z" />
    <glyph glyph-name="seven.tf" horiz-adv-x="600" 
d="M98 641h405v-95q-89 -92 -141 -233t-52 -313h-133q0 105 15 196t40.5 153t46 99t42.5 65h-223v128z" />
    <glyph glyph-name="eight.tf" horiz-adv-x="600" 
d="M422 346q43 -16 73.5 -59t30.5 -96q0 -78 -64.5 -137t-162.5 -59t-161.5 58.5t-63.5 137.5q0 55 31.5 97.5t72.5 57.5v9q-30 16 -50 50.5t-20 74.5q0 70 56.5 118t137.5 48q78 0 134 -46t56 -115q0 -41 -20 -77t-50 -52v-10zM300 528q-30 0 -49.5 -16.5t-19.5 -43.5
q0 -28 21 -43.5t48 -15.5t47.5 15.5t20.5 43.5q0 27 -19 43.5t-49 16.5zM301 116q42 0 65.5 25t23.5 55q0 31 -24.5 56t-65.5 25t-65.5 -25.5t-24.5 -55.5t24.5 -55t66.5 -25z" />
    <glyph glyph-name="nine.tf" horiz-adv-x="600" 
d="M302 234q-92 0 -153 56t-61 147q0 95 63.5 152t150.5 57t151.5 -56.5t64.5 -148.5q0 -57 -29 -119q-48 -103 -178 -322h-145zM303 523q-35 0 -60.5 -21.5t-25.5 -64.5q0 -44 27 -64.5t59 -20.5t59 20.5t27 64.5q0 43 -26 64.5t-60 21.5z" />
    <glyph glyph-name="zero.tf.case" horiz-adv-x="610" 
d="M305 705q122 0 187 -97.5t65 -257.5t-64.5 -257.5t-186.5 -97.5q-123 0 -188 98t-65 258t65 257t187 97zM305 572q-34 0 -57 -22t-34 -58.5t-15 -70.5t-4 -71q0 -50 6 -86l169 278q-27 30 -65 30zM305 128q34 0 58 22t34.5 59t14.5 70t4 70q0 40 -4 75l-166 -272
q24 -24 59 -24z" />
    <glyph glyph-name="one.tf.case" horiz-adv-x="610" 
d="M395 117h132v-117h-265h-156v117h156v376h-145v106h76q35 0 55 20t20 56v25h126z" />
    <glyph glyph-name="two.tf.case" horiz-adv-x="610" 
d="M348 261q-64 -47 -89.5 -75.5t-25.5 -59.5h288v-126h-440v51q0 63 13.5 112t40.5 83t50.5 54t59.5 43q9 6 30 19t30 19t25.5 18t24.5 21t17.5 21t13.5 25t5 27q2 39 -22 63.5t-62 24.5q-43 0 -67.5 -31.5t-24.5 -74.5h-133q0 35 13 73t38.5 74t70.5 59.5t101 23.5
q93 0 157 -58t64 -146q0 -40 -13 -74t-43.5 -65.5t-48.5 -46t-58 -43.5q-10 -8 -15 -11z" />
    <glyph glyph-name="three.tf.case" horiz-adv-x="610" 
d="M432 370q44 -16 71.5 -62t27.5 -103q0 -88 -63 -149t-159 -61q-99 0 -165.5 63t-66.5 141h129q3 -32 29.5 -55.5t65.5 -23.5q40 0 69 24.5t29 68.5q0 43 -28.5 73.5t-80.5 30.5h-43v105h39q49 0 72 26.5t23 61.5t-23 57t-57 22q-30 0 -50.5 -19.5t-24.5 -55.5h-126
q0 83 61.5 137t146.5 54q83 0 141 -51.5t58 -127.5q0 -46 -21.5 -87.5t-53.5 -60.5v-8z" />
    <glyph glyph-name="four.tf.case" horiz-adv-x="610" 
d="M572 259v-119h-110v-140h-129v140h-292v81l243 479h141h37v-441h110zM207 259h126v234h-10z" />
    <glyph glyph-name="five.tf.case" horiz-adv-x="610" 
d="M316 471q100 0 164 -70.5t64 -172.5q0 -104 -65.5 -168.5t-166.5 -64.5q-102 0 -163.5 63.5t-61.5 136.5h130q0 -3 1.5 -8t7.5 -18t15.5 -23t28 -18t42.5 -8q53 0 77.5 34t24.5 81q0 52 -28 84t-75 32q-32 0 -54.5 -15t-29.5 -30l-7 -15l-121 33l31 376h386v-126h-276
l-10 -122q36 19 86 19z" />
    <glyph glyph-name="six.tf.case" horiz-adv-x="610" 
d="M285 428q98 14 169.5 -48.5t71.5 -165.5q0 -100 -66 -159.5t-159 -59.5t-158 59.5t-65 160.5q0 53 19 114q21 68 203 372h145zM303 118q37 0 65.5 25t28.5 71q0 48 -29.5 71.5t-64.5 23.5q-36 0 -66 -23.5t-30 -71.5q0 -46 29 -71t67 -25z" />
    <glyph glyph-name="seven.tf.case" horiz-adv-x="610" 
d="M98 700h423v-95q-93 -97 -152 -258t-59 -347h-133q0 112 17 212t44.5 170t51.5 114.5t49 75.5h-241v128z" />
    <glyph glyph-name="eight.tf.case" horiz-adv-x="610" 
d="M439 375q45 -16 76.5 -62t31.5 -108q0 -89 -65 -149.5t-170 -60.5q-106 0 -169.5 60.5t-63.5 148.5q0 64 32.5 110t75.5 61v9q-32 18 -53 54.5t-21 84.5q0 81 58.5 131.5t143.5 50.5q83 0 140.5 -48.5t57.5 -128.5q0 -48 -21 -87t-53 -56v-10zM313 587q-32 0 -54.5 -19.5
t-22.5 -55.5q0 -38 23.5 -56t53.5 -18q29 0 52.5 18t23.5 56q0 36 -22 55.5t-54 19.5zM314 116q45 0 71 28t26 67t-27 67t-71 28t-71 -28.5t-27 -66.5t26.5 -66.5t72.5 -28.5z" />
    <glyph glyph-name="nine.tf.case" horiz-adv-x="610" 
d="M322 273q-98 -14 -169.5 48.5t-71.5 165.5q0 100 66 159.5t159 59.5t158 -59.5t65 -160.5q0 -53 -19 -114q-21 -68 -203 -372h-145zM304 583q-37 0 -65.5 -25t-28.5 -71q0 -48 29.5 -71.5t64.5 -23.5q36 0 66 23.5t30 71.5q0 46 -29 71t-67 25z" />
    <glyph glyph-name="zero.tosf" horiz-adv-x="600" 
d="M300 555q105 0 171.5 -76t66.5 -205q0 -128 -66 -203.5t-171 -75.5q-106 0 -172 76t-66 204t66 204t171 76zM300 430q-54 0 -80.5 -43t-26.5 -113q0 -45 10 -76l137 224q-19 8 -40 8zM301 120q54 0 81.5 42t27.5 111q0 35 -8 69l-133 -218q20 -4 32 -4z" />
    <glyph glyph-name="one.tosf" horiz-adv-x="600" 
d="M393 113h116v-113h-242h-132v113h132v224h-122v112h67q29 0 45 16.5t16 45.5v39h119z" />
    <glyph glyph-name="two.tosf" horiz-adv-x="600" 
d="M381 212q-78 -39 -100.5 -55t-31.5 -40h251v-117h-405v51q0 48 14.5 86t43 66.5t57.5 48t72 40.5q27 13 39.5 20t28 18t21.5 23.5t6 28.5q0 26 -18.5 41t-52.5 15q-39 0 -62.5 -20t-23.5 -55h-124q0 73 54 132.5t161 59.5q89 0 141 -44.5t52 -123.5q0 -113 -123 -175z
" />
    <glyph glyph-name="three.tosf" horiz-adv-x="600" 
d="M425 284q28 -11 52.5 -43t24.5 -82q0 -75 -57 -119.5t-139 -44.5q-93 0 -152 57t-59 140h118q5 -38 28.5 -60t62.5 -22q35 0 55.5 17.5t20.5 47.5q0 67 -102 67h-23v94h19q50 0 71 13t21 39q0 51 -67 51t-71 -47h-116q0 66 53.5 114.5t139.5 48.5q76 0 126.5 -39.5
t50.5 -109.5q0 -73 -57 -112v-10z" />
    <glyph glyph-name="four.tosf" horiz-adv-x="600" 
d="M524 227v-111h-83v-116h-123v116h-257v71l237 363h112h31v-323h83zM232 227h86v127h-16z" />
    <glyph glyph-name="five.tosf" horiz-adv-x="600" 
d="M323 375q94 0 144 -53t50 -132q0 -84 -56 -139.5t-152 -55.5q-99 0 -162 56t-63 124h127q2 -27 29.5 -46t66.5 -19q38 0 61.5 20t23.5 58q0 77 -92 77q-54 0 -84 -39l-111 23l33 301h339v-117h-230l-13 -79q33 21 89 21z" />
    <glyph glyph-name="six.tosf" horiz-adv-x="600" 
d="M337 364q61 0 116.5 -49t55.5 -134q0 -86 -58.5 -136t-144.5 -50q-87 0 -146 51t-59 138q0 43 17 84t54 98l53 78l54 76l22 30h148l-141 -192q10 6 29 6zM305 104q35 0 57 21t22 56q0 36 -22 57t-57 21t-57 -21t-22 -57q0 -35 22 -56t57 -21z" />
    <glyph glyph-name="seven.tosf" horiz-adv-x="600" 
d="M108 550h405v-78q-60 -55 -99.5 -111t-60.5 -117t-30 -115.5t-13 -128.5h-127q7 167 46 276.5t93 157.5h-214v116z" />
    <glyph glyph-name="eight.tosf" horiz-adv-x="600" 
d="M423 295q17 -9 32.5 -22.5t32 -44t16.5 -66.5q0 -72 -55 -119.5t-150 -47.5q-94 0 -148.5 47.5t-54.5 119.5q0 88 80 133v10q-58 34 -58 103q0 68 55 107.5t127 39.5t127 -39t55 -107q0 -70 -59 -104v-10zM300 449q-26 0 -42 -13.5t-16 -35.5q0 -24 17 -37.5t40 -13.5
q24 0 41.5 13t17.5 38q0 22 -15.5 35.5t-42.5 13.5zM301 102q38 0 58 20.5t20 47.5q0 28 -21.5 48t-58.5 20t-57.5 -19.5t-20.5 -47.5q0 -29 21 -49t59 -20z" />
    <glyph glyph-name="nine.tosf" horiz-adv-x="600" 
d="M300 556q87 0 146 -51t59 -138q0 -43 -17 -84t-54 -98l-53 -78l-54 -76l-22 -30h-148l141 192q-10 -6 -29 -6q-61 0 -116.5 49t-55.5 134q0 86 58.5 136t144.5 50zM301 292q35 0 57 21t22 57q0 35 -22 56t-57 21t-57 -21t-22 -56q0 -36 22 -57t57 -21z" />
    <glyph glyph-name="zero.dnom" horiz-adv-x="414" 
d="M208 -3q-70 0 -114 53t-44 142t43.5 142.5t113.5 53.5t113.5 -54t43.5 -143q0 -88 -43 -141t-113 -53zM208 94q57 0 57 97q0 98 -58 98q-57 0 -57 -97q0 -98 58 -98z" />
    <glyph glyph-name="one.dnom" horiz-adv-x="291" 
d="M144 0v233h-94v81h57q19 0 30 11.5t11 30.5v29h92l1 -385h-97z" />
    <glyph glyph-name="two.dnom" horiz-adv-x="388" 
d="M250 147q-9 -6 -26 -15.5l-25.5 -14.5t-16 -13t-8.5 -15h155v-89h-279v36q0 58 23 90t64 56l29 15.5t28 15.5t21.5 14t16.5 17t5 20q0 15 -11.5 24t-29.5 9q-25 0 -39.5 -15.5t-14.5 -37.5h-91q0 57 37.5 100.5t109.5 43.5q60 0 97 -32t37 -86q0 -73 -82 -123z" />
    <glyph glyph-name="three.dnom" horiz-adv-x="388" 
d="M282 196q19 -4 37.5 -24t18.5 -56q0 -50 -39.5 -84.5t-100.5 -34.5q-64 0 -106 36.5t-42 91.5h92q1 -17 17 -30t38 -13q20 0 33 10t13 29q0 37 -58 37h-27v74h24q54 0 54 37q0 15 -11 25.5t-29 10.5q-17 0 -29 -10t-14 -24h-91q0 46 38.5 81.5t99.5 35.5q56 0 90.5 -30.5
t34.5 -76.5q0 -31 -14.5 -52t-28.5 -27v-6z" />
    <glyph glyph-name="four.dnom" horiz-adv-x="422" 
d="M372 160v-79h-65v-81h-85v81h-172v50l142 254h115v-225h65zM164 160h58v95h-9z" />
    <glyph glyph-name="five.dnom" horiz-adv-x="399" 
d="M219 269q54 0 92 -38.5t38 -95.5q0 -60 -42 -97.5t-106 -37.5q-65 0 -108 37.5t-43 87.5h96q4 -18 19 -30t37 -12q23 0 38 14.5t15 37.5q0 22 -13.5 38t-41.5 16q-30 0 -53 -27l-82 16l23 210h240v-80h-157l-8 -51q27 12 56 12z" />
    <glyph glyph-name="six.dnom" horiz-adv-x="382" 
d="M216 254q46 0 81 -36t35 -92q0 -61 -42 -95t-99 -34q-58 0 -99.5 35t-41.5 99q0 56 47 129l90 125h112l-104 -134q9 3 21 3zM191 80q22 0 36 13t14 34t-14 34.5t-36 13.5t-36 -13.5t-14 -34.5t14 -34t36 -13z" />
    <glyph glyph-name="seven.dnom" horiz-adv-x="369" 
d="M50 385h279v-62q-76 -92 -100 -157t-26 -166h-99q4 100 24 164.5t68 132.5h-146v88z" />
    <glyph glyph-name="eight.dnom" horiz-adv-x="388" 
d="M283 207q26 -9 40.5 -34.5t14.5 -55.5q0 -50 -39.5 -85t-105.5 -35t-104.5 35t-38.5 85q0 30 14 55.5t40 34.5v7q-39 21 -39 72q0 48 39 75t90 27t89.5 -26.5t38.5 -75.5q0 -51 -39 -72v-7zM194 314q-17 0 -27 -10t-10 -26t10 -25.5t26 -9.5t27 9.5t11 26.5q0 15 -10 25
t-27 10zM193 71q26 0 39.5 15t13.5 37t-13 37t-40 15q-26 0 -38.5 -15t-12.5 -37t13 -37t38 -15z" />
    <glyph glyph-name="nine.dnom" horiz-adv-x="382" 
d="M191 388q58 0 99.5 -35t41.5 -99q0 -56 -47 -129l-90 -125h-109l106 138q-9 -3 -21 -3q-48 0 -84.5 34t-36.5 91q0 61 42 94.5t99 33.5zM191 210q22 0 36 13.5t14 34.5t-14 34t-36 13t-36 -13t-14 -34t14 -34.5t36 -13.5z" />
    <glyph glyph-name="zero.numr" horiz-adv-x="414" 
d="M208 252q-70 0 -114 53t-44 142t43.5 142.5t113.5 53.5t113.5 -54t43.5 -143q0 -88 -43 -141t-113 -53zM208 349q57 0 57 97q0 98 -58 98q-57 0 -57 -97q0 -98 58 -98z" />
    <glyph glyph-name="one.numr" horiz-adv-x="291" 
d="M144 255v233h-94v81h57q19 0 30 11.5t11 30.5v29h92l1 -385h-97z" />
    <glyph glyph-name="two.numr" horiz-adv-x="388" 
d="M250 402q-9 -6 -26 -15.5l-25.5 -14.5t-16 -13t-8.5 -15h155v-89h-279v36q0 58 23 90t64 56l29 15.5t28 15.5t21.5 14t16.5 17t5 20q0 15 -11.5 24t-29.5 9q-25 0 -39.5 -15.5t-14.5 -37.5h-91q0 57 37.5 100.5t109.5 43.5q60 0 97 -32t37 -86q0 -73 -82 -123z" />
    <glyph glyph-name="three.numr" horiz-adv-x="388" 
d="M282 451q19 -4 37.5 -24t18.5 -56q0 -50 -39.5 -84.5t-100.5 -34.5q-64 0 -106 36.5t-42 91.5h92q1 -17 17 -30t38 -13q20 0 33 10t13 29q0 37 -58 37h-27v74h24q54 0 54 37q0 15 -11 25.5t-29 10.5q-17 0 -29 -10t-14 -24h-91q0 46 38.5 81.5t99.5 35.5q56 0 90.5 -30.5
t34.5 -76.5q0 -31 -14.5 -52t-28.5 -27v-6z" />
    <glyph glyph-name="four.numr" horiz-adv-x="422" 
d="M372 415v-79h-65v-81h-85v81h-172v50l142 254h115v-225h65zM164 415h58v95h-9z" />
    <glyph glyph-name="five.numr" horiz-adv-x="399" 
d="M219 521q54 0 92 -38.5t38 -95.5q0 -60 -42 -97.5t-106 -37.5q-65 0 -108 37.5t-43 87.5h96q4 -18 19 -30t37 -12q23 0 38 14.5t15 37.5q0 22 -13.5 38t-41.5 16q-30 0 -53 -27l-82 16l23 210h240v-80h-157l-8 -51q27 12 56 12z" />
    <glyph glyph-name="six.numr" horiz-adv-x="382" 
d="M216 509q46 0 81 -36t35 -92q0 -61 -42 -95t-99 -34q-58 0 -99.5 35t-41.5 99q0 56 47 129l90 125h112l-104 -134q9 3 21 3zM191 335q22 0 36 13t14 34t-14 34.5t-36 13.5t-36 -13.5t-14 -34.5t14 -34t36 -13z" />
    <glyph glyph-name="seven.numr" horiz-adv-x="369" 
d="M50 640h279v-62q-76 -92 -100 -157t-26 -166h-99q4 100 24 164.5t68 132.5h-146v88z" />
    <glyph glyph-name="eight.numr" horiz-adv-x="388" 
d="M283 462q26 -9 40.5 -34.5t14.5 -55.5q0 -50 -39.5 -85t-105.5 -35t-104.5 35t-38.5 85q0 30 14 55.5t40 34.5v7q-39 21 -39 72q0 48 39 75t90 27t89.5 -26.5t38.5 -75.5q0 -51 -39 -72v-7zM194 569q-17 0 -27 -10t-10 -26t10 -25.5t26 -9.5t27 9.5t11 26.5q0 15 -10 25
t-27 10zM193 326q26 0 39.5 15t13.5 37t-13 37t-40 15q-26 0 -38.5 -15t-12.5 -37t13 -37t38 -15z" />
    <glyph glyph-name="nine.numr" horiz-adv-x="382" 
d="M191 643q58 0 99.5 -35t41.5 -99q0 -56 -47 -129l-90 -125h-109l106 138q-9 -3 -21 -3q-48 0 -84.5 34t-36.5 91q0 61 42 94.5t99 33.5zM191 465q22 0 36 13.5t14 34.5t-14 34t-36 13t-36 -13t-14 -34t14 -34.5t36 -13.5z" />
    <glyph glyph-name="exclamdown.case" horiz-adv-x="280" 
d="M140 545q-33 0 -56.5 23t-23.5 57q0 33 23.5 56.5t56.5 23.5t56.5 -23.5t23.5 -56.5q0 -34 -23.5 -57t-56.5 -23zM92 500h95l20 -500h-134z" />
    <glyph glyph-name="exclam.alt" horiz-adv-x="290" 
d="M216 445l-26 -245h-80l-26 245q-14 137 -14 155q0 52 22.5 77.5t57.5 25.5t57.5 -25.5t22.5 -77.5q0 -18 -14 -155zM140 -5q-33 0 -56.5 23.5t-23.5 56.5q0 34 23.5 57t56.5 23t56.5 -23t23.5 -57q0 -33 -23.5 -56.5t-56.5 -23.5z" />
    <glyph glyph-name="exclamdown.alt" horiz-adv-x="290" 
d="M140 505q33 0 56.5 -23.5t23.5 -56.5q0 -34 -23.5 -57t-56.5 -23t-56.5 23t-23.5 57q0 33 23.5 56.5t56.5 23.5zM216 55q14 -137 14 -155q0 -52 -22.5 -77.5t-57.5 -25.5t-57.5 25.5t-22.5 77.5q0 18 14 155l26 245h80z" />
    <glyph glyph-name="exclamdown.case.alt" horiz-adv-x="290" 
d="M140 703q33 0 56.5 -23.5t23.5 -56.5q0 -34 -23.5 -57t-56.5 -23t-56.5 23t-23.5 57q0 33 23.5 56.5t56.5 23.5zM216 253q14 -137 14 -155q0 -52 -22.5 -77.5t-57.5 -25.5t-57.5 25.5t-22.5 77.5q0 18 14 155l26 245h80z" />
    <glyph glyph-name="questiondown.case" horiz-adv-x="461" 
d="M255 705q33 0 56.5 -23.5t23.5 -56.5q0 -34 -23.5 -57t-56.5 -23t-56.5 23t-23.5 57q0 33 23.5 56.5t56.5 23.5zM317 453q0 -52 -12.5 -93t-55.5 -84q-14 -14 -34.5 -31l-31.5 -26.5t-19.5 -23.5t-8.5 -30q0 -25 18 -42.5t53 -17.5q70 0 80 75h122q0 -77 -48 -133
t-150 -56q-93 0 -145 47t-52 118q0 34 13.5 64t28.5 46t41.5 40.5t35.5 34.5q21 23 31.5 51.5t11 42t0.5 44.5v21h122v-47z" />
    <glyph glyph-name="braceleft.case" horiz-adv-x="353" 
d="M237 467q0 -74 -42 -113v-8q42 -39 42 -113v-210q0 -21 1 -30t9 -16.5t25 -7.5h11v-90h-49q-52 0 -82 31.5t-30 86.5v226q0 42 -16.5 63.5t-55.5 21.5v82v2q39 0 55.5 21.5t16.5 63.5v226q0 55 30 86.5t82 31.5h49v-90h-11q-24 0 -29.5 -12t-5.5 -42v-210z" />
    <glyph glyph-name="braceright.case" horiz-adv-x="353" 
d="M231 478q0 -42 16.5 -63.5t55.5 -21.5v-82v-2q-39 0 -55.5 -21.5t-16.5 -63.5v-226q0 -55 -30 -86.5t-82 -31.5h-49v90h11q24 0 29.5 12t5.5 42v210q0 74 42 113v8q-42 39 -42 113v210q0 21 -1 30t-9 16.5t-25 7.5h-11v90h49q52 0 82 -31.5t30 -86.5v-226z" />
    <glyph glyph-name="bracketleft.case" horiz-adv-x="360" 
d="M60 821h220v-109h-103v-724h103v-109h-220v942z" />
    <glyph glyph-name="bracketright.case" horiz-adv-x="360" 
d="M290 821v-942h-220v109h103v724h-103v109h220z" />
    <glyph glyph-name="parenleft.case" horiz-adv-x="369" 
d="M329 -59l-85 -75q-184 200 -184 484q0 285 184 485l85 -76q-145 -158 -145 -409q0 -250 145 -409z" />
    <glyph glyph-name="parenright.case" horiz-adv-x="369" 
d="M30 -59q145 159 145 409q0 251 -145 409l85 76q184 -200 184 -485q0 -284 -184 -484z" />
    <glyph glyph-name="emdash.case" horiz-adv-x="860" 
d="M810 408v-114h-760v114h760z" />
    <glyph glyph-name="endash.case" horiz-adv-x="535" 
d="M50 408h435v-114h-435v114z" />
    </font>
</defs>
</svg>
