<?xml version="1.0" encoding="UTF-8" standalone="no"?>
<svg width="727px" height="727px" viewBox="0 0 727 727" version="1.1" xmlns="http://www.w3.org/2000/svg" xmlns:xlink="http://www.w3.org/1999/xlink">
    <!-- Generator: Sketch 3.8.3 (29802) - http://www.bohemiancoding.com/sketch -->
    <title>Group 3 Copy</title>
    <desc>Created with Sketch.</desc>
    <defs></defs>
    <g id="HALFHELIX" stroke="none" stroke-width="1" fill="none" fill-rule="evenodd">
        <g id="Home-2" transform="translate(-349.000000, -87.000000)">
            <g id="Section_Hero" transform="translate(-331.000000, -156.000000)">
                <g id="Group-3-Copy" style="mix-blend-mode: screen;" transform="translate(679.233247, 242.233247)">
                    <g id="HH-Smily" transform="translate(0.980982, 0.980982)">
                        <path d="M363.302764,697.068718 L363.302764,697.068718 C547.636611,697.068718 697.068718,547.636611 697.068718,363.302764 C697.068718,178.968918 547.636611,29.5368101 363.302764,29.5368101 C178.968918,29.5368101 29.5368101,178.968918 29.5368101,363.302764 C29.5368101,547.636611 178.968918,697.068718 363.302764,697.068718 L363.302764,697.068718 Z M363.302764,726.605528 L363.302764,726.605528 C162.656188,726.605528 -5.1159077e-13,563.94934 -5.1159077e-13,363.302764 C-5.1159077e-13,162.656188 162.656188,3.97903932e-13 363.302764,3.97903932e-13 C563.94934,3.97903932e-13 726.605528,162.656188 726.605528,363.302764 C726.605528,563.94934 563.94934,726.605528 363.302764,726.605528 L363.302764,726.605528 Z" id="Oval-7" fill="#313131"></path>
                        <text id="H" font-family="Moderat-Bold, Moderat" font-size="165.406137" font-weight="bold" letter-spacing="1.75" fill="#2B2B2B">
                            <tspan x="194.942947" y="336.313499">H</tspan>
                        </text>
                        <text id="H-Copy" font-family="Moderat-Bold, Moderat" font-size="165.406137" font-weight="bold" letter-spacing="1.75" fill="#2B2B2B">
                            <tspan x="401.700617" y="336.313499">H</tspan>
                        </text>
                        <path d="M163.625392,460.91978 C165.457142,465.237362 169.072833,472.257981 174.687844,481.086355 C183.904576,495.577645 195.544775,510.029786 209.838523,523.5202 C250.645302,562.033562 304.571259,585.176378 372.561935,585.176376 C441.189357,585.176374 494.009133,558.148137 532.304727,513.375874 C545.635435,497.790637 556.222316,481.13311 564.378489,464.455225 C569.323894,454.342774 572.401299,446.336698 573.891592,441.464721 L578.211523,427.342257 L549.966596,418.702395 L545.646665,432.824858 C545.426576,433.544358 544.869507,435.170738 543.946434,437.572175 C542.346612,441.734218 540.321838,446.41375 537.844675,451.479098 C530.726352,466.034771 521.462388,480.610803 509.858747,494.176886 C476.913352,532.694108 432.072327,555.639564 372.561934,555.639566 C312.41479,555.639568 265.62974,535.561337 230.111853,502.039622 C217.69197,490.317758 207.574946,477.756747 199.610806,465.234884 C196.850767,460.895327 194.566321,456.893567 192.737453,453.342439 C191.692066,451.312602 191.058732,449.955283 190.816329,449.383921 L185.048399,435.788452 L157.857462,447.324312 L163.625392,460.91978 L163.625392,460.91978 Z" id="Path-8" fill="#313131"></path>
                    </g>
                </g>
            </g>
        </g>
    </g>
</svg>